<?xml version="1.0" standalone="no"?>
<!DOCTYPE svg PUBLIC "-//W3C//DTD SVG 20010904//EN" "http://www.w3.org/TR/2001/REC-SVG-20010904/DTD/svg10.dtd">
<!-- Created using Krita: https://krita.org -->
<svg xmlns="http://www.w3.org/2000/svg" 
    xmlns:xlink="http://www.w3.org/1999/xlink"
    xmlns:krita="http://krita.org/namespaces/svg/krita"
    xmlns:sodipodi="http://sodipodi.sourceforge.net/DTD/sodipodi-0.dtd"
    width="189.12pt"
    height="189.6pt"
    viewBox="0 0 189.12 189.6">
<defs/>
<path id="shape0" transform="translate(0.576728962638596, -1.37897106033772)" fill="#dce1ed" fill-rule="evenodd" stroke="none" stroke-width="0.7752" stroke-linecap="square" stroke-linejoin="bevel" d="M108.141 1.36721C97.8482 1.36721 48.3554 0.887295 43.988 16.9672C42.2694 23.2946 50.1921 29.3338 49.3056 36.0378C48.824 39.6799 40.9377 56.907 40.988 57.0613C42.6058 62.0225 50.6383 63.1995 54.435 66.2731C57.5226 68.7726 63.3527 74.179 63.3527 74.179C63.3527 74.179 57.8051 73.6574 55.235 72.6731C45.7089 69.0248 38.4038 69.6137 31.8233 61.3672C30.4081 59.5937 34.035 23.9131 15.588 43.626C-11.4764 72.5478 -0.54677 137.113 27.3174 160.473C65.9343 192.847 92.5715 129.334 110.941 142.544C110.989 142.578 101.297 155.997 101.412 157.944C101.478 159.08 102.102 159.456 102.835 160.32C105.789 163.8 120.382 163.528 107.447 167.026C95.7649 170.185 74.7748 168.393 71.588 184.626C71.0012 187.615 74.872 188.794 77.2468 189.226C118.201 196.672 135.946 177.882 161.929 153.897C170.224 146.24 178.323 148.004 182.576 135.367C187.186 121.673 175.907 108.091 177.4 94.9201C178.921 81.4956 191.646 74.6736 184.753 59.8378C178.017 45.341 126.091 -12.4165 107.553 2.41427" sodipodi:nodetypes="ccccccccccccccccccccc"/><path id="shape1" transform="translate(20.3249052993934, 36.4107643524344)" fill="#645688" fill-opacity="0.388235294117647" fill-rule="evenodd" stroke="none" stroke-width="0.7752" stroke-linecap="square" stroke-linejoin="bevel" d="M5.28215 0.488059C5.17756 0.17427 5.19655 1.14649 5.10568 1.46453C2.02337 12.2526 -0.179769 14.4439 0.0115652 25.1586C0.327617 42.8576 20.3139 36.5409 31.1763 41.041C33.4076 41.9654 41.3908 54.7319 43.5763 53.1939C73.9986 31.7857 28.264 36.0127 18.4822 28.6763C9.14783 21.6755 14.0056 17.8581 11.941 7.441C11.5153 5.29325 6.91476 -1.61554 7.24686 0.346882" sodipodi:nodetypes="cccccccc"/><path id="shape2" transform="translate(71.4987950486589, 139.181175622403)" fill="#645688" fill-opacity="0.388235294117647" fill-rule="evenodd" stroke="none" stroke-width="0.7752" stroke-linecap="square" stroke-linejoin="bevel" d="M36.52 0C67.6692 0 33.0774 13.4558 47.6965 18.0353C83.228 29.1656 16.5947 32.0901 0.567087 48.1176C-1.10352 49.7883 1.3563 43.4094 2.30826 41.2471C4.36794 36.5687 6.28795 32.4383 11.5671 30.5529C23.1186 26.4274 50.0069 29.2383 32.0965 21.6C25.7414 18.8897 37.9425 -5.34545 35.6965 1.18824" sodipodi:nodetypes="ccccccc"/><path id="shape3" transform="translate(135.207057999563, 62.2251289507365)" fill="#645688" fill-opacity="0.388235294117647" fill-rule="evenodd" stroke="none" stroke-width="0.7752" stroke-linecap="square" stroke-linejoin="bevel" d="M52.5765 1.36781C45.8583 -3.67084 20.2246 27.2097 14.2941 30.9325C7.67393 35.0883 0 42.2014 0 50.8972C0 63.1425 29.0355 35.968 25.8471 48.8737C24.4554 54.5068 16.2936 66.6047 25.1882 69.8737C27.4413 70.7017 33.4647 59.2534 36.4941 58.2619C39.3366 57.3317 48.328 70.1438 48.9059 72.7443C49.4766 75.3125 50.1027 67.5047 49.7529 64.8972C49.0382 59.5692 47.5407 55.5049 46.1765 50.3208C45.2515 46.8057 43.4446 41.0072 43.8471 37.4855C45.0178 27.241 47.4322 21.4463 51.0471 11.7678C52.3749 8.21267 52.5529 -2.89128 53.7529 0.708988" sodipodi:nodetypes="cccccccccccc"/><path id="shape4" transform="translate(106.553491179918, 22.3036878208299)" fill="#645688" fill-opacity="0.388235294117647" fill-rule="evenodd" stroke="none" stroke-width="0.7752" stroke-linecap="square" stroke-linejoin="bevel" d="M23.6183 3.98337C22.6815 2.67183 22.3012 2.03289 20.4418 2.14808C17.2285 2.34713 13.9236 3.81838 11.0418 4.91278C-12.3327 13.7897 9.06269 17.3455 6.55945 30.7128C6.00768 33.6592 -2.32349 38.6015 1.79474 40.9128C11.0715 46.1191 42.0842 23.6066 42.1124 23.501C46.5359 6.913 34.3512 -6.38055 22.9242 3.24219" sodipodi:nodetypes="ccccccc"/><path id="shape5" transform="translate(113.449106741857, 43.907525204336)" fill="#645688" fill-opacity="0.388235294117647" fill-rule="evenodd" stroke="none" stroke-width="0.7752" stroke-linecap="square" stroke-linejoin="bevel" d="M26.2521 3.83836C26.2521 -12.5213 -8.79353 28.1391 2.09913 37.356C22.622 54.7215 43.8495 12.6656 34.2168 5.56777C33.0244 4.68916 27.9678 2.78025 27.1697 4.46189" sodipodi:nodetypes="cccc"/><path id="shape6" transform="translate(24.5185813271959, 101.732857056886)" fill="#645688" fill-opacity="0.388235294117647" fill-rule="evenodd" stroke="none" stroke-width="0.7752" stroke-linecap="square" stroke-linejoin="bevel" d="M6.52377 8.53067C-14.3114 25.1988 21.1833 34.1414 23.8885 23.5424C24.0847 22.7737 24.2747 22.0028 24.4297 21.2248C24.7283 19.7257 24.4942 18.1061 24.0767 16.6601C22.4795 11.1281 16.6544 16.5574 14.9355 15.2601C13.6906 14.3205 11.0748 -13.378 4.5473 8.21302" sodipodi:nodetypes="cccccc"/>
</svg>
