<?xml version="1.0" standalone="no"?>
<!DOCTYPE svg PUBLIC "-//W3C//DTD SVG 20010904//EN" "http://www.w3.org/TR/2001/REC-SVG-20010904/DTD/svg10.dtd">
<!-- Created using Krita: https://krita.org -->
<svg xmlns="http://www.w3.org/2000/svg" 
    xmlns:xlink="http://www.w3.org/1999/xlink"
    xmlns:krita="http://krita.org/namespaces/svg/krita"
    xmlns:sodipodi="http://sodipodi.sourceforge.net/DTD/sodipodi-0.dtd"
    width="189.12pt"
    height="189.6pt"
    viewBox="0 0 189.12 189.6">
<defs/>
<path id="shape0" transform="translate(-66.2996880021275, 229.322351543661)" fill="none" stroke="#ffffff" stroke-width="0.7752" stroke-linecap="square" stroke-linejoin="bevel" d="M0.118512 0C-0.0945215 0.118352 -0.0274135 0.0536567 0.377335 0.105882" sodipodi:nodetypes="cc"/><path id="shape1" transform="translate(4.06979263693086, -0.688937050372977)" fill="#dce1ed" fill-rule="evenodd" stroke="none" stroke-width="0.7752" stroke-linecap="square" stroke-linejoin="bevel" d="M86.302 0.470114C77.5307 -0.782924 63.2778 5.42753 55.0314 8.12894C-47.5241 41.7247 6.67097 205.32 107.926 187.341C164.849 177.233 190.156 117.078 175.561 67.2819C173.942 61.7586 175.68 52.6707 172.126 47.8348C165.734 39.1377 155.187 30.6549 147.784 22.4466C128.693 1.27741 109.362 8.75726 87.5373 1.31717C86.5632 0.985096 87.1364 -1.03778 86.5608 0.688937" sodipodi:nodetypes="cccccccc"/><path id="shape2" transform="translate(3.41543084285367, 64.4063030393702)" fill="#585982" fill-opacity="0.498039215686275" fill-rule="evenodd" stroke="none" stroke-width="0.7752" stroke-linecap="square" stroke-linejoin="bevel" d="M2.69751 39.2572C-8.00302 35.6904 16.0958 2.13941 23.3799 0.11605C26.7974 -0.833275 26.9696 4.28078 27.4387 6.75134C34.3722 43.2678 115.014 38.2671 71.9916 93.3749C68.4257 97.9425 62.4813 95.9026 57.8505 97.916C29.142 110.398 32.182 98.2245 11.0505 69.1278C7.63147 64.9609 1.52518 36.2844 3.49751 38.0102" sodipodi:nodetypes="ccccccc"/><path id="shape3" transform="translate(130.739056777197, 37.6810310333684)" fill="#585982" fill-opacity="0.498039215686275" fill-rule="evenodd" stroke="none" stroke-width="0.7752" stroke-linecap="square" stroke-linejoin="bevel" d="M8.84447 5.77073C-12.4484 2.22192 11.3449 44.0173 11.7386 46.1825C14.9609 63.9051 0.999837 92.8868 35.1504 80.9119C69.1528 68.989 29.268 25.552 27.4562 19.0296C26.4538 15.421 32.6494 11.9475 30.2915 7.11191C27.4291 1.24154 17.9709 -3.14523 13.2209 2.90015C11.9518 4.51538 7.80781 7.69975 9.59741 5.84132" sodipodi:nodetypes="ccccccc"/><path id="shape4" transform="translate(46.2301184450424, 108.698218436404)" fill="#585982" fill-opacity="0.498039215686275" fill-rule="evenodd" stroke="none" stroke-width="0.7752" stroke-linecap="square" stroke-linejoin="bevel" d="M5.51812 0.36531C-8.72161 0.36531 9.15184 28.2593 8.67106 33.2594C8.39031 36.1792 5.37616 41.4423 8.34165 41.3653C31.8879 40.7537 10.2987 15.6972 12.6005 7.87119C13.6471 4.31263 8.23078 -2.82246 5.824 1.18884" sodipodi:nodetypes="ccccc"/><path id="shape5" transform="translate(12.367265563382, 84.5403910494314)" fill="#585982" fill-opacity="0.498039215686275" fill-rule="evenodd" stroke="none" stroke-width="0.7752" stroke-linecap="square" stroke-linejoin="bevel" d="M2.9692 2.38196C-1.92829 2.38196 -1.56846 20.7511 10.181 17.5467C15.1577 16.1894 17.5739 8.38028 14.6516 4.20549C11.7167 0.0128284 4.45803 10.6591 5.4045 6.45255C5.64463 5.38529 7.53728 -3.4613 3.73391 1.49961" sodipodi:nodetypes="ccccc"/><path id="shape6" transform="translate(47.6023032274396, 6.19203035252796)" fill="#585982" fill-opacity="0.498039215686275" fill-rule="evenodd" stroke="none" stroke-width="0.7752" stroke-linecap="square" stroke-linejoin="bevel" d="M4.71064 11.8597C2.3165 11.8597 -0.229503 20.8755 0.01652 22.9421C0.202093 24.5009 1.14144 24.8082 2.18123 25.848C2.97981 26.6466 4.58759 26.2321 5.40476 25.7068C17.0337 18.231 20.1627 27.0676 35.4636 14.2009C37.818 12.221 40.3814 6.02976 39.64 3.21268C36.8627 -7.3413 17.0805 11.4373 13.5577 12.0244C11.395 12.3849 3.92264 8.21148 3.02828 12.6833" sodipodi:nodetypes="cccccccc"/><path id="shape7" transform="translate(78.6365641674974, 50.6272922528534)" fill="#585982" fill-opacity="0.498039215686275" fill-rule="evenodd" stroke="none" stroke-width="0.7752" stroke-linecap="square" stroke-linejoin="bevel" d="M3.02932 12.7774C3.02932 10.5623 -0.153541 16.4857 0.00578829 18.6951C0.575669 26.5974 7.20666 23.7257 12.2293 22.8598C46.1186 17.0168 -2.70318 64.3261 24.8058 51.2009C30.4856 48.4909 47.6095 19.5199 41.347 13.4362C37.8267 10.0165 32.5598 24.6013 27.7705 20.5304C25.6825 18.7556 35.874 -7.05541 22.1117 1.87153C19.995 3.2445 6.40579 19.7276 6.40579 11.9892C6.40579 9.04171 4.28848 11.0927 3.99402 13.0951" sodipodi:nodetypes="ccccccccc"/>
</svg>
