<?xml version="1.0" standalone="no"?>
<!DOCTYPE svg PUBLIC "-//W3C//DTD SVG 20010904//EN" "http://www.w3.org/TR/2001/REC-SVG-20010904/DTD/svg10.dtd">
<!-- Created using Krita: https://krita.org -->
<svg xmlns="http://www.w3.org/2000/svg" 
    xmlns:xlink="http://www.w3.org/1999/xlink"
    xmlns:krita="http://krita.org/namespaces/svg/krita"
    xmlns:sodipodi="http://sodipodi.sourceforge.net/DTD/sodipodi-0.dtd"
    width="189.12pt"
    height="189.6pt"
    viewBox="0 0 189.12 189.6">
<defs/>
<path id="shape0" transform="translate(2.64100997556046, -0.77059849984129)" fill="#dce1ed" fill-rule="evenodd" stroke="none" stroke-width="0.7752" stroke-linecap="square" stroke-linejoin="bevel" d="M96.2837 1.29295C43.8166 1.29295 11.2408 28.9028 0.130755 77.7871C-1.13883 83.3732 7.25233 91.0561 7.36605 97.14C7.63515 111.537 -1.77076 113.39 6.33075 129.752C10.864 138.907 21.8287 142.677 27.9308 150.305C34.4435 158.446 32.9923 168.512 44.3425 171.893C68.2962 179.028 193.579 153.069 186.566 120.893C179.067 86.4834 139.329 116.85 135.59 104.599C130.855 89.0892 173.123 87.3213 169.284 64.7871C166.451 48.1584 112.437 -10.9671 96.8484 1.78707" sodipodi:nodetypes="cccccccccc"/><path id="shape1" transform="translate(7.06699984897453, 64.2820559868149)" fill="#645688" fill-opacity="0.388235294117647" fill-rule="evenodd" stroke="none" stroke-width="0.7752" stroke-linecap="square" stroke-linejoin="bevel" d="M0.869471 16.6285C-0.210568 15.2785 0.212592 13.2153 0.398882 11.6403C0.902822 7.37971 2.20038 4.29791 5.55182 1.58147C15.4678 -6.45569 18.5356 18.6448 22.4577 20.8521C33.5532 27.0965 52.3926 17.049 55.9048 34.1462C56.0687 34.9444 56.3209 35.774 56.3989 36.5815C57.2331 45.2182 45.0684 50.6253 42.4342 58.1226C39.5465 66.3413 51.4648 68.5106 41.6342 75.1932C32.222 81.5914 3.3677 59.7079 2.64594 51.2874C2.21571 46.268 10.1553 43.4711 11.7754 39.0874C12.5187 37.0758 3.3046 20.2294 0.622412 18.9226C0.469736 18.8483 -0.354096 18.4114 0.175353 18.6521" sodipodi:nodetypes="cccccccccccc"/><path id="shape2" transform="translate(109.461800473606, 30.0988233459862)" fill="#645688" fill-opacity="0.388235294117647" fill-rule="evenodd" stroke="none" stroke-width="0.7752" stroke-linecap="square" stroke-linejoin="bevel" d="M21.0629 0C4.40725 0 17.0375 26.0785 15.0041 32.5765C12.9657 39.0903 -12.1127 68.7446 7.36879 72.7294C12.9915 73.8795 52.6325 46.5025 51.1923 37.1412C49.612 26.8688 43.1116 16.8671 34.4511 11.4706C30.882 9.24663 21.1863 1.90711 25.2982 2.78824" sodipodi:nodetypes="cccccc"/><path id="shape3" transform="translate(75.0459040090473, 100.703220597506)" fill="#645688" fill-opacity="0.388235294117647" fill-rule="evenodd" stroke="none" stroke-width="0.7752" stroke-linecap="square" stroke-linejoin="bevel" d="M14.8788 20.725C4.23999 20.725 9.91011 62.8279 32.3847 47.8897C34.4754 46.5001 35.1466 45.0608 35.5023 42.6074C35.7443 40.9388 34.7244 36.9168 32.6788 36.5721C15.7473 33.7185 37.9004 22.6096 37.3612 18.6191C36.3675 11.2662 16.5765 -2.96504 9.54939 0.548543C1.16176 4.74236 -7.00487 29.4756 9.77292 20.5015C13.6458 18.4299 18.7981 15.3748 15.6906 21.3956" sodipodi:nodetypes="cccccccc"/><path id="shape4" transform="translate(137.945589759666, 107.792292793818)" fill="#645688" fill-opacity="0.388235294117647" fill-rule="evenodd" stroke="none" stroke-width="0.7752" stroke-linecap="square" stroke-linejoin="bevel" d="M8.97912 2.91829C2.0423 1.18409 -4.01649 16.1455 3.37912 18.8595C11.9641 22.0099 17.5875 6.23541 26.5674 8.11829C32.8338 9.43222 33.3157 37.1726 42.685 16.9183C51.2729 -1.64666 18.1568 -2.24093 9.0497 2.49477" sodipodi:nodetypes="ccccc"/><path id="shape5" transform="translate(34.6507852245156, 94.3236697627404)" fill="#645688" fill-opacity="0.388235294117647" fill-rule="evenodd" stroke="none" stroke-width="0.7752" stroke-linecap="square" stroke-linejoin="bevel" d="M5.54451 1.77515C-0.978592 1.77515 -3.50166 20.218 7.89745 16.7163C16.9582 13.933 17.4648 7.55895 11.4269 1.10456C9.57557 -0.874402 0.760086 0.223642 3.29745 1.17515" sodipodi:nodetypes="cccc"/><path id="shape6" transform="translate(70.4135162488179, 13.4868049865314)" fill="#645688" fill-opacity="0.388235294117647" fill-rule="evenodd" stroke="none" stroke-width="0.7752" stroke-linecap="square" stroke-linejoin="bevel" d="M19.4053 1.81202C16.1375 0.178133 11.0827 2.93684 8.13472 4.12967C-20.2882 15.6303 34.2729 27.6414 42.2171 32.6944C49.027 37.0259 50.3055 65.3134 63.8524 55.5179C88.3361 37.8143 52.6929 -0.0344891 30.8053 0.623783C27.7202 0.716567 21.9461 -1.39674 21.6053 1.67084" sodipodi:nodetypes="cccccc"/>
</svg>
