<?xml version="1.0" standalone="no"?>
<!DOCTYPE svg PUBLIC "-//W3C//DTD SVG 20010904//EN" "http://www.w3.org/TR/2001/REC-SVG-20010904/DTD/svg10.dtd">
<!-- Created using Krita: https://krita.org -->
<svg xmlns="http://www.w3.org/2000/svg" 
    xmlns:xlink="http://www.w3.org/1999/xlink"
    xmlns:krita="http://krita.org/namespaces/svg/krita"
    xmlns:sodipodi="http://sodipodi.sourceforge.net/DTD/sodipodi-0.dtd"
    width="152.16pt"
    height="248.4pt"
    viewBox="0 0 152.16 248.4">
<defs>
  <linearGradient id="gradient0" gradientUnits="objectBoundingBox" x1="0" y1="0" x2="1" y2="1" spreadMethod="pad">
   <stop stop-color="#191a28" offset="0" stop-opacity="1"/>
   <stop stop-color="#6b6a7b" offset="0.402777791023254" stop-opacity="1"/>
   <stop stop-color="#19173b" offset="0.826388895511627" stop-opacity="1"/>
  </linearGradient>
  <radialGradient id="gradient1" gradientUnits="objectBoundingBox" cx="0.133689830144284" cy="-0.553816614587177" fx="0" fy="0" r="1.4142135623731" spreadMethod="pad">
   <stop stop-color="#ffffff" offset="0" stop-opacity="1"/>
   <stop stop-color="#6b6a7b" offset="0.5" stop-opacity="1"/>
   <stop stop-color="#19173b" offset="0.972199976444244" stop-opacity="1"/>
  </radialGradient>
  <linearGradient id="gradient2" gradientUnits="objectBoundingBox" x1="-0.582893347412883" y1="-1.25603864734299" x2="1.27060215793804" y2="1.57487922705313" spreadMethod="pad">
   <stop stop-color="#802655" offset="0.020833333954215" stop-opacity="1"/>
   <stop stop-color="#531b39" offset="0.590277791023254" stop-opacity="1"/>
   <stop stop-color="#19173b" offset="0.972199976444244" stop-opacity="1"/>
  </linearGradient>
  <linearGradient id="gradient3" gradientUnits="objectBoundingBox" x1="0" y1="0" x2="1" y2="1" spreadMethod="pad">
   <stop stop-color="#802655" offset="0.0555555559694767" stop-opacity="1"/>
   <stop stop-color="#7e1c32" offset="0.805555582046509" stop-opacity="1"/>
  </linearGradient>
  <linearGradient id="gradient4" gradientUnits="objectBoundingBox" x1="-1.44284317301529" y1="0.0817103237220405" x2="2.43293807114107" y2="0.961222219250557" spreadMethod="pad">
   <stop stop-color="#bc86a2" offset="0.444444447755814" stop-opacity="1"/>
   <stop stop-color="#8d4deb" offset="1" stop-opacity="1"/>
  </linearGradient>
  <linearGradient id="gradient5" gradientUnits="objectBoundingBox" x1="-1.62948000196381" y1="0.515549335605941" x2="1.44351492317424" y2="0.66505243069866" spreadMethod="pad">
   <stop stop-color="#dceaed" offset="0.326388895511627" stop-opacity="0"/>
   <stop stop-color="#ffffff" offset="0.666666686534882" stop-opacity="0.901960784313726"/>
   <stop stop-color="#645688" offset="0.881944417953491" stop-opacity="1"/>
  </linearGradient>
  <linearGradient id="gradient6" gradientUnits="objectBoundingBox" x1="-0.961870620893588" y1="-0.0574807547044477" x2="1.25423913142855" y2="0.973604458188565" spreadMethod="pad">
   <stop stop-color="#dceaed" offset="0.402799993753433" stop-opacity="0"/>
   <stop stop-color="#645688" offset="0.881944417953491" stop-opacity="1"/>
   <stop stop-color="#ffffff" offset="1" stop-opacity="0.901960784313726"/>
  </linearGradient>
  <linearGradient id="gradient7" gradientUnits="objectBoundingBox" x1="0" y1="0" x2="1" y2="1" spreadMethod="pad">
   <stop stop-color="#645688" offset="0" stop-opacity="1"/>
   <stop stop-color="#dce1ed" offset="0.173600003123283" stop-opacity="1"/>
   <stop stop-color="#645688" offset="1" stop-opacity="1"/>
  </linearGradient>
  <linearGradient id="gradient8" gradientUnits="objectBoundingBox" x1="0" y1="0" x2="1" y2="1" spreadMethod="pad">
   <stop stop-color="#6ec8fa" offset="0" stop-opacity="0"/>
   <stop stop-color="#585982" offset="0.8125" stop-opacity="1"/>
   <stop stop-color="#585982" offset="1" stop-opacity="1"/>
  </linearGradient>
  <linearGradient id="gradient9" gradientUnits="objectBoundingBox" x1="0" y1="0" x2="1" y2="1" spreadMethod="pad">
   <stop stop-color="#dce1ed" offset="0.0694444477558136" stop-opacity="1"/>
   <stop stop-color="#645688" offset="0.902777791023254" stop-opacity="1"/>
   <stop stop-color="#645688" offset="1" stop-opacity="1"/>
  </linearGradient>
  <linearGradient id="gradient10" gradientUnits="objectBoundingBox" x1="0" y1="0" x2="1" y2="1" spreadMethod="pad">
   <stop stop-color="#dceaed" offset="0.5" stop-opacity="0"/>
   <stop stop-color="#645688" offset="0.826399981975555" stop-opacity="1"/>
   <stop stop-color="#ffffff" offset="0.923611104488373" stop-opacity="0.901960784313726"/>
  </linearGradient>
 </defs>
<path id="shape0" transform="matrix(0.771763525226464 0.635909506148817 -0.635909506148817 0.771763525226464 81.467434626189 60.3046440920295)" fill="#645688" fill-rule="evenodd" stroke-opacity="0" stroke="#000000" stroke-width="0" stroke-linecap="square" stroke-linejoin="bevel" d="M13.2522 0.292985C10.0888 2.09691 7.93713 4.03416 6.79726 6.10475L4.83648 22.5361L4.32667 28.7636C3.49007 30.6773 2.29791 32.659 0.750201 34.7087C-0.797511 36.7583 0.0495473 37.9662 3.29138 38.3322L5.55804 41.9008C4.41295 42.3453 5.06131 42.9544 7.50314 43.7283C9.94497 44.5021 11.5371 45.1374 12.2796 45.6342L17.9188 46.2616L21.7384 45.2342C23.6835 43.127 25.6835 40.9335 27.7384 38.6538C29.7933 36.374 29.8796 33.6681 27.9973 30.5361L27.9659 15.0459L26.9149 2.94397L21.5502 0.00278868C21.4979 -0.0181264 18.7319 0.0786057 13.2522 0.292985Z" sodipodi:nodetypes="cccczcczccczccccc"/><path id="shape01" transform="matrix(0.839895832588566 -0.54274753767545 0.54274753767545 0.839895832588566 64.2828864187052 85.4105850527861)" fill="#802655" fill-rule="evenodd" stroke="#802655" stroke-width="0.5376" stroke-linecap="square" stroke-linejoin="bevel" d="M2.19216 0.936223L0.152941 0.995046L0 9.00289L2.46275 20.1794L4.32941 21.995L6.0902 22.0343L4.34118 14.5009L3.26667 5.46171L3.52941 0.00288958C3.57647 -0.0337117 3.13072 0.277399 2.19216 0.936223Z" sodipodi:nodetypes="cccccccccc"/><path id="shape01" transform="matrix(1.03366715347318 -0.297040863729165 0.297040863729165 1.03366715347318 32.2475992717118 89.9244606675077)" fill="url(#gradient0)" fill-rule="evenodd" stroke-opacity="0" stroke="#000000" stroke-width="0" stroke-linecap="square" stroke-linejoin="bevel" d="M19 11.5294L6.87059 0.294118L0 0L0.294118 26.0588L8.09412 25.7176L18.3176 17.9765Z" sodipodi:nodetypes="ccccccc"/><ellipse id="shape1" transform="matrix(1.03366715347318 -0.297040863729165 0.297040863729165 1.03366715347318 53.7622364903684 95.6430603713742)" rx="3.96000000000001" ry="4.14237750340141" cx="3.96000000000001" cy="4.14237750340141" fill="url(#gradient1)" fill-rule="evenodd" stroke-opacity="0" stroke="#000000" stroke-width="0" stroke-linecap="square" stroke-linejoin="bevel"/><path id="shape2" transform="matrix(1.03366715347318 -0.297040863729165 0.297040863729165 1.03366715347318 58.4894291718268 87.359826081734)" fill="url(#gradient2)" fill-rule="evenodd" stroke-opacity="0" stroke="#000000" stroke-width="0" stroke-linecap="square" stroke-linejoin="bevel" d="M0 6.91765L16.1529 0L22.2824 0.0705882L1.51765 9.74118Z" sodipodi:nodetypes="ccccc"/><path id="shape011" transform="matrix(0.821489422376215 0.694158668570384 -0.694158668570384 0.821489422376215 67.8896830223399 92.538596920149)" fill="#191a28" stroke-opacity="0" stroke="#000000" stroke-width="0" stroke-linecap="square" stroke-linejoin="bevel" d="M0 6.91765L16.1529 0L22.2824 0.0705882L1.51765 9.74118Z" sodipodi:nodetypes="ccccc"/><path id="shape3" transform="matrix(1.03366715347318 -0.297040863729165 0.297040863729165 1.03366715347318 57.5402681318233 103.12780906794)" fill="#645688" fill-rule="evenodd" stroke-opacity="0" stroke="#000000" stroke-width="0" stroke-linecap="square" stroke-linejoin="bevel" d="M0.2 0.305882L0 4.62353L4.30588 4.72941L4.17647 0Z" sodipodi:nodetypes="ccccc"/><path id="shape4" transform="matrix(1.03366715347318 -0.297040863729165 0.297040863729165 1.03366715347318 49.4012361340897 108.889595384205)" fill="url(#gradient3)" fill-rule="evenodd" stroke-opacity="0" stroke="#000000" stroke-width="0" stroke-linecap="square" stroke-linejoin="bevel" d="M8.12941 0.541176L0 6.23529L0.235294 64.9412C7.50292 67.9216 13.6625 67.8667 21.4706 64.9882L21.0118 6.74118L12.8471 0Z" sodipodi:nodetypes="ccccccc"/><path id="shape5" transform="matrix(1.03366715347318 -0.297040863729165 0.297040863729165 1.03366715347318 53.2187831672216 111.234218526459)" fill="url(#gradient4)" fill-rule="evenodd" stroke-opacity="0" stroke="#000000" stroke-width="0" stroke-linecap="square" stroke-linejoin="bevel" d="M7.01414 0.877361C3.56323 0.877361 1.3811 7.63532 0.978846 10.3362C0.249238 15.235 -1.54404 58.7689 2.90826 59.4538C5.46138 59.8466 4.19532 48.7483 4.16708 47.2656C3.9376 35.2178 4.9163 24.1981 5.75532 12.2421C5.83807 11.0628 8.6798 -3.77514 5.93179 0.912655" sodipodi:nodetypes="cccccc"/><path id="shape02" transform="matrix(0.680669995763779 -0.732590109184504 0.732590109184504 0.680669995763779 70.2057589124534 130.168630978512)" fill="#645688" fill-rule="evenodd" stroke-opacity="0" stroke="#000000" stroke-width="0" stroke-linecap="square" stroke-linejoin="bevel" d="M3.15348 47.3307C1.6662 47.3307 3.01984 26.2866 4.14172 24.6719C11.9262 13.468 27.48 -14.0651 45.4123 8.8484C49.5127 24.095 42.0182 38.0578 23.8829 49.8248C22.4015 49.6477 -0.127015 44.453 0.000539582 45.3778" sodipodi:nodetypes="ccccc"/><path id="shape012" transform="matrix(0.999999954463879 0 0 0.999999954463879 72.2201526077957 142.112777374421)" fill="#dce1ed" fill-rule="evenodd" stroke-opacity="0" stroke="#000000" stroke-width="0" stroke-linecap="square" stroke-linejoin="bevel" d="M25.3139 49.6927C25.015 48.796 21.1858 49.2669 20.0786 49.0338C7.30434 46.3445 -9.13628 5.46517 6.17274 2.03383C13.011 0.610279 24.0262 -3.33033 26.7139 6.12795C30.5673 19.6884 40.8335 32.0344 42.8316 38.3279C39.7139 44.7083 41.2765 48.509 36.6786 49.4456C35.4788 49.69 22.1866 50.0274 22.3845 50.1044" sodipodi:nodetypes="cccsccc"/><path id="shape011" transform="matrix(0.99999997739271 0 0 0.99999997739271 81.4076966154641 93.997609248395)" fill="#dce1ed" fill-rule="evenodd" stroke-opacity="0" stroke="#000000" stroke-width="0" stroke-linecap="square" stroke-linejoin="bevel" d="M8.16167 0C-2.8219 0 -7.48226 31.9548 25.6558 30.6941C33.4976 30.3958 39.0641 29.0668 45.3852 20.1529C39.4271 2.91341 42.3592 0.252297 33.044 1.82353C28.673 2.56081 7.72044 0.183226 8.16167 0" sodipodi:nodetypes="ccccc"/><path id="shape0111" transform="matrix(0.999999985667195 0 0 0.999999985667195 100.268031625635 131.338920234748)" fill="#645688" fill-rule="evenodd" stroke-opacity="0" stroke="#000000" stroke-width="0" stroke-linecap="square" stroke-linejoin="bevel" d="M25.3139 49.6927C25.015 48.796 21.1858 49.2669 20.0786 49.0338C7.30434 46.3445 -9.13628 5.46517 6.17274 2.03383C13.011 0.610279 24.0262 -3.33033 26.7139 6.12795C30.5673 19.6884 40.8335 32.0344 42.8316 38.3279C39.7139 44.7083 41.2765 48.509 36.6786 49.4456C35.4788 49.69 22.1866 50.0274 22.3845 50.1044" sodipodi:nodetypes="cccsccc"/><path id="shape02" transform="matrix(0.897626059043967 -0.44075775740102 0.44075775740102 0.897626059043967 106.189828846257 190.216121615382)" fill="#19173b" fill-rule="evenodd" stroke-opacity="0" stroke="#000000" stroke-width="0" stroke-linecap="square" stroke-linejoin="bevel" d="M38.5529 0.251211L38.6118 25.5806L15.8 26.663L2.41176 26.1453L0 22.0042L2.08235 13.7571L9.74118 8.3218L17.1294 6.59239L16.7294 1.09827C16.1255 0.015917 23.4 -0.266436 38.5529 0.251211Z" sodipodi:nodetypes="cccccccccc"/><path id="shape03" transform="matrix(0.999999956618544 0 0 0.999999956618544 73.0399556240532 190.35813127944)" fill="#19173b" fill-rule="evenodd" stroke-opacity="0" stroke="#000000" stroke-width="0" stroke-linecap="square" stroke-linejoin="bevel" d="M38.5529 0.251211L38.6118 25.5806L15.8 26.663L2.41176 26.1453L0 22.0042L2.08235 13.7571L9.74118 8.3218L17.1294 6.59239L16.7294 1.09827C16.1255 0.015917 23.4 -0.266436 38.5529 0.251211Z" sodipodi:nodetypes="cccccccccc"/><path id="shape012" transform="matrix(0.999999968405511 0 0 0.999999968405511 107.668167558095 128.254311280294)" fill="url(#gradient5)" fill-rule="evenodd" stroke-opacity="0" stroke="#000000" stroke-width="0" stroke-linecap="square" stroke-linejoin="bevel" d="M5.00477 18.2234C4.9095 18.1281 5.59691 19.2866 5.64006 19.3763C6.94009 22.079 23.0652 47.2924 22.8636 47.494C20.2185 50.1391 13.0012 40.321 11.8989 39.0587C-7.61929 16.7072 2.44356 -18.6599 3.75771 11.894C3.97563 16.9606 5.45923 19.8658 7.78124 23.9293" sodipodi:nodetypes="cccccc"/><path id="shape04" transform="matrix(0.999999942365024 0 0 0.999999942365024 70.5806075451488 107.337394252721)" fill="#dce1ed" fill-rule="evenodd" stroke-opacity="0" stroke="#000000" stroke-width="0" stroke-linecap="square" stroke-linejoin="bevel" d="M3.15348 47.3307C1.6662 47.3307 3.01984 26.2866 4.14172 24.6719C11.9262 13.468 27.48 -14.0651 45.4123 8.8484C49.5127 24.095 42.0182 38.0578 23.8829 49.8248C22.4015 49.6477 -0.127015 44.453 0.000539582 45.3778" sodipodi:nodetypes="ccccc"/><path id="shape05" transform="matrix(0.999999939113184 0 0 0.999999939113184 88.3171729442438 99.9011815799764)" fill="url(#gradient6)" fill-rule="evenodd" stroke-opacity="0" stroke="#000000" stroke-width="0" stroke-linecap="square" stroke-linejoin="bevel" d="M30.9675 0.270574C32.902 -0.374267 34.5569 14.0812 32.0381 16.6C22.0987 26.5393 23.85 36.9103 10.0498 46.2588C9.64447 46.5334 9.00983 46.8402 8.93222 47.3059C5.95203 65.187 34.7515 84.1373 16.4969 87.7882C14.2388 88.2398 9.81432 79.0907 8.79105 77.3059C-12.4319 40.2892 10.2483 48.7026 19.6381 32.2706C22.9562 26.4639 23.3984 18.6329 28.791 11.3529C31.161 8.15345 30.5115 -0.722285 31.991 0.047045" sodipodi:nodetypes="ccccccccc"/><ellipse id="shape013" transform="matrix(0.999999958981751 0 0 0.999999958981751 99.3599833236205 198.72000110257)" rx="4.20000000000002" ry="4.19999999999999" cx="4.20000000000002" cy="4.19999999999999" fill="#802655" fill-rule="evenodd" stroke="#f47b62" stroke-width="0.96" stroke-linecap="square" stroke-linejoin="bevel"/><ellipse id="shape11" transform="matrix(0.999999958981751 0 0 0.999999958981751 136.559981797742 185.280001653856)" rx="3.59999999999999" ry="3.71999999999997" cx="3.59999999999999" cy="3.71999999999997" fill="#802655" fill-rule="evenodd" stroke="#f47b62" stroke-width="0.96" stroke-linecap="square" stroke-linejoin="bevel"/><ellipse id="shape03" transform="matrix(0.999999958981751 0 0 0.999999958981751 81.6164212149125 5.04000904698455)" rx="16.9117814182588" ry="16.5787955821701" cx="16.9117814182588" cy="16.5787955821701" fill="#191a28" fill-rule="evenodd" stroke-opacity="0" stroke="#000000" stroke-width="0" stroke-linecap="square" stroke-linejoin="bevel"/><path id="shape12" transform="matrix(0.999999958981751 0 0 0.999999958981751 81.2046565613184 0.444662754878777)" fill="url(#gradient7)" fill-rule="evenodd" stroke-opacity="0" stroke="#000000" stroke-width="0" stroke-linecap="square" stroke-linejoin="bevel" d="M2.89424 14.4592C2.04677 11.8223 8.08656 12.5543 10.6805 11.8559C21.3822 8.97436 39.4074 30.2711 38.2782 13.8748C37.1861 -1.98356 14.2424 -2.92309 5.64761 4.41791C3.27182 6.44713 1.58348 11.5647 0 8.82757" sodipodi:nodetypes="cccsc"/><path id="shape21" transform="matrix(0.999999958981751 0 0 0.999999958981751 83.3458327600127 19.0465843715829)" fill="#dce1ed" fill-rule="evenodd" stroke-opacity="0" stroke="#000000" stroke-width="0" stroke-linecap="square" stroke-linejoin="bevel" d="M30.5412 1.36278L1.78824 27.5157L0 52.6804L3.22353 63.9392L6.15294 65.3981L39.0706 66.5275L48.3059 56.2216L52.7647 31.9745L37.6353 1.51572C37.4314 -0.452905 35.0667 -0.503885 30.5412 1.36278Z" sodipodi:nodetypes="cccccccccc"/><ellipse id="shape31" transform="matrix(0.999999958981751 0 0 0.999999958981751 106.079983047978 17.5200085350775)" rx="2.40000000000001" ry="2.88" cx="2.40000000000001" cy="2.88" fill="#7fccdd" fill-rule="evenodd" stroke-opacity="0" stroke="#000000" stroke-width="0" stroke-linecap="square" stroke-linejoin="bevel"/><path id="shape41" transform="matrix(0.999999958981751 0 0 0.999999958981751 85.1458287618237 14.323205368337)" fill="#645688" fill-opacity="0.654901960784314" fill-rule="evenodd" stroke-opacity="0" stroke="#000000" stroke-width="0" stroke-linecap="square" stroke-linejoin="bevel" d="M4.16198 4.23911C5.43954 3.50019 13.1149 2.31667 12.9762 1.92146C11.9094 -1.11952 3.53119 -0.0766638 1.95164 1.79205C-3.85378 8.66023 5.48975 8.75675 1.95164 8.75675" sodipodi:nodetypes="cccc"/><path id="shape51" transform="matrix(0.999999958981751 0 0 0.999999958981751 90.0987722726423 1.80937370915672)" fill="url(#gradient8)" fill-rule="evenodd" stroke-opacity="0" stroke="#000000" stroke-width="0" stroke-linecap="square" stroke-linejoin="bevel" d="M0.706259 10.6297C-3.39352 13.1312 11.4843 8.53722 16.3446 7.79586C16.3625 7.79313 13.702 -8.58492 27.3952 6.14493C34.6814 13.9828 21.8941 21.6111 20.4069 21.8353C15.6223 17.676 32.9519 20.5597 11.5722 12.9826C10.4261 12.4832 1.80446 9.02952 1.35963 10.7597" sodipodi:nodetypes="cssccc"/><path id="shape014" transform="matrix(0.999999914370318 0 0 0.999999914370318 106.674010024612 9.19920540472287)" fill="#6ec8fa" fill-rule="evenodd" stroke-opacity="0" stroke="#000000" stroke-width="0" stroke-linecap="square" stroke-linejoin="bevel" d="M0.883581 9.63366C-4.77183 9.7656 18.4209 -11.529 22.2953 8.7866C25.875 27.5562 18.8529 27.6913 16.9189 16.916C16.7578 16.0189 17.2141 8.13852 16.4953 7.53954C15.0543 6.33867 11.9823 6.84991 10.0718 6.76307C6.82651 6.61556 4.59547 14.1843 2.68358 13.069C1.42147 12.3328 0.438584 7.70049 1.21299 8.93954" sodipodi:nodetypes="csscscc"/><ellipse id="shape6" transform="matrix(0.999999958981751 0 0 0.999999958981751 85.628219180992 16.205498785074)" rx="1.1882352941177" ry="1.23529411764702" cx="1.1882352941177" cy="1.23529411764702" fill="#dbeaf2" fill-opacity="0.8" fill-rule="evenodd" stroke-opacity="0" stroke="#000000" stroke-width="0" stroke-linecap="square" stroke-linejoin="bevel"/><ellipse id="shape7" transform="matrix(0.999999958981751 0 0 0.999999958981751 102.702728284546 42.156870269614)" rx="10.92" ry="10.8" cx="10.92" cy="10.8" fill="#585982" fill-rule="evenodd" stroke-opacity="0" stroke="#000000" stroke-width="0" stroke-linecap="square" stroke-linejoin="bevel"/><path id="shape8" transform="matrix(0.999999958981751 0 0 0.999999958981751 89.34583199811 83.3457412827919)" fill="#191a28" fill-rule="evenodd" stroke-opacity="0" stroke="#000000" stroke-width="0" stroke-linecap="square" stroke-linejoin="bevel" d="M0.388235 0.251852C0.32549 7.95381 0.196078 11.5146 0 10.9342L10.8118 13.3813L25.7882 12.3224L27.7647 11.5224L29.3412 2.19303L21.0706 0.0518518L7.04706 0.087146C6.55294 -0.0697168 4.33333 -0.0148148 0.388235 0.251852Z" sodipodi:nodetypes="ccccccccc"/><path id="shape9" transform="matrix(0.999999958981751 0 0 0.999999958981751 89.8046554692589 94.1152388094574)" fill="none" stroke="#645688" stroke-width="0.5376" stroke-linecap="square" stroke-linejoin="bevel" d="M0.0588235 0C0.0135313 0.0452922 0.0327584 0.0214506 0 0.0705882" sodipodi:nodetypes="cc"/><path id="shape10" transform="matrix(0.999999958981751 0 0 0.999999958981751 61.9948036603407 247.738476538186)" fill="none" stroke="#dbeaf2" stroke-width="0.5376" stroke-linecap="square" stroke-linejoin="bevel" d="M0.303973 0.188507C-0.00352887 0.127007 -0.0185668 -0.00683334 0.00985534 0.000272176" sodipodi:nodetypes="cc"/><path id="shape11" transform="matrix(0.999999958981751 0 0 0.999999958981751 110.235264554642 26.5952832488506)" fill="url(#gradient9)" fill-rule="evenodd" stroke-opacity="0" stroke="#000000" stroke-width="0" stroke-linecap="square" stroke-linejoin="bevel" d="M24.1647 32.7176L22.5412 21.1294L16.3294 5.65882L11.3765 0L11.8353 6.98824L14.4353 17.4588L8.11765 17.0118L12.1176 19.9412L14.4471 26.0235L13.5765 30.1294L7.6 39.1765L0.717647 45.1765L0 54.5176L1.07059 58.1529L10.7059 59.6706L13.6706 59.2L22.8 43.0353C22.7765 43.0039 23.2314 39.5647 24.1647 32.7176Z" sodipodi:nodetypes="cccccccccccccccccc"/><path id="shape015" transform="matrix(0.999999937584163 0 0 0.999999937584163 100.548210824811 47.4439147534075)" fill="#dce1ed" fill-rule="evenodd" stroke-opacity="0" stroke="#000000" stroke-width="0" stroke-linecap="square" stroke-linejoin="bevel" d="M14.0941 0L5.75686 1.79608L0.627451 13.851L0 37.3098L2.63529 40.4471L0.52549 42.8235L3.78824 46.8235L12.3843 49.0118L22.8314 46.502L25.6314 38.8471L27.1922 17.8275L22.0627 2.10196C21.9111 1.91895 19.2549 1.2183 14.0941 0Z" sodipodi:nodetypes="ccccccccccccc"/><path id="shape021" transform="matrix(0.568763710168028 0.822500901024863 -0.822500901024863 0.568763710168028 104.338653695406 76.9093009721634)" fill="#dce1ed" fill-rule="evenodd" stroke-opacity="0" stroke="#000000" stroke-width="0" stroke-linecap="square" stroke-linejoin="bevel" d="M13.2522 0.292985C10.0888 2.09691 7.93713 4.03416 6.79726 6.10475L4.83648 22.5361L4.32667 28.7636C3.49007 30.6773 2.29791 32.659 0.750201 34.7087C-0.797511 36.7583 0.0495473 37.9662 3.29138 38.3322L5.55804 41.9008C4.41295 42.3453 5.06131 42.9544 7.50314 43.7283C9.94497 44.5021 11.5371 45.1374 12.2796 45.6342L17.9188 46.2616L21.7384 45.2342C23.6835 43.127 25.6835 40.9335 27.7384 38.6538C29.7933 36.374 29.8796 33.6681 27.9973 30.5361L27.9659 15.0459L26.9149 2.94397L21.5502 0.00278868C21.4979 -0.0181264 18.7319 0.0786057 13.2522 0.292985Z" sodipodi:nodetypes="cccczcczccczccccc"/><path id="shape12" transform="matrix(0.999999958981751 0 0 0.999999958981751 114.823499523818 52.0423402702048)" fill="#80cadc" fill-rule="evenodd" stroke="#802655" stroke-width="0.5376" stroke-linecap="square" stroke-linejoin="bevel" d="M7.6 4.8C4.43137 1.77255 2.64314 0.172549 2.23529 0L0 4.76471L4.51765 10.0235C4.70588 9.80392 5.73333 8.06274 7.6 4.8Z" sodipodi:nodetypes="ccccc"/><path id="shape13" transform="matrix(0.999999958981751 0 0 0.999999958981751 82.505854753749 48.5835169891012)" fill="url(#gradient10)" fill-rule="evenodd" stroke-opacity="0" stroke="#000000" stroke-width="0" stroke-linecap="square" stroke-linejoin="bevel" d="M40.7647 4.8C39.3608 1.84314 38.0667 0.243137 36.8824 0L40.3059 12.9412L35 27.1647L31.1529 37.3529L36.4706 42.7647L34.6235 46.7882L31.4706 42.1647L24.5176 49.0941L11.1412 63.2L0 60.9647L5.72941 71.5059L21.1176 62.4588L32.7765 50.4118L37.7412 46.6588L41.9294 37.6L44.2471 17.2824C44.5451 16.8118 43.3843 12.651 40.7647 4.8Z" sodipodi:nodetypes="cccccccccccccccccc"/><path id="shape031" transform="matrix(0.999999966836281 0 0 0.999999966836281 101.035268412687 63.1247033387042)" fill="#802655" fill-rule="evenodd" stroke-opacity="0" stroke="#000000" stroke-width="0" stroke-linecap="square" stroke-linejoin="bevel" d="M26.5059 0L16.3765 5.55294L3.37647 4.23529L0.835294 1.4L0 5.65882L4.8 8.88235L18.4 9.76471L26.4235 5.43529C26.4314 5.40392 26.4588 3.59216 26.5059 0Z" sodipodi:nodetypes="ccccccccc"/><path id="shape041" transform="matrix(0.999999938708318 0 0 0.999999938708318 100.932914593911 74.5011592256791)" fill="#802655" fill-rule="evenodd" stroke-opacity="0" stroke="#000000" stroke-width="0" stroke-linecap="square" stroke-linejoin="bevel" d="M26.5059 0L16.3765 5.55294L3.37647 4.23529L0.835294 1.4L0 5.65882L4.8 8.88235L18.4 9.76471L26.4235 5.43529C26.4314 5.40392 26.4588 3.59216 26.5059 0Z" sodipodi:nodetypes="ccccccccc"/><path id="shape14" transform="matrix(0.999999958981751 0 0 0.999999958981751 89.3882071988909 91.5246904185713)" fill="#80cadc" fill-rule="evenodd" stroke="#802655" stroke-width="0.5376" stroke-linecap="square" stroke-linejoin="bevel" d="M20.3059 0L11.5412 8.36471L0.258824 15.9294L0 19.1647L13.3294 11.5059L25.7529 0.447059C25.8549 0.4 24.0392 0.25098 20.3059 0Z" sodipodi:nodetypes="ccccccc"/><path id="shape15" transform="matrix(0.999999958981751 0 0 0.999999958981751 73.7058554037593 102.673709166595)" fill="#802655" fill-rule="evenodd" stroke="#802655" stroke-width="0.5376" stroke-linecap="square" stroke-linejoin="bevel" d="M2.70588 0C1.01176 1.77255 0.109804 3.27059 0 4.49412L1.57647 5.45882C1.72549 5.33333 2.10196 3.51373 2.70588 0Z" sodipodi:nodetypes="cccc"/><path id="shape051" transform="matrix(0.999999965079901 0 0 0.999999965079901 75.3148925112523 107.740784673541)" fill="#802655" fill-rule="evenodd" stroke="#802655" stroke-width="0.5376" stroke-linecap="square" stroke-linejoin="bevel" d="M2.70588 0C1.01176 1.77255 0.109804 3.27059 0 4.49412L1.57647 5.45882C1.72549 5.33333 2.10196 3.51373 2.70588 0Z" sodipodi:nodetypes="cccc"/><path id="shape06" transform="matrix(0.999999948258859 0 0 0.999999948258859 77.818038470428 112.403922119204)" fill="#802655" fill-rule="evenodd" stroke="#802655" stroke-width="0.5376" stroke-linecap="square" stroke-linejoin="bevel" d="M2.70588 0C1.01176 1.77255 0.109804 3.27059 0 4.49412L1.57647 5.45882C1.72549 5.33333 2.10196 3.51373 2.70588 0Z" sodipodi:nodetypes="cccc"/><path id="shape07" transform="matrix(0.878085533218826 0.478503597551306 -0.478503597551306 0.878085533218826 75.4505244055886 96.7110705122321)" fill="#802655" fill-rule="evenodd" stroke="#802655" stroke-width="0.5376" stroke-linecap="square" stroke-linejoin="bevel" d="M4.42456 0C1.6544 0.665237 0.179548 1.22745 0 1.68664L2.57779 2.04869C2.82146 2.0016 3.43705 1.3187 4.42456 0Z" sodipodi:nodetypes="cccc"/><path id="shape16" transform="matrix(0.999999958981751 0 0 0.999999958981751 81.1631213099922 96.2292726061492)" fill="#802655" fill-rule="evenodd" stroke="#802655" stroke-width="0.5376" stroke-linecap="square" stroke-linejoin="bevel" d="M2.19216 0.936223L0.152941 0.995046L0 9.00289L2.46275 20.1794L4.32941 21.995L6.0902 22.0343L4.34118 14.5009L3.26667 5.46171L3.52941 0.00288958C3.57647 -0.0337117 3.13072 0.277399 2.19216 0.936223Z" sodipodi:nodetypes="cccccccccc"/><path id="shape17" transform="matrix(0.999999958981751 0 0 0.999999958981751 108.351068624309 14.7451066881154)" fill="none" stroke="#f47b62" stroke-width="0.5376" stroke-linecap="square" stroke-linejoin="bevel" d="M1.06068 0C-0.947821 0 6.26654 2.68615 5.19401 4.38431C3.37674 7.26166 0.119619 2.89085 0.503816 0.713725C0.989409 -2.03797 1.20856 7.20818 5.20186 4.07059C6.50895 3.04358 3.30154 6.4734 1.97048 3.85882C-1.42855 -2.81786 0.39975 2.84413 3.17833 4.11765C4.31252 4.63749 5.15187 4.26291 6.00186 3.4902C7.52127 2.10891 -0.136574 0.0453627 0.0018555 2.09412C0.127103 3.94778 5.69578 6.27403 5.00578 4.54902" sodipodi:nodetypes="ccccccccc"/><path id="shape18" transform="matrix(0.999999958981751 0 0 0.999999958981751 118.834522701831 9.26741302501705)" fill="none" stroke="#f47b62" stroke-width="0.5376" stroke-linecap="square" stroke-linejoin="bevel" d="M2.09095 0.199263C1.8684 0.86692 1.64794 2.22835 1.53409 3.10122C1.46286 3.6473 0.474256 2.05943 0.804675 1.61887C4.50872 -3.31986 -0.964254 4.49499 0.153694 5.79926C0.387943 6.07255 0.602051 6.23806 0.890949 6.4424C2.62602 7.66965 0.244985 1.14185 2.14585 0.19142C3.92902 -0.700166 0.793836 8.02001 1.42428 6.12868" sodipodi:nodetypes="ccccccc"/><path id="shape19" transform="matrix(0.999999958981751 0 0 0.999999958981751 114.151525302368 9.89007346689971)" fill="none" stroke="#f47b62" stroke-width="0.5376" stroke-linecap="square" stroke-linejoin="bevel" d="M2.02101 6.24327C2.02101 8.33648 -0.742556 -1.6368 0.193556 0.235426C0.433583 0.715481 2.67417 6.33006 3.04061 5.89033C4.12355 4.5908 -0.0131484 0.278528 1.48767 1.05895" sodipodi:nodetypes="cccc"/><path id="shape20" transform="matrix(0.999999958981751 0 0 0.999999958981751 123.322408370971 12.0804143923416)" fill="none" stroke="#f47b62" stroke-width="0.5376" stroke-linecap="square" stroke-linejoin="bevel" d="M0.246201 4.78234C-1.30973 4.58785 5.20189 -3.49149 0.56777 1.78626C0.0626364 2.36155 3.50381 1.84487 2.82659 2.20195C2.38758 2.43342 3.94341 0.563197 3.69718 0.994105" sodipodi:nodetypes="cccc"/><path id="shape21" transform="matrix(0.999999958981751 0 0 0.999999958981751 124.021922056876 11.4816282384968)" fill="none" stroke="#f47b62" stroke-width="0.5376" stroke-linecap="square" stroke-linejoin="bevel" d="M2.99767 1.59289C0.791427 0.422914 0.658705 3.68292 0.0329622 5.05956C-0.392101 5.9947 3.43527 1.11073 3.38198 1.22426C-1.18803 10.9604 1.50711 -0.103542 1.38198 0.000733486" sodipodi:nodetypes="cccc"/><path id="shape22" transform="matrix(0.999999958981751 0 0 0.999999958981751 122.476769349277 20.2630902256994)" fill="none" stroke="#f47b62" stroke-width="0.5376" stroke-linecap="square" stroke-linejoin="bevel" d="M0.982036 1.2428C-2.70096 0.5062 10.9242 -0.313726 5.02126 0.121231C-8.24999 1.09911 14.4446 0.0786666 4.01733 2.1526C2.88143 2.37853 8.0307 4.45593 6.98204 3.96437C5.79258 3.40681 -6.2481 1.41128 4.29184 0.176133C5.60671 0.0220483 6.65772 -0.214495 6.16635 0.583976" sodipodi:nodetypes="cccccc"/><path id="shape23" transform="matrix(0.999999958981751 0 0 0.999999958981751 123.654719258487 26.7685519961882)" fill="none" stroke="#f47b62" stroke-width="0.5376" stroke-linecap="square" stroke-linejoin="bevel" d="M0.33742 0.125573C-1.36763 -0.300687 3.85862 0.455035 5.54526 0.949103C9.6757 2.15903 3.09261 1.81371 1.65506 1.30204C-1.87329 0.0461886 11.7034 7.19097 3.4982 2.3844C0.779251 0.791637 10.6757 11.4022 2.12565 3.99224C1.22598 3.21252 5.73953 3.97777 5.50605 5.14518" sodipodi:nodetypes="cccccc"/><path id="shape24" transform="matrix(0.999999958981751 0 0 0.999999958981751 125.113707757444 30.0235374339692)" fill="none" stroke="#f47b62" stroke-width="0.5376" stroke-linecap="square" stroke-linejoin="bevel" d="M0 0C0 2.27338 1.49431 4.36184 2.81569 6.21176" sodipodi:nodetypes="cc"/><path id="shape25" transform="matrix(0.999999958981751 0 0 0.999999958981751 124.094457314928 23.7553711985535)" fill="#531b39" fill-opacity="0.674509803921569" fill-rule="evenodd" stroke-opacity="0" stroke="#000000" stroke-width="0" stroke-linecap="square" stroke-linejoin="bevel" d="M5.02005 14.6305C5.35724 13.4591 -0.176984 7.74894 0.00436282 5.07148C0.662722 -4.64875 6.55173 1.04301 5.37691 10.0713C5.26685 10.917 4.57442 14.7849 5.02789 14.3717" sodipodi:nodetypes="cccc"/><path id="shape26" transform="matrix(0.999999958981751 0 0 0.999999958981751 107.808756949404 12.9461252603598)" fill="none" stroke-opacity="0" stroke="#000000" stroke-width="0" stroke-linecap="square" stroke-linejoin="bevel" d="M1.13753 9.25628C-1.17632 2.31474 17.0618 -4.98841 18.6944 4.60334C20.9667 17.9529 16.7749 2.52434 12.2728 1.9053C7.84993 1.29715 -3.43874 9.17785 1.02577 9.17785" sodipodi:nodetypes="cccc"/><path id="shape27" transform="matrix(0.999999958981751 0 0 0.999999958981751 86.5646619622174 51.2776074343598)" fill="#802655" fill-rule="evenodd" stroke="#f47b62" stroke-width="0.5376" stroke-linecap="square" stroke-linejoin="bevel" d="M0 7.4L2.08235 0L6.98823 2.78824L9.27059 7.07059L4.69412 4.54118L4.54118 10.4941L2.50588 5.78823Z" sodipodi:nodetypes="cccccccc"/>
</svg>
