<?xml version="1.0" standalone="no"?>
<!DOCTYPE svg PUBLIC "-//W3C//DTD SVG 20010904//EN" "http://www.w3.org/TR/2001/REC-SVG-20010904/DTD/svg10.dtd">
<!-- Created using Krita: https://krita.org -->
<svg xmlns="http://www.w3.org/2000/svg" 
    xmlns:xlink="http://www.w3.org/1999/xlink"
    xmlns:krita="http://krita.org/namespaces/svg/krita"
    xmlns:sodipodi="http://sodipodi.sourceforge.net/DTD/sodipodi-0.dtd"
    width="152.16pt"
    height="248.4pt"
    viewBox="0 0 152.16 248.4">
<defs>
  <linearGradient id="gradient0" gradientUnits="objectBoundingBox" x1="0" y1="0" x2="1" y2="1" spreadMethod="pad">
   <stop stop-color="#191a28" offset="0" stop-opacity="1"/>
   <stop stop-color="#6b6a7b" offset="0.402777791023254" stop-opacity="1"/>
   <stop stop-color="#19173b" offset="0.826388895511627" stop-opacity="1"/>
  </linearGradient>
  <radialGradient id="gradient1" gradientUnits="objectBoundingBox" cx="0.133689830144284" cy="-0.553816614587177" fx="0" fy="0" r="1.4142135623731" spreadMethod="pad">
   <stop stop-color="#ffffff" offset="0" stop-opacity="1"/>
   <stop stop-color="#6b6a7b" offset="0.5" stop-opacity="1"/>
   <stop stop-color="#19173b" offset="0.972199976444244" stop-opacity="1"/>
  </radialGradient>
  <linearGradient id="gradient2" gradientUnits="objectBoundingBox" x1="-0.582893347412883" y1="-1.25603864734299" x2="1.27060215793804" y2="1.57487922705313" spreadMethod="pad">
   <stop stop-color="#802655" offset="0.020833333954215" stop-opacity="1"/>
   <stop stop-color="#531b39" offset="0.590277791023254" stop-opacity="1"/>
   <stop stop-color="#19173b" offset="0.972199976444244" stop-opacity="1"/>
  </linearGradient>
  <linearGradient id="gradient3" gradientUnits="objectBoundingBox" x1="0" y1="0" x2="1" y2="1" spreadMethod="pad">
   <stop stop-color="#802655" offset="0.0555555559694767" stop-opacity="1"/>
   <stop stop-color="#7e1c32" offset="0.805555582046509" stop-opacity="1"/>
  </linearGradient>
  <linearGradient id="gradient4" gradientUnits="objectBoundingBox" x1="-1.44284317301529" y1="0.0817103237220405" x2="2.43293807114107" y2="0.961222219250557" spreadMethod="pad">
   <stop stop-color="#bc86a2" offset="0.444444447755814" stop-opacity="1"/>
   <stop stop-color="#8d4deb" offset="1" stop-opacity="1"/>
  </linearGradient>
  <linearGradient id="gradient5" gradientUnits="objectBoundingBox" x1="-1.62948000196381" y1="0.515549335605941" x2="1.44351492317424" y2="0.66505243069866" spreadMethod="pad">
   <stop stop-color="#dceaed" offset="0.326388895511627" stop-opacity="0"/>
   <stop stop-color="#ffffff" offset="0.666666686534882" stop-opacity="0.901960784313726"/>
   <stop stop-color="#645688" offset="0.881944417953491" stop-opacity="1"/>
  </linearGradient>
  <linearGradient id="gradient6" gradientUnits="objectBoundingBox" x1="-0.961870620893588" y1="-0.0574807547044477" x2="1.25423913142855" y2="0.973604458188565" spreadMethod="pad">
   <stop stop-color="#dceaed" offset="0.402799993753433" stop-opacity="0"/>
   <stop stop-color="#645688" offset="0.881944417953491" stop-opacity="1"/>
   <stop stop-color="#ffffff" offset="1" stop-opacity="0.901960784313726"/>
  </linearGradient>
  <linearGradient id="gradient7" gradientUnits="objectBoundingBox" x1="0" y1="0" x2="1" y2="1" spreadMethod="pad">
   <stop stop-color="#645688" offset="0" stop-opacity="1"/>
   <stop stop-color="#dce1ed" offset="0.173600003123283" stop-opacity="1"/>
   <stop stop-color="#645688" offset="1" stop-opacity="1"/>
  </linearGradient>
  <linearGradient id="gradient8" gradientUnits="objectBoundingBox" x1="0" y1="0" x2="1" y2="1" spreadMethod="pad">
   <stop stop-color="#6ec8fa" offset="0" stop-opacity="0"/>
   <stop stop-color="#585982" offset="0.8125" stop-opacity="1"/>
   <stop stop-color="#585982" offset="1" stop-opacity="1"/>
  </linearGradient>
  <linearGradient id="gradient9" gradientUnits="objectBoundingBox" x1="0" y1="0" x2="0.824303151863027" y2="0.998798480294473" spreadMethod="pad">
   <stop stop-color="#dce1ed" offset="0.0694444477558136" stop-opacity="1"/>
   <stop stop-color="#645688" offset="0.902777791023254" stop-opacity="1"/>
   <stop stop-color="#645688" offset="1" stop-opacity="1"/>
  </linearGradient>
  <linearGradient id="gradient10" gradientUnits="objectBoundingBox" x1="0" y1="0" x2="1" y2="1" spreadMethod="pad">
   <stop stop-color="#dceaed" offset="0.5" stop-opacity="0"/>
   <stop stop-color="#645688" offset="0.826399981975555" stop-opacity="1"/>
   <stop stop-color="#ffffff" offset="0.923611104488373" stop-opacity="0.901960784313726"/>
  </linearGradient>
 </defs>
<path id="shape0" transform="matrix(0.522091826487534 0.962489546912125 -0.969410930632775 0.499222613988914 92.1442478801427 50.718808103781)" fill="#645688" fill-rule="evenodd" stroke-opacity="0" stroke="#000000" stroke-width="0" stroke-linecap="square" stroke-linejoin="bevel" d="M13.2522 0.292985C10.0888 2.09691 7.93713 4.03416 6.79726 6.10475L4.83648 22.5361L4.32667 28.7636C3.49007 30.6773 2.29791 32.659 0.750201 34.7087C-0.797511 36.7583 0.0495473 37.9662 3.29138 38.3322L5.55804 41.9008C4.41295 42.3453 5.06131 42.9544 7.50314 43.7283C9.94497 44.5021 11.5371 45.1374 12.2796 45.6342L17.9188 46.2616L21.7384 45.2342C23.6835 43.127 25.6835 40.9335 27.7384 38.6538C29.7933 36.374 29.8796 33.6681 27.9973 30.5361L27.9659 15.0459L26.9149 2.94397L21.5502 0.00278868C21.4979 -0.0181264 18.7319 0.0786057 13.2522 0.292985Z" sodipodi:nodetypes="cccczcczccczccccc"/><path id="shape01" transform="matrix(1.08472385011318 -0.167551831962802 0.187451598252782 1.07149865563497 64.3010447938729 68.2482756823321)" fill="#802655" fill-rule="evenodd" stroke="#802655" stroke-width="0.5376" stroke-linecap="square" stroke-linejoin="bevel" d="M2.19216 0.936223L0.152941 0.995046L0 9.00289L2.46275 20.1794L4.32941 21.995L6.0902 22.0343L4.34118 14.5009L3.26667 5.46171L3.52941 0.00288958C3.57647 -0.0337117 3.13072 0.277399 2.19216 0.936223Z" sodipodi:nodetypes="cccccccccc"/><path id="shape01" transform="matrix(1.06269765375682 0.165453182483966 -0.165453182483966 1.06269765375682 33.2598026567634 56.9998960630377)" fill="url(#gradient0)" fill-rule="evenodd" stroke-opacity="0" stroke="#000000" stroke-width="0" stroke-linecap="square" stroke-linejoin="bevel" d="M19 11.5294L6.87059 0.294118L0 0L0.294118 26.0588L8.09412 25.7176L18.3176 17.9765Z" sodipodi:nodetypes="ccccccc"/><ellipse id="shape1" transform="matrix(1.06269765375682 0.165453182483966 -0.165453182483966 1.06269765375682 50.3711940652587 71.2400604331793)" rx="3.96000000000001" ry="4.14237750340141" cx="3.96000000000001" cy="4.14237750340141" fill="url(#gradient1)" fill-rule="evenodd" stroke-opacity="0" stroke="#000000" stroke-width="0" stroke-linecap="square" stroke-linejoin="bevel"/><path id="shape2" transform="matrix(0.766218713471582 0.754725077111072 -0.754725077111072 0.766218713471582 62.9371048871829 68.785991799618)" fill="url(#gradient2)" fill-rule="evenodd" stroke-opacity="0" stroke="#000000" stroke-width="0" stroke-linecap="square" stroke-linejoin="bevel" d="M0 6.91765L16.1529 0L22.2824 0.0705882L1.51765 9.74118Z" sodipodi:nodetypes="ccccc"/><path id="shape011" transform="matrix(0.453163002644942 0.975368864205361 -0.975368864205361 0.453163002644942 64.4934679764132 74.3679700246016)" fill="#191a28" stroke-opacity="0" stroke="#000000" stroke-width="0" stroke-linecap="square" stroke-linejoin="bevel" d="M0 6.91765L16.1529 0L22.2824 0.0705882L1.51765 9.74118Z" sodipodi:nodetypes="ccccc"/><path id="shape3" transform="matrix(1.06269765375682 0.165453182483966 -0.165453182483966 1.06269765375682 50.6492787224705 79.6196579806791)" fill="#645688" fill-rule="evenodd" stroke-opacity="0" stroke="#000000" stroke-width="0" stroke-linecap="square" stroke-linejoin="bevel" d="M0.2 0.305882L0 4.62353L4.30588 4.72941L4.17647 0Z" sodipodi:nodetypes="ccccc"/><path id="shape4" transform="matrix(1.06269765375682 0.165453182483966 -0.165453182483966 1.06269765375682 40.8414569001103 81.4220604094494)" fill="url(#gradient3)" fill-rule="evenodd" stroke-opacity="0" stroke="#000000" stroke-width="0" stroke-linecap="square" stroke-linejoin="bevel" d="M8.12941 0.541176L0 6.23529L0.235294 64.9412C7.50292 67.9216 13.6625 67.8667 21.4706 64.9882L21.0118 6.74118L12.8471 0Z" sodipodi:nodetypes="ccccccc"/><path id="shape5" transform="matrix(1.06269765375682 0.165453182483966 -0.165453182483966 1.06269765375682 43.3181241825664 85.155295226788)" fill="url(#gradient4)" fill-rule="evenodd" stroke-opacity="0" stroke="#000000" stroke-width="0" stroke-linecap="square" stroke-linejoin="bevel" d="M7.01414 0.877361C3.56323 0.877361 1.3811 7.63532 0.978846 10.3362C0.249238 15.235 -1.54404 58.7689 2.90826 59.4538C5.46138 59.8466 4.19532 48.7483 4.16708 47.2656C3.9376 35.2178 4.9163 24.1981 5.75532 12.2421C5.83807 11.0628 8.6798 -3.77514 5.93179 0.912655" sodipodi:nodetypes="cccccc"/><path id="shape02" transform="matrix(0.680669995763779 -0.732590109184504 0.732590109184504 0.680669995763779 75.1691794050482 124.150205503619)" fill="#645688" fill-rule="evenodd" stroke-opacity="0" stroke="#000000" stroke-width="0" stroke-linecap="square" stroke-linejoin="bevel" d="M3.15348 47.0171C1.6662 47.0171 3.01984 26.1124 4.14172 24.5084C11.9262 13.3788 27.48 -13.9719 45.4123 8.78977C49.5127 23.9354 42.0182 37.8057 23.8829 49.4947C22.4015 49.3188 -0.127015 44.1585 0.000539582 45.0772" sodipodi:nodetypes="ccccc"/><path id="shape012" transform="matrix(0.972845529183805 0.231455246500282 -0.231455246500282 0.972845529183805 97.8319521285316 86.8760567515586)" fill="#dce1ed" fill-rule="evenodd" stroke-opacity="0" stroke="#000000" stroke-width="0" stroke-linecap="square" stroke-linejoin="bevel" d="M3.09726 0.14753C-1.61387 16.2331 -3.05145 26.85 14.3734 30.5998C22.2152 30.3015 31.3972 28.8998 37.7183 19.9859C31.7602 2.74637 34.6923 0.08526 25.3771 1.65649C21.0061 2.39377 12.7083 -0.6903 5.51519 0.144671" sodipodi:nodetypes="ccccc"/><path id="shape011" transform="matrix(0.904876549784276 0.425674054864632 -0.425674054864632 0.904876549784276 104.675131043673 129.346998390382)" fill="#645688" fill-rule="evenodd" stroke-opacity="0" stroke="#000000" stroke-width="0" stroke-linecap="square" stroke-linejoin="bevel" d="M25.3139 49.6927C25.015 48.796 21.1858 49.2669 20.0786 49.0338C7.30434 46.3445 -9.13628 5.46517 6.17274 2.03383C13.011 0.610279 24.0262 -3.33033 26.7139 6.12795C30.5673 19.6884 40.8335 32.0344 42.8316 38.3279C39.7139 44.7083 41.2765 48.509 36.6786 49.4456C35.4788 49.69 22.1866 50.0274 22.3845 50.1044" sodipodi:nodetypes="cccsccc"/><path id="shape02" transform="matrix(0.960333762149271 0.278853021967119 -0.278853021967119 0.960333762149271 89.996223487036 174.722694326531)" fill="#19173b" fill-rule="evenodd" stroke-opacity="0" stroke="#000000" stroke-width="0" stroke-linecap="square" stroke-linejoin="bevel" d="M38.5529 0.251211L38.6118 25.5806L15.8 26.663L2.41176 26.1453L0 22.0042L2.08235 13.7571L9.74118 8.3218L17.1294 6.59239L16.7294 1.09827C16.1255 0.015917 23.4 -0.266436 38.5529 0.251211Z" sodipodi:nodetypes="cccccccccc"/><path id="shape03" transform="matrix(0.907213469935746 0.420670456776145 -0.420670456776145 0.907213469935746 66.9923931445317 180.320751734)" fill="#19173b" fill-rule="evenodd" stroke-opacity="0" stroke="#000000" stroke-width="0" stroke-linecap="square" stroke-linejoin="bevel" d="M38.5529 0.251211L38.6118 25.5806L15.8 26.663L2.41176 26.1453L0 22.0042L2.08235 13.7571L9.74118 8.3218L17.1294 6.59239L16.7294 1.09827C16.1255 0.015917 23.4 -0.266436 38.5529 0.251211Z" sodipodi:nodetypes="cccccccccc"/><path id="shape0111" transform="matrix(0.942329404877882 0.334686763278033 -0.334686763278033 0.942329404877882 106.814963372669 126.362395799486)" fill="url(#gradient5)" fill-rule="evenodd" stroke-opacity="0" stroke="#000000" stroke-width="0" stroke-linecap="square" stroke-linejoin="bevel" d="M4.63818 19.0136C4.54988 18.9142 5.18694 20.1229 5.22693 20.2165C6.43174 23.0364 21.3757 49.3432 21.1889 49.5535C18.7375 52.3133 12.0489 42.0694 11.0273 40.7524C-7.06119 17.4317 2.26457 -19.4691 3.48246 12.4098C3.68442 17.6961 5.05935 20.7272 7.21127 24.9669" sodipodi:nodetypes="cccccc"/><path id="shape04" transform="matrix(0.927401663395882 -0.374066891692644 0.374066891692644 0.927401663395882 70.5380316171233 121.644015441895)" fill="#dce1ed" fill-rule="evenodd" stroke-opacity="0" stroke="#000000" stroke-width="0" stroke-linecap="square" stroke-linejoin="bevel" d="M3.15348 47.3307C1.6662 47.3307 3.01984 26.2866 4.14172 24.6719C11.9262 13.468 27.48 -14.0651 45.4123 8.8484C49.5127 24.095 42.0182 38.0578 23.8829 49.8248C22.4015 49.6477 -0.127015 44.453 0.000539582 45.3778" sodipodi:nodetypes="ccccc"/><ellipse id="shape013" transform="matrix(0.907213472079679 0.420670457770276 -0.420670457770276 0.907213472079679 87.3526860879236 198.978811555544)" rx="4.20000000000002" ry="4.19999999999999" cx="4.20000000000002" cy="4.19999999999999" fill="#802655" fill-rule="evenodd" stroke="#f47b62" stroke-width="0.96" stroke-linecap="square" stroke-linejoin="bevel"/><ellipse id="shape11" transform="matrix(0.739113989798024 0.673580305567465 -0.673580305567465 0.739113989798024 115.768102654903 191.707547170842)" rx="3.59999999999999" ry="3.71999999999997" cx="3.59999999999999" cy="3.71999999999997" fill="#802655" fill-rule="evenodd" stroke="#f47b62" stroke-width="0.96" stroke-linecap="square" stroke-linejoin="bevel"/><path id="shape012" transform="matrix(0.781869590366285 0.623441886240048 -0.623441886240048 0.781869590366285 96.6395786126674 135.778856120004)" fill="#dce1ed" fill-rule="evenodd" stroke-opacity="0" stroke="#000000" stroke-width="0" stroke-linecap="square" stroke-linejoin="bevel" d="M25.3139 49.6927C25.015 48.796 21.1858 49.2669 20.0786 49.0338C7.30434 46.3445 -9.13628 5.46517 6.17274 2.03383C13.011 0.610279 24.0262 -3.33033 26.7139 6.12795C30.5673 19.6884 40.8335 32.0344 42.8316 38.3279C39.7139 44.7083 41.2765 48.509 36.6786 49.4456C35.4788 49.69 22.1866 50.0274 22.3845 50.1044" sodipodi:nodetypes="cccsccc"/><path id="shape05" transform="matrix(0.999999947050671 0 0 0.999999947050671 90.9047716268377 99.9011872803522)" fill="url(#gradient6)" fill-rule="evenodd" stroke-opacity="0" stroke="#000000" stroke-width="0" stroke-linecap="square" stroke-linejoin="bevel" d="M28.3799 0.270574C30.3144 -0.374267 31.9693 14.0812 29.4505 16.6C19.5111 26.5393 34.6366 39.4044 20.8364 48.7529C20.431 49.0275 20.8787 50.0872 15.3187 60.7882C12.3385 78.6693 17.8086 100.737 0.306949 90.5764C-1.95115 91.028 9.02434 70.4671 8.00107 68.6823C14.1899 35.7127 9.85832 58.1849 17.3305 39.2823C20.6486 33.4756 20.8108 18.6329 26.2034 11.3529C28.5734 8.15345 27.9239 -0.722285 29.4034 0.047045" sodipodi:nodetypes="ccccccccc"/><path id="shape21" transform="matrix(0.999999958981751 0 0 0.999999958981751 62.6352528665747 85.8799144433922)" fill="#645688" fill-rule="evenodd" stroke-opacity="0" stroke="#000000" stroke-width="0" stroke-linecap="square" stroke-linejoin="bevel" d="M1.56471 1.3624C1.57676 1.35034 1.47291 2.23115 1.44706 2.64475C0.936036 10.8211 10.0948 11.1916 8.17647 3.09181C7.26656 -0.750032 2.2512 -0.818122 0 1.82122" sodipodi:nodetypes="cccc"/><path id="shape31" transform="matrix(0.999999958981751 0 0 0.999999958981751 64.3293703246738 89.2776031958761)" fill="#802655" fill-rule="evenodd" stroke="#645688" stroke-width="0.5376" stroke-linecap="square" stroke-linejoin="bevel" d="M0 0L3.02353 5.31765L4.08235 0.788235C3.9098 0.694118 2.54902 0.431373 0 0Z" sodipodi:nodetypes="cccc"/><ellipse id="shape03" transform="matrix(0.986003617137179 -0.166723678450093 0.166723678450093 0.986003617137179 83.8598983908777 8.57751847904024)" rx="16.9117814182588" ry="16.5787955821701" cx="16.9117814182588" cy="16.5787955821701" fill="#191a28" fill-rule="evenodd" stroke-opacity="0" stroke="#000000" stroke-width="0" stroke-linecap="square" stroke-linejoin="bevel"/><path id="shape12" transform="matrix(0.986003617137179 -0.166723678450093 0.166723678450093 0.986003617137179 82.4548735839172 3.74991305212575)" fill="url(#gradient7)" fill-rule="evenodd" stroke-opacity="0" stroke="#000000" stroke-width="0" stroke-linecap="square" stroke-linejoin="bevel" d="M2.89424 14.4592C2.04677 11.8223 8.08656 12.5543 10.6805 11.8559C21.3822 8.97436 39.4074 30.2711 38.2782 13.8748C37.1861 -1.98356 14.2424 -2.92309 5.64761 4.41791C3.27182 6.44713 1.58348 11.5647 0 8.82757" sodipodi:nodetypes="cccsc"/><path id="shape22" transform="matrix(0.997836606704616 0.0657421043454328 -0.0657421043454328 0.997836606704616 98.2513102587234 13.5517031079751)" fill="#dce1ed" fill-rule="evenodd" stroke-opacity="0" stroke="#000000" stroke-width="0" stroke-linecap="square" stroke-linejoin="bevel" d="M20.0262 3.41912L0 26.5504L0.35945 54.3752L0.897085 66.2291L3.78545 67.7878L36.2418 68.9946L45.8271 55.5179L51.645 18.758L27.0047 0C26.8144 0.284917 24.4883 1.42462 20.0262 3.41912Z" sodipodi:nodetypes="cccccccccc"/><ellipse id="shape32" transform="matrix(0.986003617137179 -0.166723678450093 0.166723678450093 0.986003617137179 109.841827134903 16.782167412229)" rx="2.40000000000001" ry="2.88" cx="2.40000000000001" cy="2.88" fill="#7fccdd" fill-rule="evenodd" stroke-opacity="0" stroke="#000000" stroke-width="0" stroke-linecap="square" stroke-linejoin="bevel"/><path id="shape41" transform="matrix(0.986003617137179 -0.166723678450093 0.166723678450093 0.986003617137179 88.6676916352806 17.120327148248)" fill="#645688" fill-opacity="0.654901960784314" fill-rule="evenodd" stroke-opacity="0" stroke="#000000" stroke-width="0" stroke-linecap="square" stroke-linejoin="bevel" d="M4.16198 4.23911C5.43954 3.50019 13.1149 2.31667 12.9762 1.92146C11.9094 -1.11952 3.53119 -0.0766638 1.95164 1.79205C-3.85378 8.66023 5.48975 8.75675 1.95164 8.75675" sodipodi:nodetypes="cccc"/><path id="shape51" transform="matrix(0.986003617137179 -0.166723678450093 0.166723678450093 0.986003617137179 91.3341551303776 3.59697873271944)" fill="url(#gradient8)" fill-rule="evenodd" stroke-opacity="0" stroke="#000000" stroke-width="0" stroke-linecap="square" stroke-linejoin="bevel" d="M0.706259 10.6297C-3.39352 13.1312 11.4843 8.53722 16.3446 7.79586C16.3625 7.79313 13.702 -8.58492 27.3952 6.14493C34.6814 13.9828 21.8941 21.6111 20.4069 21.8353C15.6223 17.676 32.9519 20.5597 11.5722 12.9826C10.4261 12.4832 1.80446 9.02952 1.35963 10.7597" sodipodi:nodetypes="cssccc"/><path id="shape014" transform="matrix(0.98600357315013 -0.166723671012306 0.166723671012306 0.98600357315013 107.308831717215 7.83343126193495)" fill="#6ec8fa" fill-rule="evenodd" stroke-opacity="0" stroke="#000000" stroke-width="0" stroke-linecap="square" stroke-linejoin="bevel" d="M1.88135 11.1635C-3.77407 11.2954 20.4565 -11.8994 25.3394 8.19775C29.8511 26.7666 21.6256 16.19 17.0585 13.1062C16.3031 12.5961 17.9607 7.30503 17.2419 6.70605C15.8009 5.50518 15.6016 7.94961 13.6911 7.86277C10.4458 7.71526 4.79289 15.6813 2.881 14.566C1.61889 13.8298 -0.615095 11.8526 0.15931 13.0916" sodipodi:nodetypes="csscscc"/><ellipse id="shape6" transform="matrix(0.986003617137179 -0.166723678450093 0.166723678450093 0.986003617137179 89.4571532481949 18.8958494333583)" rx="1.1882352941177" ry="1.23529411764702" cx="1.1882352941177" cy="1.23529411764702" fill="#dbeaf2" fill-opacity="0.8" fill-rule="evenodd" stroke-opacity="0" stroke="#000000" stroke-width="0" stroke-linecap="square" stroke-linejoin="bevel"/><ellipse id="shape7" transform="matrix(0.997836606704616 0.0657421043454328 -0.0657421043454328 0.997836606704616 113.721089772341 36.713538808571)" rx="10.92" ry="10.8" cx="10.92" cy="10.8" fill="#585982" fill-rule="evenodd" stroke-opacity="0" stroke="#000000" stroke-width="0" stroke-linecap="square" stroke-linejoin="bevel"/><path id="shape8" transform="matrix(0.99705754107692 -0.0766562309612597 0.0766562309612597 0.99705754107692 97.2561802613517 82.9151049420304)" fill="#191a28" fill-rule="evenodd" stroke-opacity="0" stroke="#000000" stroke-width="0" stroke-linecap="square" stroke-linejoin="bevel" d="M3.56372 0.122343C2.2612 5.62251 1.0733 9.00021 0 10.2554L17.1939 15.3912L28.6498 15.8721L32.3594 12.4365L35.5772 2.81174L27.6428 0.77838L13.3594 0.817072C10.8471 0.0615782 7.58191 -0.169999 3.56372 0.122343Z" sodipodi:nodetypes="ccccccccc"/><path id="shape9" transform="matrix(0.875727274968148 0.482806025066411 -0.482806025066411 0.875727274968148 81.4076223117267 51.6816334770305)" fill="none" stroke="#645688" stroke-width="0.5376" stroke-linecap="square" stroke-linejoin="bevel" d="M0.0588235 0C0.0135313 0.0452922 0.0327584 0.0214506 0 0.0705882" sodipodi:nodetypes="cc"/><path id="shape10" transform="matrix(0.999999958981751 0 0 0.999999958981751 61.9948036603407 247.738476538186)" fill="none" stroke="#dbeaf2" stroke-width="0.5376" stroke-linecap="square" stroke-linejoin="bevel" d="M0.303973 0.188507C-0.00352887 0.127007 -0.0185668 -0.00683334 0.00985534 0.000272176" sodipodi:nodetypes="cc"/><path id="shape11" transform="matrix(0.997836606704616 0.0657421043454328 -0.0657421043454328 0.997836606704616 123.479807004858 20.7386589244569)" fill="url(#gradient9)" fill-rule="evenodd" stroke-opacity="0" stroke="#000000" stroke-width="0" stroke-linecap="square" stroke-linejoin="bevel" d="M23.0044 34.2329L25.2156 16.0123L15.5453 5.92091L10.8302 0L11.267 7.31189L13.7422 18.2674L7.72787 17.7997L11.5358 20.8647L13.7534 27.2288L12.9246 31.5248L7.23508 40.9909L0.683188 47.2688L0 57.0426L1.01918 60.8463L10.1918 62.4342L13.0142 61.9418L19.7461 44.3037C21.0298 44.754 22.1159 41.3971 23.0044 34.2329Z" sodipodi:nodetypes="cccccccccccccccccc"/><path id="shape015" transform="matrix(0.604266802274817 0.796781969447689 -0.796781969447689 0.604266802274817 125.685225707736 34.4438749420219)" fill="#dce1ed" fill-rule="evenodd" stroke-opacity="0" stroke="#000000" stroke-width="0" stroke-linecap="square" stroke-linejoin="bevel" d="M14.0941 0L5.75686 1.79608L0.627451 13.851L0 37.3098L2.63529 40.4471L0.52549 42.8235L3.78824 46.8235L12.3843 49.0118L22.8314 46.502L25.6314 38.8471L27.1922 17.8275L22.0627 2.10196C21.9111 1.91895 19.2549 1.2183 14.0941 0Z" sodipodi:nodetypes="ccccccccccccc"/><path id="shape021" transform="matrix(0.6143597830067 0.7890259483786 -0.7890259483786 0.6143597830067 90.6692481666615 54.9022110341828)" fill="#dce1ed" fill-rule="evenodd" stroke-opacity="0" stroke="#000000" stroke-width="0" stroke-linecap="square" stroke-linejoin="bevel" d="M13.2522 0.292985C10.0888 2.09691 7.93713 4.03416 6.79726 6.10475L4.83648 22.5361L4.32667 28.7636C3.49007 30.6773 2.29791 32.659 0.750201 34.7087C-0.797511 36.7583 0.0495473 37.9662 3.29138 38.3322L5.55804 41.9008C4.41295 42.3453 5.06131 42.9544 7.50314 43.7283C9.94497 44.5021 11.5371 45.1374 12.2796 45.6342L17.9188 46.2616L21.7384 45.2342C23.6835 43.127 25.6835 40.9335 27.7384 38.6538C29.7933 36.374 29.8796 33.6681 27.9973 30.5361L27.9659 15.0459L26.9149 2.94397L21.5502 0.00278868C21.4979 -0.0181264 18.7319 0.0786057 13.2522 0.292985Z" sodipodi:nodetypes="cccczcczccczccccc"/><path id="shape12" transform="matrix(0.897605633209122 0.440799325311164 -0.440799325311164 0.897605633209122 128.008808334519 45.8203771566358)" fill="#80cadc" fill-rule="evenodd" stroke="#802655" stroke-width="0.5376" stroke-linecap="square" stroke-linejoin="bevel" d="M7.6 4.8C4.43137 1.77255 2.64314 0.172549 2.23529 0L0 4.76471L4.51765 10.0235C4.70588 9.80392 5.73333 8.06274 7.6 4.8Z" sodipodi:nodetypes="ccccc"/><path id="shape13" transform="matrix(0.696776770331845 0.717287982814067 -0.717287982814067 0.696776770331845 126.098089033132 35.9707208332657)" fill="url(#gradient10)" fill-rule="evenodd" stroke-opacity="0" stroke="#000000" stroke-width="0" stroke-linecap="square" stroke-linejoin="bevel" d="M15.0714 4.8C13.6675 1.84314 12.3734 0.243137 11.1891 0L14.6126 12.9412L15.0361 27.1764L14.3067 36.2L11.189 41.5529L7.0976 46.5834L5.41251 51.2448L6.25566 58.8978L5.44088 70.4076L0 83.0438L6.53405 84.5908L13.2149 78.6701L16.8125 52.5215L16.8237 45.261L21.2539 40.9592L23.7538 14.4235C20.5851 15.8588 17.691 12.651 15.0714 4.8Z" sodipodi:nodetypes="cccccccccccccccccc"/><path id="shape031" transform="matrix(0.604266819950896 0.796781992755238 -0.796781992755238 0.604266819950896 113.361729771308 43.9400007786246)" fill="#802655" fill-rule="evenodd" stroke-opacity="0" stroke="#000000" stroke-width="0" stroke-linecap="square" stroke-linejoin="bevel" d="M26.5059 0L16.3765 5.55294L3.37647 4.23529L0.835294 1.4L0 5.65882L4.8 8.88235L18.4 9.76471L26.4235 5.43529C26.4314 5.40392 26.4588 3.59216 26.5059 0Z" sodipodi:nodetypes="ccccccccc"/><path id="shape041" transform="matrix(0.60426680295409 0.796781970343373 -0.796781970343373 0.60426680295409 104.666467895206 50.7805169617876)" fill="#802655" fill-rule="evenodd" stroke-opacity="0" stroke="#000000" stroke-width="0" stroke-linecap="square" stroke-linejoin="bevel" d="M26.5059 0L16.3765 5.55294L3.37647 4.23529L0.835294 1.4L0 5.65882L4.8 8.88235L18.4 9.76471L26.4235 5.43529C26.4314 5.40392 26.4588 3.59216 26.5059 0Z" sodipodi:nodetypes="ccccccccc"/><path id="shape14" transform="matrix(0.999082935813742 0.0428159471381505 -0.0428159471381505 0.999082935813742 78.3135796678998 70.8562885510161)" fill="#80cadc" fill-rule="evenodd" stroke="#802655" stroke-width="0.5376" stroke-linecap="square" stroke-linejoin="bevel" d="M20.3059 0L11.5412 8.36471L0.258824 15.9294L0 19.1647L13.3294 11.5059L25.7529 0.447059C25.8549 0.4 24.0392 0.25098 20.3059 0Z" sodipodi:nodetypes="ccccccc"/><path id="shape15" transform="matrix(0.998202961790127 -0.0599229925569104 0.0599229925569104 0.998202961790127 62.6164287369817 83.1111768666641)" fill="#802655" fill-rule="evenodd" stroke="#802655" stroke-width="0.5376" stroke-linecap="square" stroke-linejoin="bevel" d="M2.70588 0C1.01176 1.77255 0.109804 3.27059 0 4.49412L1.57647 5.45882C1.72549 5.33333 2.10196 3.51373 2.70588 0Z" sodipodi:nodetypes="cccc"/><path id="shape051" transform="matrix(0.998202967877296 -0.0599229929223281 0.0599229929223281 0.998202967877296 64.5321558813458 88.0954939600482)" fill="#802655" fill-rule="evenodd" stroke="#802655" stroke-width="0.5376" stroke-linecap="square" stroke-linejoin="bevel" d="M2.70588 0C1.01176 1.77255 0.109804 3.27059 0 4.49412L1.57647 5.45882C1.72549 5.33333 2.10196 3.51373 2.70588 0Z" sodipodi:nodetypes="cccc"/><path id="shape06" transform="matrix(0.998202951086508 -0.0599229919143623 0.0599229919143623 0.998202951086508 67.3300566286993 92.6761405237751)" fill="#802655" fill-rule="evenodd" stroke="#802655" stroke-width="0.5376" stroke-linecap="square" stroke-linejoin="bevel" d="M2.70588 0C1.01176 1.77255 0.109804 3.27059 0 4.49412L1.57647 5.45882C1.72549 5.33333 2.10196 3.51373 2.70588 0Z" sodipodi:nodetypes="cccc"/><path id="shape07" transform="matrix(0.905180984607554 0.425026212865371 -0.425026212865371 0.905180984607554 64.0382009400764 76.826029869951)" fill="#802655" fill-rule="evenodd" stroke="#802655" stroke-width="0.5376" stroke-linecap="square" stroke-linejoin="bevel" d="M4.42456 0C1.6544 0.665237 0.179548 1.22745 0 1.68664L2.57779 2.04869C2.82146 2.0016 3.43705 1.3187 4.42456 0Z" sodipodi:nodetypes="cccc"/><path id="shape16" transform="matrix(0.998202961790127 -0.0599229925569104 0.0599229925569104 0.998202961790127 69.5936562488221 76.3578627111273)" fill="#802655" fill-rule="evenodd" stroke="#802655" stroke-width="0.5376" stroke-linecap="square" stroke-linejoin="bevel" d="M2.19216 0.936223L0.152941 0.995046L0 9.00289L2.46275 20.1794L4.32941 21.995L6.0902 22.0343L4.34118 14.5009L3.26667 5.46171L3.52941 0.00288958C3.57647 -0.0337117 3.13072 0.277399 2.19216 0.936223Z" sodipodi:nodetypes="cccccccccc"/><path id="shape17" transform="matrix(0.986003617137179 -0.166723678450093 0.166723678450093 0.986003617137179 111.618483957604 13.6674602848059)" fill="none" stroke="#f47b62" stroke-width="0.5376" stroke-linecap="square" stroke-linejoin="bevel" d="M1.06068 0C-0.947821 0 6.26654 2.68615 5.19401 4.38431C3.37674 7.26166 0.119619 2.89085 0.503816 0.713725C0.989409 -2.03797 1.20856 7.20818 5.20186 4.07059C6.50895 3.04358 3.30154 6.4734 1.97048 3.85882C-1.42855 -2.81786 0.39975 2.84413 3.17833 4.11765C4.31252 4.63749 5.15187 4.26291 6.00186 3.4902C7.52127 2.10891 -0.136574 0.0453627 0.0018555 2.09412C0.127103 3.94778 5.69578 6.27403 5.00578 4.54902" sodipodi:nodetypes="ccccccccc"/><path id="shape18" transform="matrix(0.986003617137179 -0.166723678450093 0.166723678450093 0.986003617137179 121.041946747732 6.51859419952211)" fill="none" stroke="#f47b62" stroke-width="0.5376" stroke-linecap="square" stroke-linejoin="bevel" d="M2.09095 0.199263C1.8684 0.86692 1.64794 2.22835 1.53409 3.10122C1.46286 3.6473 0.474256 2.05943 0.804675 1.61887C4.50872 -3.31986 -0.964254 4.49499 0.153694 5.79926C0.387943 6.07255 0.602051 6.23806 0.890949 6.4424C2.62602 7.66965 0.244985 1.14185 2.14585 0.19142C3.92902 -0.700166 0.793836 8.02001 1.42428 6.12868" sodipodi:nodetypes="ccccccc"/><path id="shape19" transform="matrix(0.986003617137179 -0.166723678450093 0.166723678450093 0.986003617137179 116.528306426971 7.91330625728881)" fill="none" stroke="#f47b62" stroke-width="0.5376" stroke-linecap="square" stroke-linejoin="bevel" d="M2.02101 6.24327C2.02101 8.33648 -0.742556 -1.6368 0.193556 0.235426C0.433583 0.715481 2.67417 6.33006 3.04061 5.89033C4.12355 4.5908 -0.0131484 0.278528 1.48767 1.05895" sodipodi:nodetypes="cccc"/><path id="shape20" transform="matrix(0.986003617137179 -0.166723678450093 0.166723678450093 0.986003617137179 124.053659572829 4.48516374302983)" fill="none" stroke="#f47b62" stroke-width="0.5376" stroke-linecap="square" stroke-linejoin="bevel" d="M0.246201 4.78234C-1.30973 4.58785 5.20189 -3.49149 0.56777 1.78626C0.0626364 2.36155 3.50381 1.84487 2.82659 2.20195C2.38758 2.43342 3.94341 0.563197 3.69718 0.994105" sodipodi:nodetypes="cccc"/><path id="shape21" transform="matrix(0.986003617137179 -0.166723678450093 0.166723678450093 0.986003617137179 125.820021331368 5.378132839979)" fill="none" stroke="#f47b62" stroke-width="0.5376" stroke-linecap="square" stroke-linejoin="bevel" d="M2.99767 1.59289C0.791427 0.422914 0.658705 3.68292 0.0329622 5.05956C-0.392101 5.9947 3.43527 1.11073 3.38198 1.22426C-1.18803 10.9604 1.50711 -0.103542 1.38198 0.000733486" sodipodi:nodetypes="cccc"/><path id="shape22" transform="matrix(0.986003617137179 -0.166723678450093 0.166723678450093 0.986003617137179 124.584102274907 12.6943000976454)" fill="none" stroke="#f47b62" stroke-width="0.5376" stroke-linecap="square" stroke-linejoin="bevel" d="M0.982036 1.2428C-2.70096 0.5062 10.9242 -0.313726 5.02126 0.121231C-8.24999 1.09911 14.4446 0.0786666 4.01733 2.1526C2.88143 2.37853 8.0307 4.45593 6.98204 3.96437C5.79258 3.40681 -6.2481 1.41128 4.29184 0.176133C5.60671 0.0220483 6.65772 -0.214495 6.16635 0.583976" sodipodi:nodetypes="cccccc"/><path id="shape23" transform="matrix(0.986003617137179 -0.166723678450093 0.166723678450093 0.986003617137179 124.814493545267 10.1280035782685)" fill="none" stroke="#f47b62" stroke-width="0.5376" stroke-linecap="square" stroke-linejoin="bevel" d="M0.33742 0.187457C-1.36763 -0.448869 3.85862 0.679281 5.54526 1.41683C9.6757 3.22302 3.09261 2.70753 1.65506 1.9437C-1.87329 0.0689505 11.7034 10.7347 3.4982 3.55945C0.779251 1.18176 10.6757 17.0214 2.12565 5.95965C1.22598 4.79568 5.73953 5.93804 5.50605 7.68077" sodipodi:nodetypes="cccccc"/><path id="shape24" transform="matrix(0.986003617137179 -0.166723678450093 0.166723678450093 0.986003617137179 125.144077051538 10.9505958445492)" fill="#531b39" fill-opacity="0.674509803921569" fill-rule="evenodd" stroke-opacity="0" stroke="#000000" stroke-width="0" stroke-linecap="square" stroke-linejoin="bevel" d="M4.78918 11.5785C5.09744 10.5631 -0.16195 8.0332 0.00383998 5.71226C0.60572 -2.71364 6.42165 -1.29152 5.34762 6.53455C8.13293 5.27568 7.92131 9.4404 5.25959 10.8369" sodipodi:nodetypes="cccc"/><path id="shape25" transform="matrix(0.986003617137179 -0.166723678450093 0.166723678450093 0.986003617137179 108.90147703503 7.92525096259226)" fill="none" stroke-opacity="0" stroke="#000000" stroke-width="0" stroke-linecap="square" stroke-linejoin="bevel" d="M1.13753 9.25628C-1.17632 2.31474 17.0618 -4.98841 18.6944 4.60334C20.9667 17.9529 16.7749 2.52434 12.2728 1.9053C7.84993 1.29715 -3.43874 9.17785 1.02577 9.17785" sodipodi:nodetypes="cccc"/><path id="shape08" transform="matrix(0.929364378611868 0.369163618187944 -0.369163618187944 0.929364378611868 100.376189614137 38.4149557808635)" fill="#802655" fill-rule="evenodd" stroke="#f47b62" stroke-width="0.5376" stroke-linecap="square" stroke-linejoin="bevel" d="M0 7.4L2.08235 0L6.98823 2.78824L9.27059 7.07059L4.69412 4.54118L4.54118 10.4941L2.50588 5.78823Z" sodipodi:nodetypes="cccccccc"/>
</svg>
