<?xml version="1.0" standalone="no"?>
<!DOCTYPE svg PUBLIC "-//W3C//DTD SVG 20010904//EN" "http://www.w3.org/TR/2001/REC-SVG-20010904/DTD/svg10.dtd">
<!-- Created using Krita: https://krita.org -->
<svg xmlns="http://www.w3.org/2000/svg" 
    xmlns:xlink="http://www.w3.org/1999/xlink"
    xmlns:krita="http://krita.org/namespaces/svg/krita"
    xmlns:sodipodi="http://sodipodi.sourceforge.net/DTD/sodipodi-0.dtd"
    width="152.16pt"
    height="248.4pt"
    viewBox="0 0 152.16 248.4">
<defs>
  <linearGradient id="gradient0" gradientUnits="objectBoundingBox" x1="0" y1="0" x2="1" y2="1" spreadMethod="pad">
   <stop stop-color="#191a28" offset="0" stop-opacity="1"/>
   <stop stop-color="#6b6a7b" offset="0.402777791023254" stop-opacity="1"/>
   <stop stop-color="#19173b" offset="0.826388895511627" stop-opacity="1"/>
  </linearGradient>
  <radialGradient id="gradient1" gradientUnits="objectBoundingBox" cx="0.133689830144284" cy="-0.553816614587177" fx="0" fy="0" r="1.4142135623731" spreadMethod="pad">
   <stop stop-color="#ffffff" offset="0" stop-opacity="1"/>
   <stop stop-color="#6b6a7b" offset="0.5" stop-opacity="1"/>
   <stop stop-color="#19173b" offset="0.972199976444244" stop-opacity="1"/>
  </radialGradient>
  <linearGradient id="gradient2" gradientUnits="objectBoundingBox" x1="-0.582893347412883" y1="-1.25603864734299" x2="1.27060215793804" y2="1.57487922705313" spreadMethod="pad">
   <stop stop-color="#802655" offset="0.020833333954215" stop-opacity="1"/>
   <stop stop-color="#531b39" offset="0.590277791023254" stop-opacity="1"/>
   <stop stop-color="#19173b" offset="0.972199976444244" stop-opacity="1"/>
  </linearGradient>
  <linearGradient id="gradient3" gradientUnits="objectBoundingBox" x1="0" y1="0" x2="1" y2="1" spreadMethod="pad">
   <stop stop-color="#802655" offset="0.0555555559694767" stop-opacity="1"/>
   <stop stop-color="#7e1c32" offset="0.805555582046509" stop-opacity="1"/>
  </linearGradient>
  <linearGradient id="gradient4" gradientUnits="objectBoundingBox" x1="-1.44284317301529" y1="0.0817103237220405" x2="2.43293807114107" y2="0.961222219250557" spreadMethod="pad">
   <stop stop-color="#bc86a2" offset="0.444444447755814" stop-opacity="1"/>
   <stop stop-color="#8d4deb" offset="1" stop-opacity="1"/>
  </linearGradient>
  <linearGradient id="gradient5" gradientUnits="objectBoundingBox" x1="-1.62948000196381" y1="0.515549335605941" x2="1.44351492317424" y2="0.66505243069866" spreadMethod="pad">
   <stop stop-color="#dceaed" offset="0.326388895511627" stop-opacity="0"/>
   <stop stop-color="#ffffff" offset="0.666666686534882" stop-opacity="0.901960784313726"/>
   <stop stop-color="#645688" offset="0.881944417953491" stop-opacity="1"/>
  </linearGradient>
  <linearGradient id="gradient6" gradientUnits="objectBoundingBox" x1="-0.961870620893588" y1="-0.0574807547044477" x2="1.25423913142855" y2="0.973604458188565" spreadMethod="pad">
   <stop stop-color="#dceaed" offset="0.402799993753433" stop-opacity="0"/>
   <stop stop-color="#645688" offset="0.881944417953491" stop-opacity="1"/>
   <stop stop-color="#ffffff" offset="1" stop-opacity="0.901960784313726"/>
  </linearGradient>
  <linearGradient id="gradient7" gradientUnits="objectBoundingBox" x1="0" y1="0" x2="1" y2="1" spreadMethod="pad">
   <stop stop-color="#645688" offset="0" stop-opacity="1"/>
   <stop stop-color="#dce1ed" offset="0.173600003123283" stop-opacity="1"/>
   <stop stop-color="#645688" offset="1" stop-opacity="1"/>
  </linearGradient>
  <linearGradient id="gradient8" gradientUnits="objectBoundingBox" x1="0" y1="0" x2="1" y2="1" spreadMethod="pad">
   <stop stop-color="#6ec8fa" offset="0" stop-opacity="0"/>
   <stop stop-color="#585982" offset="0.8125" stop-opacity="1"/>
   <stop stop-color="#585982" offset="1" stop-opacity="1"/>
  </linearGradient>
  <linearGradient id="gradient9" gradientUnits="objectBoundingBox" x1="0" y1="0" x2="0.824303151863027" y2="0.998798480294473" spreadMethod="pad">
   <stop stop-color="#dce1ed" offset="0.0694444477558136" stop-opacity="1"/>
   <stop stop-color="#645688" offset="0.902777791023254" stop-opacity="1"/>
   <stop stop-color="#645688" offset="1" stop-opacity="1"/>
  </linearGradient>
  <linearGradient id="gradient10" gradientUnits="objectBoundingBox" x1="0" y1="0" x2="1" y2="1" spreadMethod="pad">
   <stop stop-color="#dceaed" offset="0.5" stop-opacity="0"/>
   <stop stop-color="#645688" offset="0.826399981975555" stop-opacity="1"/>
   <stop stop-color="#ffffff" offset="0.923611104488373" stop-opacity="0.901960784313726"/>
  </linearGradient>
 </defs>
<path id="shape0" transform="matrix(0.469085671118071 0.989406203918232 -0.995076218182374 0.445874523555746 90.9274607837272 55.8637108767152)" fill="#645688" fill-rule="evenodd" stroke-opacity="0" stroke="#000000" stroke-width="0" stroke-linecap="square" stroke-linejoin="bevel" d="M13.2522 0.292985C10.0888 2.09691 7.93713 4.03416 6.79726 6.10475L4.83648 22.5361L4.32667 28.7636C3.49007 30.6773 2.29791 32.659 0.750201 34.7087C-0.797511 36.7583 0.0495473 37.9662 3.29138 38.3322L5.55804 41.9008C4.41295 42.3453 5.06131 42.9544 7.50314 43.7283C9.94497 44.5021 11.5371 45.1374 12.2796 45.6342L17.9188 46.2616L21.7384 45.2342C23.6835 43.127 25.6835 40.9335 27.7384 38.6538C29.7933 36.374 29.8796 33.6681 27.9973 30.5361L27.9659 15.0459L26.9149 2.94397L21.5502 0.00278868C21.4979 -0.0181264 18.7319 0.0786057 13.2522 0.292985Z" sodipodi:nodetypes="cccczcczccczccccc"/><path id="shape01" transform="matrix(1.09044080052276 -0.125053220485188 0.145454393054941 1.07800301031865 62.0407950910874 72.0494137702118)" fill="#802655" fill-rule="evenodd" stroke="#802655" stroke-width="0.5376" stroke-linecap="square" stroke-linejoin="bevel" d="M2.19216 0.936223L0.152941 0.995046L0 9.00289L2.46275 20.1794L4.32941 21.995L6.0902 22.0343L4.34118 14.5009L3.26667 5.46171L3.52941 0.00288958C3.57647 -0.0337117 3.13072 0.277399 2.19216 0.936223Z" sodipodi:nodetypes="cccccccccc"/><path id="shape01" transform="matrix(1.05787714478958 0.193899472475218 -0.193899472475218 1.05787714478958 28.6981264866004 67.7445786073926)" fill="url(#gradient0)" fill-rule="evenodd" stroke-opacity="0" stroke="#000000" stroke-width="0" stroke-linecap="square" stroke-linejoin="bevel" d="M19 11.5294L6.87059 0.294118L0 0L0.294118 26.0588L8.09412 25.7176L18.3176 17.9765Z" sodipodi:nodetypes="ccccccc"/><ellipse id="shape1" transform="matrix(1.05787714478958 0.193899472475218 -0.193899472475218 1.05787714478958 45.421382246997 82.4386152888428)" rx="3.96000000000001" ry="4.14237750340141" cx="3.96000000000001" cy="4.14237750340141" fill="url(#gradient1)" fill-rule="evenodd" stroke-opacity="0" stroke="#000000" stroke-width="0" stroke-linecap="square" stroke-linejoin="bevel"/><path id="shape2" transform="matrix(0.745698244141083 0.775006572603908 -0.775006572603908 0.745698244141083 58.0485994822569 80.3224979631016)" fill="url(#gradient2)" fill-rule="evenodd" stroke-opacity="0" stroke="#000000" stroke-width="0" stroke-linecap="square" stroke-linejoin="bevel" d="M0 6.91765L16.1529 0L22.2824 0.0705882L1.51765 9.74118Z" sodipodi:nodetypes="ccccc"/><path id="shape011" transform="matrix(0.42683662606736 0.987173552560468 -0.987173552560468 0.42683662606736 59.4546714427716 85.944215548639)" fill="#191a28" stroke-opacity="0" stroke="#000000" stroke-width="0" stroke-linecap="square" stroke-linejoin="bevel" d="M0 6.91765L16.1529 0L22.2824 0.0705882L1.51765 9.74118Z" sodipodi:nodetypes="ccccc"/><path id="shape3" transform="matrix(1.05787714478958 0.193899472475218 -0.193899472475218 1.05787714478958 45.4745923357738 90.8226569646114)" fill="#645688" fill-rule="evenodd" stroke-opacity="0" stroke="#000000" stroke-width="0" stroke-linecap="square" stroke-linejoin="bevel" d="M0.2 0.305882L0 4.62353L4.30588 4.72941L4.17647 0Z" sodipodi:nodetypes="ccccc"/><path id="shape4" transform="matrix(1.05787714478958 0.193899472475218 -0.193899472475218 1.05787714478958 35.6219519685568 92.3613256127187)" fill="url(#gradient3)" fill-rule="evenodd" stroke-opacity="0" stroke="#000000" stroke-width="0" stroke-linecap="square" stroke-linejoin="bevel" d="M8.12941 0.541176L0 6.23529L0.235294 64.9412C7.50292 67.9216 13.6625 67.8667 21.4706 64.9882L21.0118 6.74118L12.8471 0Z" sodipodi:nodetypes="ccccccc"/><path id="shape5" transform="matrix(1.05787714478958 0.193899472475218 -0.193899472475218 1.05787714478958 37.9975877034273 96.159651281297)" fill="url(#gradient4)" fill-rule="evenodd" stroke-opacity="0" stroke="#000000" stroke-width="0" stroke-linecap="square" stroke-linejoin="bevel" d="M7.01414 0.877361C3.56323 0.877361 1.3811 7.63532 0.978846 10.3362C0.249238 15.235 -1.54404 58.7689 2.90826 59.4538C5.46138 59.8466 4.19532 48.7483 4.16708 47.2656C3.9376 35.2178 4.9163 24.1981 5.75532 12.2421C5.83807 11.0628 8.6798 -3.77514 5.93179 0.912655" sodipodi:nodetypes="cccccc"/><path id="shape02" transform="matrix(0.680669995763779 -0.732590109184504 0.732590109184504 0.680669995763779 70.2057589124534 130.168630978512)" fill="#645688" fill-rule="evenodd" stroke-opacity="0" stroke="#000000" stroke-width="0" stroke-linecap="square" stroke-linejoin="bevel" d="M3.15348 47.3307C1.6662 47.3307 3.01984 26.2866 4.14172 24.6719C11.9262 13.468 27.48 -14.0651 45.4123 8.8484C49.5127 24.095 42.0182 38.0578 23.8829 49.8248C22.4015 49.6477 -0.127015 44.453 0.000539582 45.3778" sodipodi:nodetypes="ccccc"/><path id="shape012" transform="matrix(0.99999997739271 0 0 0.99999997739271 87.59166371454 93.2070145222993)" fill="#dce1ed" fill-rule="evenodd" stroke-opacity="0" stroke="#000000" stroke-width="0" stroke-linecap="square" stroke-linejoin="bevel" d="M1.85535 0C-0.28116 19.8588 -4.90624 26.8372 18.4083 31.5882C26.2501 31.2899 32.8801 29.8574 39.2012 20.9435C33.2431 3.704 36.1752 1.04289 26.86 2.61412C22.489 3.3514 1.53647 0.973821 1.9777 0.790595" sodipodi:nodetypes="ccccc"/><path id="shape011" transform="matrix(0.904876549784276 0.425674054864632 -0.425674054864632 0.904876549784276 104.675131043673 129.346998390382)" fill="#645688" fill-rule="evenodd" stroke-opacity="0" stroke="#000000" stroke-width="0" stroke-linecap="square" stroke-linejoin="bevel" d="M25.3139 49.6927C25.015 48.796 21.1858 49.2669 20.0786 49.0338C7.30434 46.3445 -9.13628 5.46517 6.17274 2.03383C13.011 0.610279 24.0262 -3.33033 26.7139 6.12795C30.5673 19.6884 40.8335 32.0344 42.8316 38.3279C39.7139 44.7083 41.2765 48.509 36.6786 49.4456C35.4788 49.69 22.1866 50.0274 22.3845 50.1044" sodipodi:nodetypes="cccsccc"/><path id="shape02" transform="matrix(0.960333762149271 0.278853021967119 -0.278853021967119 0.960333762149271 89.996223487036 174.722694326531)" fill="#19173b" fill-rule="evenodd" stroke-opacity="0" stroke="#000000" stroke-width="0" stroke-linecap="square" stroke-linejoin="bevel" d="M38.5529 0.251211L38.6118 25.5806L15.8 26.663L2.41176 26.1453L0 22.0042L2.08235 13.7571L9.74118 8.3218L17.1294 6.59239L16.7294 1.09827C16.1255 0.015917 23.4 -0.266436 38.5529 0.251211Z" sodipodi:nodetypes="cccccccccc"/><path id="shape03" transform="matrix(0.907213469935746 0.420670456776145 -0.420670456776145 0.907213469935746 66.9923931445317 180.320751734)" fill="#19173b" fill-rule="evenodd" stroke-opacity="0" stroke="#000000" stroke-width="0" stroke-linecap="square" stroke-linejoin="bevel" d="M38.5529 0.251211L38.6118 25.5806L15.8 26.663L2.41176 26.1453L0 22.0042L2.08235 13.7571L9.74118 8.3218L17.1294 6.59239L16.7294 1.09827C16.1255 0.015917 23.4 -0.266436 38.5529 0.251211Z" sodipodi:nodetypes="cccccccccc"/><path id="shape0111" transform="matrix(0.942329404877882 0.334686763278033 -0.334686763278033 0.942329404877882 106.814963372669 126.362395799486)" fill="url(#gradient5)" fill-rule="evenodd" stroke-opacity="0" stroke="#000000" stroke-width="0" stroke-linecap="square" stroke-linejoin="bevel" d="M4.63818 19.0136C4.54988 18.9142 5.18694 20.1229 5.22693 20.2165C6.43174 23.0364 21.3757 49.3432 21.1889 49.5535C18.7375 52.3133 12.0489 42.0694 11.0273 40.7524C-7.06119 17.4317 2.26457 -19.4691 3.48246 12.4098C3.68442 17.6961 5.05935 20.7272 7.21127 24.9669" sodipodi:nodetypes="cccccc"/><path id="shape04" transform="matrix(0.927401663395882 -0.374066891692644 0.374066891692644 0.927401663395882 70.5380316171233 121.644015441895)" fill="#dce1ed" fill-rule="evenodd" stroke-opacity="0" stroke="#000000" stroke-width="0" stroke-linecap="square" stroke-linejoin="bevel" d="M3.15348 47.3307C1.6662 47.3307 3.01984 26.2866 4.14172 24.6719C11.9262 13.468 27.48 -14.0651 45.4123 8.8484C49.5127 24.095 42.0182 38.0578 23.8829 49.8248C22.4015 49.6477 -0.127015 44.453 0.000539582 45.3778" sodipodi:nodetypes="ccccc"/><ellipse id="shape013" transform="matrix(0.907213472079679 0.420670457770276 -0.420670457770276 0.907213472079679 87.3526860879236 198.978811555544)" rx="4.20000000000002" ry="4.19999999999999" cx="4.20000000000002" cy="4.19999999999999" fill="#802655" fill-rule="evenodd" stroke="#f47b62" stroke-width="0.96" stroke-linecap="square" stroke-linejoin="bevel"/><ellipse id="shape11" transform="matrix(0.739113989798024 0.673580305567465 -0.673580305567465 0.739113989798024 115.768102654903 191.707547170842)" rx="3.59999999999999" ry="3.71999999999997" cx="3.59999999999999" cy="3.71999999999997" fill="#802655" fill-rule="evenodd" stroke="#f47b62" stroke-width="0.96" stroke-linecap="square" stroke-linejoin="bevel"/><path id="shape012" transform="matrix(0.781869590366285 0.623441886240048 -0.623441886240048 0.781869590366285 96.6395786126674 135.778856120004)" fill="#dce1ed" fill-rule="evenodd" stroke-opacity="0" stroke="#000000" stroke-width="0" stroke-linecap="square" stroke-linejoin="bevel" d="M25.3139 49.6927C25.015 48.796 21.1858 49.2669 20.0786 49.0338C7.30434 46.3445 -9.13628 5.46517 6.17274 2.03383C13.011 0.610279 24.0262 -3.33033 26.7139 6.12795C30.5673 19.6884 40.8335 32.0344 42.8316 38.3279C39.7139 44.7083 41.2765 48.509 36.6786 49.4456C35.4788 49.69 22.1866 50.0274 22.3845 50.1044" sodipodi:nodetypes="cccsccc"/><path id="shape05" transform="matrix(0.999999947050671 0 0 0.999999947050671 90.9047716268377 99.9011872803522)" fill="url(#gradient6)" fill-rule="evenodd" stroke-opacity="0" stroke="#000000" stroke-width="0" stroke-linecap="square" stroke-linejoin="bevel" d="M28.3799 0.270574C30.3144 -0.374267 31.9693 14.0812 29.4505 16.6C19.5111 26.5393 34.6366 39.4044 20.8364 48.7529C20.431 49.0275 20.8787 50.0872 15.3187 60.7882C12.3385 78.6693 17.8086 100.737 0.306949 90.5764C-1.95115 91.028 9.02434 70.4671 8.00107 68.6823C14.1899 35.7127 9.85832 58.1849 17.3305 39.2823C20.6486 33.4756 20.8108 18.6329 26.2034 11.3529C28.5734 8.15345 27.9239 -0.722285 29.4034 0.047045" sodipodi:nodetypes="ccccccccc"/><path id="shape21" transform="matrix(0.999999958981751 0 0 0.999999958981751 62.6352528665747 85.8799144433922)" fill="#645688" fill-rule="evenodd" stroke-opacity="0" stroke="#000000" stroke-width="0" stroke-linecap="square" stroke-linejoin="bevel" d="M1.56471 1.3624C1.57676 1.35034 1.47291 2.23115 1.44706 2.64475C0.936036 10.8211 10.0948 11.1916 8.17647 3.09181C7.26656 -0.750032 2.2512 -0.818122 0 1.82122" sodipodi:nodetypes="cccc"/><path id="shape31" transform="matrix(0.999999958981751 0 0 0.999999958981751 64.3293703246738 89.2776031958761)" fill="#802655" fill-rule="evenodd" stroke="#645688" stroke-width="0.5376" stroke-linecap="square" stroke-linejoin="bevel" d="M0 0L3.02353 5.31765L4.08235 0.788235C3.9098 0.694118 2.54902 0.431373 0 0Z" sodipodi:nodetypes="cccc"/><ellipse id="shape03" transform="matrix(0.999999958981751 0 0 0.999999958981751 81.6164212149125 5.04000904698455)" rx="16.9117814182588" ry="16.5787955821701" cx="16.9117814182588" cy="16.5787955821701" fill="#191a28" fill-rule="evenodd" stroke-opacity="0" stroke="#000000" stroke-width="0" stroke-linecap="square" stroke-linejoin="bevel"/><path id="shape12" transform="matrix(0.999999958981751 0 0 0.999999958981751 81.2046565613184 0.444662754878777)" fill="url(#gradient7)" fill-rule="evenodd" stroke-opacity="0" stroke="#000000" stroke-width="0" stroke-linecap="square" stroke-linejoin="bevel" d="M2.89424 14.4592C2.04677 11.8223 8.08656 12.5543 10.6805 11.8559C21.3822 8.97436 39.4074 30.2711 38.2782 13.8748C37.1861 -1.98356 14.2424 -2.92309 5.64761 4.41791C3.27182 6.44713 1.58348 11.5647 0 8.82757" sodipodi:nodetypes="cccsc"/><path id="shape22" transform="matrix(0.99597387208661 -0.0896435389992571 0.0896435389992571 0.99597387208661 84.6119294089041 21.5088576910533)" fill="#dce1ed" fill-rule="evenodd" stroke-opacity="0" stroke="#000000" stroke-width="0" stroke-linecap="square" stroke-linejoin="bevel" d="M30.1132 1.45611L1.76318 29.4L0 56.2881L3.17836 68.3179L6.06672 69.8766L38.5231 71.0834L47.629 60.0717L52.0253 34.1642L37.1079 1.61952C36.9068 -0.483921 34.5753 -0.538392 30.1132 1.45611Z" sodipodi:nodetypes="cccccccccc"/><ellipse id="shape32" transform="matrix(0.999999958981751 0 0 0.999999958981751 106.079983047978 17.5200085350775)" rx="2.40000000000001" ry="2.88" cx="2.40000000000001" cy="2.88" fill="#7fccdd" fill-rule="evenodd" stroke-opacity="0" stroke="#000000" stroke-width="0" stroke-linecap="square" stroke-linejoin="bevel"/><path id="shape41" transform="matrix(0.999999958981751 0 0 0.999999958981751 85.1458287618237 14.323205368337)" fill="#645688" fill-opacity="0.654901960784314" fill-rule="evenodd" stroke-opacity="0" stroke="#000000" stroke-width="0" stroke-linecap="square" stroke-linejoin="bevel" d="M4.16198 4.23911C5.43954 3.50019 13.1149 2.31667 12.9762 1.92146C11.9094 -1.11952 3.53119 -0.0766638 1.95164 1.79205C-3.85378 8.66023 5.48975 8.75675 1.95164 8.75675" sodipodi:nodetypes="cccc"/><path id="shape51" transform="matrix(0.999999958981751 0 0 0.999999958981751 90.0987722726423 1.80937370915672)" fill="url(#gradient8)" fill-rule="evenodd" stroke-opacity="0" stroke="#000000" stroke-width="0" stroke-linecap="square" stroke-linejoin="bevel" d="M0.706259 10.6297C-3.39352 13.1312 11.4843 8.53722 16.3446 7.79586C16.3625 7.79313 13.702 -8.58492 27.3952 6.14493C34.6814 13.9828 21.8941 21.6111 20.4069 21.8353C15.6223 17.676 32.9519 20.5597 11.5722 12.9826C10.4261 12.4832 1.80446 9.02952 1.35963 10.7597" sodipodi:nodetypes="cssccc"/><path id="shape014" transform="matrix(0.999999914370318 0 0 0.999999914370318 106.674010024612 9.19920540472287)" fill="#6ec8fa" fill-rule="evenodd" stroke-opacity="0" stroke="#000000" stroke-width="0" stroke-linecap="square" stroke-linejoin="bevel" d="M0.883581 9.63366C-4.77183 9.7656 18.4209 -11.529 22.2953 8.7866C25.875 27.5562 18.8529 27.6913 16.9189 16.916C16.7578 16.0189 17.2141 8.13852 16.4953 7.53954C15.0543 6.33867 11.9823 6.84991 10.0718 6.76307C6.82651 6.61556 4.59547 14.1843 2.68358 13.069C1.42147 12.3328 0.438584 7.70049 1.21299 8.93954" sodipodi:nodetypes="csscscc"/><ellipse id="shape6" transform="matrix(0.999999958981751 0 0 0.999999958981751 85.628219180992 16.205498785074)" rx="1.1882352941177" ry="1.23529411764702" cx="1.1882352941177" cy="1.23529411764702" fill="#dbeaf2" fill-opacity="0.8" fill-rule="evenodd" stroke-opacity="0" stroke="#000000" stroke-width="0" stroke-linecap="square" stroke-linejoin="bevel"/><ellipse id="shape7" transform="matrix(0.99597387208661 -0.0896435389992571 0.0896435389992571 0.99597387208661 106.020861007733 43.2289784827911)" rx="10.92" ry="10.8" cx="10.92" cy="10.8" fill="#585982" fill-rule="evenodd" stroke-opacity="0" stroke="#000000" stroke-width="0" stroke-linecap="square" stroke-linejoin="bevel"/><path id="shape8" transform="matrix(0.984701148890468 0.17425144285573 -0.17425144285573 0.984701148890468 91.4728192253756 80.2903842431864)" fill="#191a28" fill-rule="evenodd" stroke-opacity="0" stroke="#000000" stroke-width="0" stroke-linecap="square" stroke-linejoin="bevel" d="M2.85725 0.0907287C-0.836135 7.1534 -0.948867 11.355 2.51905 12.6954L15.92 15.9072L31.174 14.7464L33.187 13.8694L34.7927 3.64176L26.3689 1.29443L12.0856 1.33313C9.95154 0.21252 6.87543 -0.201612 2.85725 0.0907287Z" sodipodi:nodetypes="ccccccccc"/><path id="shape9" transform="matrix(0.956443629718716 0.291916942183921 -0.291916942183921 0.956443629718716 71.2806786206255 79.5120133927488)" fill="none" stroke="#645688" stroke-width="0.5376" stroke-linecap="square" stroke-linejoin="bevel" d="M0.0588235 0C0.0135313 0.0452922 0.0327584 0.0214506 0 0.0705882" sodipodi:nodetypes="cc"/><path id="shape10" transform="matrix(0.999999958981751 0 0 0.999999958981751 61.9948036603407 247.738476538186)" fill="none" stroke="#dbeaf2" stroke-width="0.5376" stroke-linecap="square" stroke-linejoin="bevel" d="M0.303973 0.188507C-0.00352887 0.127007 -0.0185668 -0.00683334 0.00985534 0.000272176" sodipodi:nodetypes="cc"/><path id="shape11" transform="matrix(0.99597387208661 -0.0896435389992571 0.0896435389992571 0.99597387208661 113.389745088715 25.7418969163128)" fill="url(#gradient9)" fill-rule="evenodd" stroke-opacity="0" stroke="#000000" stroke-width="0" stroke-linecap="square" stroke-linejoin="bevel" d="M23.0044 34.2329L21.4588 22.108L15.5453 5.92091L10.8302 0L11.267 7.31189L13.7422 18.2674L7.72787 17.7997L11.5358 20.8647L13.7534 27.2288L12.9246 31.5248L7.23508 40.9909L0.683188 47.2688L0 57.0426L1.01918 60.8463L10.1918 62.4342L13.0142 61.9418L21.7052 45.0284C21.6828 44.9956 22.1159 41.3971 23.0044 34.2329Z" sodipodi:nodetypes="cccccccccccccccccc"/><path id="shape015" transform="matrix(0.820091259574904 0.572232645990423 -0.572232645990423 0.820091259574904 109.773101643266 41.9964308429346)" fill="#dce1ed" fill-rule="evenodd" stroke-opacity="0" stroke="#000000" stroke-width="0" stroke-linecap="square" stroke-linejoin="bevel" d="M14.0941 0L5.75686 1.79608L0.627451 13.851L0 37.3098L2.63529 40.4471L0.52549 42.8235L3.78824 46.8235L12.3843 49.0118L22.8314 46.502L25.6314 38.8471L27.1922 17.8275L22.0627 2.10196C21.9111 1.91895 19.2549 1.2183 14.0941 0Z" sodipodi:nodetypes="ccccccccccccc"/><path id="shape021" transform="matrix(0.303888491899662 0.952707549398948 -0.952707549398948 0.303888491899662 90.2043341754489 67.2982235738302)" fill="#dce1ed" fill-rule="evenodd" stroke-opacity="0" stroke="#000000" stroke-width="0" stroke-linecap="square" stroke-linejoin="bevel" d="M13.2522 0.292985C10.0888 2.09691 7.93713 4.03416 6.79726 6.10475L4.83648 22.5361L4.32667 28.7636C3.49007 30.6773 2.29791 32.659 0.750201 34.7087C-0.797511 36.7583 0.0495473 37.9662 3.29138 38.3322L5.55804 41.9008C4.41295 42.3453 5.06131 42.9544 7.50314 43.7283C9.94497 44.5021 11.5371 45.1374 12.2796 45.6342L17.9188 46.2616L21.7384 45.2342C23.6835 43.127 25.6835 40.9335 27.7384 38.6538C29.7933 36.374 29.8796 33.6681 27.9973 30.5361L27.9659 15.0459L26.9149 2.94397L21.5502 0.00278868C21.4979 -0.0181264 18.7319 0.0786057 13.2522 0.292985Z" sodipodi:nodetypes="cccczcczccczccccc"/><path id="shape12" transform="matrix(0.820091277122873 0.572232658234816 -0.572232658234816 0.820091277122873 118.84877249883 53.9363463868124)" fill="#80cadc" fill-rule="evenodd" stroke="#802655" stroke-width="0.5376" stroke-linecap="square" stroke-linejoin="bevel" d="M7.6 4.8C4.43137 1.77255 2.64314 0.172549 2.23529 0L0 4.76471L4.51765 10.0235C4.70588 9.80392 5.73333 8.06274 7.6 4.8Z" sodipodi:nodetypes="ccccc"/><path id="shape13" transform="matrix(0.765492555524565 0.643444687133234 -0.643444687133234 0.765492555524565 101.161393094092 34.9134263826328)" fill="url(#gradient10)" fill-rule="evenodd" stroke-opacity="0" stroke="#000000" stroke-width="0" stroke-linecap="square" stroke-linejoin="bevel" d="M29.5537 4.8C28.1497 1.84314 26.8556 0.243137 25.6713 0L29.0948 12.9412L29.5184 27.1764L28.7889 36.2L25.6713 41.5529L23.4125 46.7882L25.4444 47.9096L20.1585 58.1314L9.3775 67.3011L0 74.246L9.07394 78.8063L17.681 71.6944L28.6297 57.6963L30.8618 49.4727L36.836 40.8706L38.236 14.4235C35.0674 15.8588 32.1733 12.651 29.5537 4.8Z" sodipodi:nodetypes="cccccccccccccccccc"/><path id="shape031" transform="matrix(0.820091283564304 0.572232662729435 -0.572232662729435 0.820091283564304 101.125420002578 55.240949029191)" fill="#802655" fill-rule="evenodd" stroke-opacity="0" stroke="#000000" stroke-width="0" stroke-linecap="square" stroke-linejoin="bevel" d="M26.5059 0L16.3765 5.55294L3.37647 4.23529L0.835294 1.4L0 5.65882L4.8 8.88235L18.4 9.76471L26.4235 5.43529C26.4314 5.40392 26.4588 3.59216 26.5059 0Z" sodipodi:nodetypes="ccccccccc"/><path id="shape041" transform="matrix(0.820091260496801 0.572232646633693 -0.572232646633693 0.820091260496801 94.6665745125392 64.6063615273987)" fill="#802655" fill-rule="evenodd" stroke-opacity="0" stroke="#000000" stroke-width="0" stroke-linecap="square" stroke-linejoin="bevel" d="M26.5059 0L16.3765 5.55294L3.37647 4.23529L0.835294 1.4L0 5.65882L4.8 8.88235L18.4 9.76471L26.4235 5.43529C26.4314 5.40392 26.4588 3.59216 26.5059 0Z" sodipodi:nodetypes="ccccccccc"/><path id="shape14" transform="matrix(0.956443629718716 0.291916942183921 -0.291916942183921 0.956443629718716 71.638594304851 76.9127314745278)" fill="#80cadc" fill-rule="evenodd" stroke="#802655" stroke-width="0.5376" stroke-linecap="square" stroke-linejoin="bevel" d="M20.3059 0L11.5412 8.36471L0.258824 15.9294L0 19.1647L13.3294 11.5059L25.7529 0.447059C25.8549 0.4 24.0392 0.25098 20.3059 0Z" sodipodi:nodetypes="ccccccc"/><path id="shape15" transform="matrix(0.956443629718716 0.291916942183921 -0.291916942183921 0.956443629718716 53.384720621374 82.9981955010153)" fill="#802655" fill-rule="evenodd" stroke="#802655" stroke-width="0.5376" stroke-linecap="square" stroke-linejoin="bevel" d="M2.70588 0C1.01176 1.77255 0.109804 3.27059 0 4.49412L1.57647 5.45882C1.72549 5.33333 2.10196 3.51373 2.70588 0Z" sodipodi:nodetypes="cccc"/><path id="shape051" transform="matrix(0.956443635551246 0.291916943964074 -0.291916943964074 0.956443635551246 53.4445087274647 88.3142730012731)" fill="#802655" fill-rule="evenodd" stroke="#802655" stroke-width="0.5376" stroke-linecap="square" stroke-linejoin="bevel" d="M2.70588 0C1.01176 1.77255 0.109804 3.27059 0 4.49412L1.57647 5.45882C1.72549 5.33333 2.10196 3.51373 2.70588 0Z" sodipodi:nodetypes="cccc"/><path id="shape06" transform="matrix(0.956443619462878 0.291916939053729 -0.291916939053729 0.956443619462878 54.4773779526225 93.5050120328407)" fill="#802655" fill-rule="evenodd" stroke="#802655" stroke-width="0.5376" stroke-linecap="square" stroke-linejoin="bevel" d="M2.70588 0C1.01176 1.77255 0.109804 3.27059 0 4.49412L1.57647 5.45882C1.72549 5.33333 2.10196 3.51373 2.70588 0Z" sodipodi:nodetypes="cccc"/><path id="shape07" transform="matrix(0.700156036293301 0.713989790795225 -0.713989790795225 0.700156036293301 56.7939935573118 77.80456597084)" fill="#802655" fill-rule="evenodd" stroke="#802655" stroke-width="0.5376" stroke-linecap="square" stroke-linejoin="bevel" d="M4.42456 0C1.6544 0.665237 0.179548 1.22745 0 1.68664L2.57779 2.04869C2.82146 2.0016 3.43705 1.3187 4.42456 0Z" sodipodi:nodetypes="cccc"/><path id="shape16" transform="matrix(0.956443629718716 0.291916942183921 -0.291916942183921 0.956443629718716 62.398415677058 79.0113573025151)" fill="#802655" fill-rule="evenodd" stroke="#802655" stroke-width="0.5376" stroke-linecap="square" stroke-linejoin="bevel" d="M2.19216 0.936223L0.152941 0.995046L0 9.00289L2.46275 20.1794L4.32941 21.995L6.0902 22.0343L4.34118 14.5009L3.26667 5.46171L3.52941 0.00288958C3.57647 -0.0337117 3.13072 0.277399 2.19216 0.936223Z" sodipodi:nodetypes="cccccccccc"/><path id="shape17" transform="matrix(0.999999958981751 0 0 0.999999958981751 108.351068624309 14.7451066881154)" fill="none" stroke="#f47b62" stroke-width="0.5376" stroke-linecap="square" stroke-linejoin="bevel" d="M1.06068 0C-0.947821 0 6.26654 2.68615 5.19401 4.38431C3.37674 7.26166 0.119619 2.89085 0.503816 0.713725C0.989409 -2.03797 1.20856 7.20818 5.20186 4.07059C6.50895 3.04358 3.30154 6.4734 1.97048 3.85882C-1.42855 -2.81786 0.39975 2.84413 3.17833 4.11765C4.31252 4.63749 5.15187 4.26291 6.00186 3.4902C7.52127 2.10891 -0.136574 0.0453627 0.0018555 2.09412C0.127103 3.94778 5.69578 6.27403 5.00578 4.54902" sodipodi:nodetypes="ccccccccc"/><path id="shape18" transform="matrix(0.999999958981751 0 0 0.999999958981751 118.834522701831 9.26741302501705)" fill="none" stroke="#f47b62" stroke-width="0.5376" stroke-linecap="square" stroke-linejoin="bevel" d="M2.09095 0.199263C1.8684 0.86692 1.64794 2.22835 1.53409 3.10122C1.46286 3.6473 0.474256 2.05943 0.804675 1.61887C4.50872 -3.31986 -0.964254 4.49499 0.153694 5.79926C0.387943 6.07255 0.602051 6.23806 0.890949 6.4424C2.62602 7.66965 0.244985 1.14185 2.14585 0.19142C3.92902 -0.700166 0.793836 8.02001 1.42428 6.12868" sodipodi:nodetypes="ccccccc"/><path id="shape19" transform="matrix(0.999999958981751 0 0 0.999999958981751 114.151525302368 9.89007346689971)" fill="none" stroke="#f47b62" stroke-width="0.5376" stroke-linecap="square" stroke-linejoin="bevel" d="M2.02101 6.24327C2.02101 8.33648 -0.742556 -1.6368 0.193556 0.235426C0.433583 0.715481 2.67417 6.33006 3.04061 5.89033C4.12355 4.5908 -0.0131484 0.278528 1.48767 1.05895" sodipodi:nodetypes="cccc"/><path id="shape20" transform="matrix(0.999999958981751 0 0 0.999999958981751 123.322408370971 12.0804143923416)" fill="none" stroke="#f47b62" stroke-width="0.5376" stroke-linecap="square" stroke-linejoin="bevel" d="M0.246201 4.78234C-1.30973 4.58785 5.20189 -3.49149 0.56777 1.78626C0.0626364 2.36155 3.50381 1.84487 2.82659 2.20195C2.38758 2.43342 3.94341 0.563197 3.69718 0.994105" sodipodi:nodetypes="cccc"/><path id="shape21" transform="matrix(0.999999958981751 0 0 0.999999958981751 124.021922056876 11.4816282384968)" fill="none" stroke="#f47b62" stroke-width="0.5376" stroke-linecap="square" stroke-linejoin="bevel" d="M2.99767 1.59289C0.791427 0.422914 0.658705 3.68292 0.0329622 5.05956C-0.392101 5.9947 3.43527 1.11073 3.38198 1.22426C-1.18803 10.9604 1.50711 -0.103542 1.38198 0.000733486" sodipodi:nodetypes="cccc"/><path id="shape22" transform="matrix(0.999999958981751 0 0 0.999999958981751 122.476769349277 20.2630902256994)" fill="none" stroke="#f47b62" stroke-width="0.5376" stroke-linecap="square" stroke-linejoin="bevel" d="M0.982036 1.2428C-2.70096 0.5062 10.9242 -0.313726 5.02126 0.121231C-8.24999 1.09911 14.4446 0.0786666 4.01733 2.1526C2.88143 2.37853 8.0307 4.45593 6.98204 3.96437C5.79258 3.40681 -6.2481 1.41128 4.29184 0.176133C5.60671 0.0220483 6.65772 -0.214495 6.16635 0.583976" sodipodi:nodetypes="cccccc"/><path id="shape23" transform="matrix(0.999999958981751 0 0 0.999999958981751 123.654719258487 26.7685519961882)" fill="none" stroke="#f47b62" stroke-width="0.5376" stroke-linecap="square" stroke-linejoin="bevel" d="M0.33742 0.125573C-1.36763 -0.300687 3.85862 0.455035 5.54526 0.949103C9.6757 2.15903 3.09261 1.81371 1.65506 1.30204C-1.87329 0.0461886 11.7034 7.19097 3.4982 2.3844C0.779251 0.791637 10.6757 11.4022 2.12565 3.99224C1.22598 3.21252 5.73953 3.97777 5.50605 5.14518" sodipodi:nodetypes="cccccc"/><path id="shape24" transform="matrix(0.999999958981751 0 0 0.999999958981751 125.113707757444 30.0235374339692)" fill="none" stroke="#f47b62" stroke-width="0.5376" stroke-linecap="square" stroke-linejoin="bevel" d="M0 0C0 2.27338 1.49431 4.36184 2.81569 6.21176" sodipodi:nodetypes="cc"/><path id="shape25" transform="matrix(0.999999958981751 0 0 0.999999958981751 123.941516155517 23.9789005853852)" fill="#531b39" fill-opacity="0.674509803921569" fill-rule="evenodd" stroke-opacity="0" stroke="#000000" stroke-width="0" stroke-linecap="square" stroke-linejoin="bevel" d="M5.02005 14.6305C5.35724 13.4591 -0.176984 7.74894 0.00436282 5.07148C0.662722 -4.64875 6.55173 1.04301 5.37691 10.0713C5.26685 10.917 4.57442 14.7849 5.02789 14.3717" sodipodi:nodetypes="cccc"/><path id="shape26" transform="matrix(0.999999958981751 0 0 0.999999958981751 107.808756949404 12.9461252603598)" fill="none" stroke-opacity="0" stroke="#000000" stroke-width="0" stroke-linecap="square" stroke-linejoin="bevel" d="M1.13753 9.25628C-1.17632 2.31474 17.0618 -4.98841 18.6944 4.60334C20.9667 17.9529 16.7749 2.52434 12.2728 1.9053C7.84993 1.29715 -3.43874 9.17785 1.02577 9.17785" sodipodi:nodetypes="cccc"/><path id="shape27" transform="matrix(0.99597387208661 -0.0896435389992571 0.0896435389992571 0.99597387208661 90.9894552261127 49.4039208685605)" fill="#802655" fill-rule="evenodd" stroke="#f47b62" stroke-width="0.5376" stroke-linecap="square" stroke-linejoin="bevel" d="M0 7.4L2.08235 0L6.98823 2.78824L9.27059 7.07059L4.69412 4.54118L4.54118 10.4941L2.50588 5.78823Z" sodipodi:nodetypes="cccccccc"/>
</svg>
