<?xml version="1.0" standalone="no"?>
<!DOCTYPE svg PUBLIC "-//W3C//DTD SVG 20010904//EN" "http://www.w3.org/TR/2001/REC-SVG-20010904/DTD/svg10.dtd">
<!-- Created using Krita: https://krita.org -->
<svg xmlns="http://www.w3.org/2000/svg" 
    xmlns:xlink="http://www.w3.org/1999/xlink"
    xmlns:krita="http://krita.org/namespaces/svg/krita"
    xmlns:sodipodi="http://sodipodi.sourceforge.net/DTD/sodipodi-0.dtd"
    width="595.2pt"
    height="470.64pt"
    viewBox="0 0 595.2 470.64">
<defs>
  <radialGradient id="gradient0" gradientUnits="objectBoundingBox" cx="0" cy="0" fx="0" fy="0" r="1.4142135623731" spreadMethod="repeat">
   <stop stop-color="#191a28" offset="0" stop-opacity="1"/>
   <stop stop-color="#19173c" offset="1" stop-opacity="1"/>
  </radialGradient>
 </defs>
<rect id="shape0" transform="matrix(0.999999897454381 0 0 0.999999897454381 -2.94164679809931e-13 -0.0563967003760168)" fill="url(#gradient0)" fill-rule="evenodd" stroke-opacity="0" stroke="#000000" stroke-width="0" stroke-linecap="square" stroke-linejoin="bevel" width="595.2" height="470.64"/><path id="shape1" transform="matrix(0.999999897454381 0 0 0.999999897454381 51.7508550034084 36.9451326716343)" fill="none" stroke="#2c2a54" stroke-width="9.0432" stroke-linecap="square" stroke-linejoin="bevel" d="M9.42243 0.933196C12.6711 -1.23259 0.486702 0.115044 0.0186257 7.69787C-0.807948 21.0884 26.2218 11.2068 12.4256 1.7219C6.05245 -2.65963 -2.31485 10.4531 5.66091 13.5828C9.77421 15.1969 18.5165 13.7189 16.3995 7.48553C9.71574 -12.1943 13.9923 18.6014 14.8524 9.42696C15.0525 7.29228 12.872 3.20398 10.2718 3.42066C2.19975 4.09333 13.0969 14.2959 12.5166 6.63615C12.4102 5.23212 11.7341 3.53477 10.4235 2.81396C2.79739 -1.38039 22.5614 16.9711 15.0041 2.3286C14.4179 1.19291 13.3308 0.256247 12.0009 0.174825C10.4755 0.0814324 8.82511 2.05268 8.17871 3.29932C7.20205 5.18287 7.57542 5.65411 8.90674 7.15185" sodipodi:nodetypes="ccccccccccccc"/><path id="shape2" transform="matrix(0.999999897454381 0 0 0.999999897454381 534.631452458879 424.130025909117)" fill="none" stroke="#2c2a54" stroke-width="9.0432" stroke-linecap="square" stroke-linejoin="bevel" d="M4.5283 11.6507C3.70542 8.35919 11.692 11.7805 14.5691 9.98231C16.8312 8.56852 15.7615 3.28357 14.0838 1.85256C11.1105 -0.683465 7.81404 -0.267857 4.46764 1.03352C1.18069 2.31178 -1.23412 5.5211 0.675777 9.01159C2.40372 12.1696 5.1449 13.052 8.53251 12.8945C28.0375 11.9872 -7.59941 -5.69319 4.5283 9.16327C14.2158 21.0304 11.606 -7.78284 4.89232 5.64442C4.57121 6.28664 8.67206 8.74032 9.19987 9.04193" sodipodi:nodetypes="ccccccccc"/><path id="shape3" transform="matrix(0.999999897454381 0 0 0.999999897454381 410.994953638686 100.964889636529)" fill="none" stroke="#2c2a54" stroke-width="9.0432" stroke-linecap="square" stroke-linejoin="bevel" d="M0 1.10202C2.04989 -1.97281 5.01825 2.49164 1.3954 1.28403" sodipodi:nodetypes="cc"/><path id="shape4" transform="matrix(0.999999897454381 0 0 0.999999897454381 139.608497599629 167.082432184625)" fill="none" stroke="#2c2a54" stroke-width="9.0432" stroke-linecap="square" stroke-linejoin="bevel" d="M9.89992 2.81321C2.75683 2.81321 0.704627 9.70525 0.0410875 16.0089C-0.918446 25.1244 15.1969 26.1733 20.2744 20.6198C23.8614 16.6965 24.0462 9.44549 21.2452 5.08833C9.10399 -13.798 -9.0781 26.522 14.9355 19.0423C22.3345 16.7377 16.1216 2.95096 7.50346 8.12181C2.92809 10.867 12.6322 16.8144 14.9962 13.0057C16.085 11.2515 12.4357 8.38667 12.084 15.0685" sodipodi:nodetypes="cccccccc"/><path id="shape5" transform="matrix(0.999999897454381 0 0 0.999999897454381 427.315111076178 267.140444186448)" fill="none" stroke="#2c2a54" stroke-width="9.0432" stroke-linecap="square" stroke-linejoin="bevel" d="M0 2.07158C0.717359 2.3107 6.80934 -3.21301 2.76047 2.86029" sodipodi:nodetypes="cc"/><path id="shape6" transform="matrix(0.999999897454381 0 0 0.999999897454381 84.5859795835266 365.105104770827)" fill="none" stroke="#2c2a54" stroke-width="9.0432" stroke-linecap="square" stroke-linejoin="bevel" d="M15.0823 1.02681C8.50404 -1.16593 -0.258143 -0.542153 0.00582532 9.88459C0.362848 23.987 24.9551 33.8301 27.0645 16.1639C29.6766 -5.71241 -4.58652 1.71434 3.09998 15.5875C5.62627 20.1472 13.1238 21.3817 17.5697 19.5917C22.9341 17.4321 24.8332 13.0956 21.5436 7.76115C18.6105 3.00474 8.13884 7.39426 8.65126 12.372C8.86196 14.4188 11.0063 15.4343 12.8678 15.6179C14.8829 15.8166 17.2437 15.556 18.9955 14.4348C26.3366 9.73652 0.476503 7.77954 15.7496 13.8888" sodipodi:nodetypes="cccccccccc"/><path id="shape7" transform="matrix(0.999999897454381 0 0 0.999999897454381 427.96554987136 112.502095767446)" fill="none" stroke="#2c2a54" stroke-width="9.0432" stroke-linecap="square" stroke-linejoin="bevel" d="M0.0472631 0C-0.206133 0 0.653473 0.741887 0.411282 0.667367" sodipodi:nodetypes="cc"/><path id="shape8" transform="matrix(0.999999897454381 0 0 0.999999897454381 435.5661943903 100.792837829021)" fill="none" stroke="#2c2a54" stroke-width="9.0432" stroke-linecap="square" stroke-linejoin="bevel" d="M0 0C0.455023 0 1.30994 0.419579 1.09206 0.819041" sodipodi:nodetypes="cc"/><path id="shape9" transform="matrix(0.999999897454381 0 0 0.999999897454381 409.538880112663 119.743145247582)" fill="none" stroke="#4a496d" stroke-width="5.1816" stroke-linecap="square" stroke-linejoin="bevel" d="M0 0.00898329C0.669629 -0.124942 2.41301 1.28817 1.82009 0.949364" sodipodi:nodetypes="cc"/><path id="shape10" transform="matrix(0.999999897454381 0 0 0.999999897454381 395.263237058052 108.619233031388)" fill="none" stroke="#4a496d" stroke-width="5.1816" stroke-linecap="square" stroke-linejoin="bevel" d="M2.3237 0C1.39911 0 -0.693993 1.82009 0.230599 1.82009" sodipodi:nodetypes="cc"/><path id="shape11" transform="matrix(0.999999897454381 0 0 0.999999897454381 464.240027760569 85.989423647801)" fill="none" stroke="#4a496d" stroke-width="5.1816" stroke-linecap="square" stroke-linejoin="bevel" d="M0.932995 0C1.59328 0 -0.222273 1.14637 0.0229491 1.75942" sodipodi:nodetypes="cc"/><path id="shape12" transform="matrix(0.999999897454381 0 0 0.999999897454381 443.142030922038 117.123440548053)" fill="none" stroke="#4a496d" stroke-width="5.1816" stroke-linecap="square" stroke-linejoin="bevel" d="M6.43887 1.56697C5.12326 6.82944 -1.25587 5.78587 0.220225 1.77931C0.801903 0.200472 4.00552 -0.303548 5.25581 0.171564C10.6293 2.21349 5.27749 8.41684 1.19094 5.29816C0.328449 4.63994 0.867617 3.13459 1.5853 2.62869C6.76078 -1.0196 5.02998 4.50495 5.40749 4.63079" sodipodi:nodetypes="cccccc"/><path id="shape13" transform="matrix(0.999999897454381 0 0 0.999999897454381 388.183135064345 128.518904553683)" fill="none" stroke="#4a496d" stroke-width="5.1816" stroke-linecap="square" stroke-linejoin="bevel" d="M0 0C8.20187 2.73396 4.67184 2.3053 3.85253 2.76047" sodipodi:nodetypes="cc"/><path id="shape14" transform="matrix(0.999999897454381 0 0 0.999999897454381 379.932051750224 116.384958503503)" fill="none" stroke="#4a496d" stroke-width="5.1816" stroke-linecap="square" stroke-linejoin="bevel" d="M0.940381 0C1.25966 0 0.314933 0.234498 0 0.182009" sodipodi:nodetypes="cc"/><path id="shape15" transform="matrix(0.999999897454381 0 0 0.999999897454381 399.953827522305 96.6066264417089)" fill="none" stroke="#4a496d" stroke-width="5.1816" stroke-linecap="square" stroke-linejoin="bevel" d="M0.241915 0.0606697C0.220071 0.0679511 -0.378865 0 0.393589 0" sodipodi:nodetypes="cc"/><path id="shape16" transform="matrix(0.999999897454381 0 0 0.999999897454381 142.106709166689 102.00623243404)" fill="none" stroke="#4a496d" stroke-width="5.1816" stroke-linecap="square" stroke-linejoin="bevel" d="M0 0C0.141354 0.141354 2.38255 -0.0299983 3.06382 0.151674" sodipodi:nodetypes="cc"/><path id="shape17" transform="matrix(0.999999897454381 0 0 0.999999897454381 28.3999959725012 45.6743878960772)" fill="none" stroke="#4a496d" stroke-width="5.1816" stroke-linecap="square" stroke-linejoin="bevel" d="M0.13298 0C-0.518447 0.48857 1.45028 1.45201 1.16437 2.21445" sodipodi:nodetypes="cc"/><path id="shape18" transform="matrix(0.999999897454381 0 0 0.999999897454381 122.956199767232 22.4306247976806)" fill="none" stroke="#4a496d" stroke-width="5.1816" stroke-linecap="square" stroke-linejoin="bevel" d="M0.100213 0.492614C-0.389027 0.492614 1.04854 -0.161108 1.49562 0.0375912" sodipodi:nodetypes="cc"/><path id="shape19" transform="matrix(0.999999897454381 0 0 0.999999897454381 147.504047869578 178.48644609531)" fill="none" stroke="#2c2b60" stroke-width="5.1816" stroke-linecap="square" stroke-linejoin="bevel" d="M0.578631 0.0849861C-2.76007 -1.02792 9.7571 9.18593 2.52006 7.5777" sodipodi:nodetypes="cc"/><path id="shape20" transform="matrix(0.999999897454381 0 0 0.999999897454381 93.8136038869692 366.465586597722)" fill="none" stroke="#2c2b60" stroke-width="5.1816" stroke-linecap="square" stroke-linejoin="bevel" d="M5.79396 0C4.53152 2.27239 0.991999 4.47395 6.0063 8.91845C18.4108 19.9133 3.88247 14.6252 0 20.1424" sodipodi:nodetypes="ccc"/><path id="shape21" transform="matrix(0.999999897454381 0 0 0.999999897454381 429.446095217595 270.000715498787)" fill="none" stroke="#4a496d" stroke-width="5.1816" stroke-linecap="square" stroke-linejoin="bevel" d="M0.629489 0C-0.30391 0.777832 -0.110178 0.304569 0.629489 0" sodipodi:nodetypes="cc"/><path id="shape22" transform="matrix(0.999999897454381 0 0 0.999999897454381 540.848517862745 429.683445519162)" fill="none" stroke="#2c2b60" stroke-width="5.1816" stroke-linecap="square" stroke-linejoin="bevel" d="M2.37611 0C-0.759468 1.04519 -0.256737 6.08927 0.859369 8.43309" sodipodi:nodetypes="cc"/><path id="shape23" transform="matrix(0.999999897454381 0 0 0.999999897454381 541.495543408376 438.116538024038)" fill="none" stroke="#2c2b60" stroke-width="5.1816" stroke-linecap="square" stroke-linejoin="bevel" d="M0 0C0.558371 1.25633 1.72414 3.01724 0 0" sodipodi:nodetypes="cc"/><path id="shape24" transform="matrix(0.999999897454381 0 0 0.999999897454381 266.434036150431 257.824524805072)" fill="none" stroke="#2c2a54" stroke-width="5.1816" stroke-linecap="square" stroke-linejoin="bevel" d="M20.4913 7.0496C-1.88398 7.0496 2.24117 53.6037 32.6556 41.1763C53.7303 32.5652 43.029 -1.57856 19.6723 7.50463C-1.48721 15.7333 14.0357 50.0704 37.0845 33.1679C47.2906 25.6834 39.0575 -2.20671 23.8585 6.23056C-18.2707 29.6173 43.7222 45.7945 36.2958 18.6982C33.4494 8.3128 19.7429 8.66567 14.758 17.3331C8.70333 27.8607 24.9532 40.5701 32.1399 29.6491C37.6913 21.2131 26.4019 4.06154 18.7016 14.512C11.8123 23.8618 22.0894 38.9143 31.7152 28.83C37.2353 23.0471 33.4173 11.4729 25.0719 11.8122C-2.37665 12.928 44.6364 48.8122 33.0196 22.3687C27.0129 8.6956 16.7395 25.616 27.0133 30.2558C33.4356 33.1562 31.6178 18.7945 23.3125 18.4555C18.9567 18.2777 18.8995 25.0888 20.3093 27.7987C21.7613 30.5895 22.497 31.7834 25.3146 32.8949C44.7065 40.5449 21.8174 -10.2414 16.5478 26.6459C15.5219 33.8273 18.3428 37.7836 25.7696 37.2935C47.3497 35.8694 32.0712 -1.24426 22.2811 6.77659C-1.99117 26.6623 31.5126 44.3712 41.9987 24.6742C49.6837 10.2389 19.5728 3.45657 10.7842 12.4795C-2.53697 26.1559 21.408 41.022 34.5364 32.7129C52.946 21.0613 35.0884 -4.47906 16.4871 0.679279C-3.21406 6.14263 12.8386 47.5752 33.687 31.2265C56.3469 13.4572 13.9377 -10.911 4.83854 17.9398C-2.90054 42.4784 34.997 38.2373 37.3878 20.3059C39.7768 2.38884 10.9338 -0.505395 6.59796 16.9388C1.87991 35.9207 35.5885 35.0183 39.39 18.3342C44.0692 -2.20262 13.3091 0.563934 4.47452 9.6584C-12.8861 27.5296 25.0584 42.2541 36.8115 21.9744C46.0623 6.01211 7.5967 -8.94168 2.92744 15.2097C-0.77161 34.3427 25.7856 37.1825 35.2341 25.3719C47.4351 10.1206 16.4237 -4.88805 16.1534 17.2725C16.0997 21.6791 17.1455 24.4092 20.552 27.1616C23.7273 29.7273 28.0279 27.7428 30.8355 25.9786C33.9463 24.0238 35.1322 12.4905 32.5343 15.0883C29.9369 17.6857 32.7838 27.5124 26.1639 24.6438C25.0558 24.1636 23.4881 23.1247 23.0698 21.9744C21.7424 18.3242 41.3825 26.5563 25.5876 27.101C10.773 27.6118 42.2733 17.763 23.9798 28.739" sodipodi:nodetypes="cccccccccccccccccccccccccccccccccccccccc"/><path id="shape25" transform="matrix(0.999999897454381 0 0 0.999999897454381 283.952538493297 292.205836770618)" fill="none" stroke="#2c2a54" stroke-width="5.1816" stroke-linecap="square" stroke-linejoin="bevel" d="M2.24478 0C0.29217 0.325435 6.5044 6.62959 11.6183 4.27722C18.2431 1.22977 0.0352977 0.246315 0 0.0910046" sodipodi:nodetypes="ccc"/><path id="shape26" transform="matrix(0.999999897454381 0 0 0.999999897454381 555.405655553135 37.8610713336375)" fill="none" stroke="#2c2a54" stroke-width="5.1816" stroke-linecap="square" stroke-linejoin="bevel" d="M10.1151 0.199264C13.0477 0.199264 5.97209 4.79693 5.5042 7.69196C4.85845 11.6876 8.0692 16.5212 11.9655 17.7935C27.2653 22.7893 23.9297 -11.8169 5.17052 4.32479C3.27536 5.95551 0.349589 8.63647 0.225934 11.3321C-0.342228 23.7181 20.0223 20.4 23.4624 11.4838C27.9407 -0.12313 4.62672 0.197945 0.589952 10.6344C-3.0475 20.0386 11.1102 21.3312 16.4248 20.4023C32.7518 17.5483 16.7661 -7.14785 5.62554 7.75263C0.848396 14.1421 10.0477 24.6454 16.9101 20.3113C25.7135 14.7512 13.0546 1.58453 10.2061 7.2066C8.20005 11.1659 8.70981 18.8754 14.726 18.9462C25.9517 19.0783 14.6247 1.33236 12.3599 9.96708C11.8345 11.9702 13.7017 22.0471 17.2135 16.5194C19.3579 13.1439 16.4468 3.24207 14.453 10.3311C12.0576 18.848 19.6366 18.6869 22.6131 12.0602C25.2847 6.11205 15.8283 8.79796 20.1863 12.6972" sodipodi:nodetypes="ccccccccccccccccc"/><path id="shape27" transform="matrix(0.999999897454381 0 0 0.999999897454381 555.927678801739 39.244151731951)" fill="none" stroke="#3a2a54" stroke-width="5.1816" stroke-linecap="square" stroke-linejoin="bevel" d="M16.2668 8.25031C14.38 8.25031 12.8867 6.41773 10.7458 7.94696C0.0836672 15.5628 22.0959 23.0557 20.5743 13.0129C20.1379 10.1325 15.11 7.92142 13.4456 9.91872C-0.483728 26.6339 38.874 8.31858 10.9582 5.21682C3.1499 4.34924 -0.373112 16.889 10.8065 17.4114C23.637 18.011 19.7757 -2.14296 7.68199 2.82036C-4.97496 8.01483 3.28639 19.8885 14.4163 15.9554C30.8934 10.1326 9.21855 -8.63868 1.52401 4.67079C-8.32447 21.706 33.223 17.9645 21.7574 6.0662C10.4442 -5.67384 -2.567 14.9331 11.4738 17.5934C17.0647 18.6528 25.6446 14.2649 24.0021 7.52227C22.3257 0.640034 12.8855 -0.664044 8.07634 3.06304C-3.33965 11.9104 16.3179 14.588 16.5094 11.5871C16.7484 7.844 12.2205 1.42502 8.44036 4.70113C1.06379 11.0942 6.67143 14.8113 12.8389 17.3811" sodipodi:nodetypes="cccccccccccccccc"/><path id="shape28" transform="matrix(0.999999897454381 0 0 0.999999897454381 281.586419013511 95.5752410274435)" fill="none" stroke="#3a2a54" stroke-width="5.1816" stroke-linecap="square" stroke-linejoin="bevel" d="M0.637032 0C-0.0329332 0.267986 1.17186 0.361102 0 0.849376" sodipodi:nodetypes="cc"/><path id="shape29" transform="matrix(0.999999897454381 0 0 0.999999897454381 279.40230872448 167.984564081895)" fill="none" stroke="#3a2a54" stroke-width="5.1816" stroke-linecap="square" stroke-linejoin="bevel" d="M0.182009 0C0.401303 0.328941 0.552195 0.200224 0 0.121339" sodipodi:nodetypes="cc"/><path id="shape30" transform="matrix(0.999999897454381 0 0 0.999999897454381 146.888240171651 300.18390629861)" fill="none" stroke="#3a2a54" stroke-width="5.1816" stroke-linecap="square" stroke-linejoin="bevel" d="M0.132717 0.212344C-0.129233 0.56161 0.0310246 0.141851 0.314726 0" sodipodi:nodetypes="cc"/><path id="shape31" transform="matrix(0.999999897454381 0 0 0.999999897454381 46.8585200972828 257.851438302935)" fill="none" stroke="#3a2a54" stroke-width="5.1816" stroke-linecap="square" stroke-linejoin="bevel" d="M0.300061 0.288346C-0.315958 -0.635683 0.195286 0.939215 0.269726 1.13772" sodipodi:nodetypes="cc"/><path id="shape32" transform="matrix(0.999999897454381 0 0 0.999999897454381 535.018713666805 270.8500917223)" fill="none" stroke="#3a2a54" stroke-width="5.1816" stroke-linecap="square" stroke-linejoin="bevel" d="M0.0155036 0C-0.132042 0.73773 0.808562 1.33909 1.35024 1.88076" sodipodi:nodetypes="cc"/><path id="shape33" transform="matrix(0.999999897454381 0 0 0.999999897454381 341.831461152656 422.524417349555)" fill="none" stroke="#3a2a54" stroke-width="5.1816" stroke-linecap="square" stroke-linejoin="bevel" d="M0.576362 0C0.576362 0.537017 0 0.866752 0 0" sodipodi:nodetypes="cc"/><path id="shape34" transform="matrix(0.999999897454381 0 0 0.999999897454381 366.372367039147 213.753478973386)" fill="none" stroke="#3a2a54" stroke-width="5.1816" stroke-linecap="square" stroke-linejoin="bevel" d="M0 0.00639658C0.228423 0.00639658 0.296853 -0.0575209 0.849376 0.218741" sodipodi:nodetypes="cc"/><path id="shape35" transform="matrix(0.999999897454381 0 0 0.999999897454381 452.159365613923 411.785875095146)" fill="none" stroke="#3a2a54" stroke-width="5.1816" stroke-linecap="square" stroke-linejoin="bevel" d="M1.12239 0.151674C0.170682 0.151674 0.229833 0.689499 0 0" sodipodi:nodetypes="cc"/><path id="shape36" transform="matrix(0.999999897454381 0 0 0.999999897454381 554.206726204278 142.139258995011)" fill="none" stroke="#3a2a54" stroke-width="5.1816" stroke-linecap="square" stroke-linejoin="bevel" d="M0.241805 0.273014C-0.116623 0.273014 0.0294608 0.25713 0.0294608 0" sodipodi:nodetypes="cc"/><path id="shape37" transform="matrix(0.999999897454381 0 0 0.999999897454381 276.156478156056 36.3615843025641)" fill="none" stroke="#3a2a54" stroke-width="5.1816" stroke-linecap="square" stroke-linejoin="bevel" d="M1.78976 0.546028C1.12504 0.546028 0.711904 0.25126 0 0" sodipodi:nodetypes="cc"/><path id="shape38" transform="matrix(0.999999897454381 0 0 0.999999897454381 187.955053430762 431.746216347691)" fill="none" stroke="#3a2a54" stroke-width="5.1816" stroke-linecap="square" stroke-linejoin="bevel" d="M0.563999 0C0.329468 0.156354 -0.0920423 0.217333 0.0179719 0.364018" sodipodi:nodetypes="cc"/><path id="shape39" transform="matrix(0.999999897454381 0 0 0.999999897454381 422.946890498114 27.6251431464336)" fill="none" stroke="#3a2a54" stroke-width="5.1816" stroke-linecap="square" stroke-linejoin="bevel" d="M0 1.09206C0.462674 0.398045 1.9824 0.74398 1.48641 0" sodipodi:nodetypes="cc"/><path id="shape40" transform="matrix(0.999999897454381 0 0 0.999999897454381 281.968583068425 292.269430587007)" fill="none" stroke="#2c2a54" stroke-width="5.1816" stroke-linecap="square" stroke-linejoin="bevel" d="M1.98397 0.0274107C-2.78437 -0.442707 2.20991 5.27946 4.80511 6.06405C17.218 9.81678 12.7343 3.40503 2.37832 3.81927" sodipodi:nodetypes="ccc"/><path id="shape41" transform="matrix(0.999999897454381 0 0 0.999999897454381 148.881571589224 237.180320345664)" fill="none" stroke="#4a496d" stroke-width="5.1816" stroke-linecap="square" stroke-linejoin="bevel" d="M0.414502 1.6058C-2.16869 1.08916 8.23434 10.061 6.54215 2.72819C5.08602 -3.5817 1.51857 3.16608 1.6279 2.18216" sodipodi:nodetypes="ccc"/><path id="shape42" transform="matrix(0.999999897454381 0 0 0.999999897454381 516.184370363325 200.246169760776)" fill="none" stroke="#4a496d" stroke-width="5.1816" stroke-linecap="square" stroke-linejoin="bevel" d="M0.254572 0.014691C-0.705381 -0.305293 1.33863 4.69534 1.61964 5.89966C3.50951 13.9991 10.456 17.1758 12.8132 6.96138C13.8077 2.65196 1.07875 -2.11178 0.406246 2.25947" sodipodi:nodetypes="cccc"/><path id="shape43" transform="matrix(0.999999897454381 0 0 0.999999897454381 520.650454962593 205.369466396466)" fill="none" stroke="#4a496d" stroke-width="5.1816" stroke-linecap="square" stroke-linejoin="bevel" d="M0.33872 0.897698C-0.495407 -1.60468 5.58421 5.39563 4.34292 7.72304C4.17173 8.04403 -1.60146 0.397068 1.85546 0.108991C7.13352 -0.330847 2.30596 9.04406 0.0050361 0.35167C-0.0864455 0.00607296 1.09912 -0.156036 1.06676 0.199996" sodipodi:nodetypes="ccccc"/>
</svg>
