<?xml version="1.0" standalone="no"?>
<!DOCTYPE svg PUBLIC "-//W3C//DTD SVG 20010904//EN" "http://www.w3.org/TR/2001/REC-SVG-20010904/DTD/svg10.dtd">
<!-- Created using Krita: https://krita.org -->
<svg xmlns="http://www.w3.org/2000/svg" 
    xmlns:xlink="http://www.w3.org/1999/xlink"
    xmlns:krita="http://krita.org/namespaces/svg/krita"
    xmlns:sodipodi="http://sodipodi.sourceforge.net/DTD/sodipodi-0.dtd"
    width="66pt"
    height="158.16pt"
    viewBox="0 0 66 158.16">
<defs>
  <radialGradient id="gradient0" gradientUnits="objectBoundingBox" cx="0" cy="0" fx="0" fy="0" r="1.4142135623731" spreadMethod="pad">
   <stop stop-color="#a9777d" offset="0.0555555559694767" stop-opacity="1"/>
   <stop stop-color="#8d6064" offset="0.534722208976746" stop-opacity="1"/>
   <stop stop-color="#532c25" offset="0.784722208976746" stop-opacity="1"/>
   <stop stop-color="#825b6f" offset="0.888888895511627" stop-opacity="1"/>
  </radialGradient>
  <radialGradient id="gradient1" gradientUnits="objectBoundingBox" cx="0" cy="0" fx="0" fy="0" r="1.01393206131586" spreadMethod="pad">
   <stop stop-color="#8af462" offset="0.0347222238779068" stop-opacity="1"/>
   <stop stop-color="#168028" offset="1" stop-opacity="1"/>
  </radialGradient>
  <linearGradient id="gradient2" gradientUnits="objectBoundingBox" x1="0" y1="0" x2="1.4142135623731" y2="0" spreadMethod="pad">
   <stop stop-color="#5c8f48" offset="0" stop-opacity="1"/>
   <stop stop-color="#168028" offset="0.631944417953491" stop-opacity="1"/>
  </linearGradient>
 </defs>
<ellipse id="shape0" transform="matrix(0.999999979490875 0 0 0.999999979490875 7.14352695563572 103.64865116059)" rx="29.3294159854731" ry="27.2368526300973" cx="29.3294159854731" cy="27.2368526300973" fill="url(#gradient0)" fill-rule="evenodd" stroke-opacity="0" stroke="#000000" stroke-width="0" stroke-linecap="square" stroke-linejoin="bevel"/><ellipse id="shape1" transform="matrix(0.999999979490875 0 0 0.999999979490875 17.6658884366832 106.310612078318)" rx="19.0564647346498" ry="9.68548097142894" cx="19.0564647346498" cy="9.68548097142894" fill="#531b39" fill-rule="evenodd" stroke-opacity="0" stroke="#000000" stroke-width="0" stroke-linecap="square" stroke-linejoin="bevel"/><ellipse id="shape2" transform="matrix(0.999999979490875 0 0 0.999999979490875 19.0619665362299 107.811788412453)" rx="16.92" ry="8.16" cx="16.92" cy="8.16" fill="#4f402f" fill-rule="evenodd" stroke-opacity="0" stroke="#000000" stroke-width="0" stroke-linecap="square" stroke-linejoin="bevel"/><path id="shape3" transform="matrix(0.999999979490875 0 0 0.999999979490875 21.7766457841186 128.724690007667)" fill="#4a3e31" fill-rule="evenodd" stroke="#531b39" stroke-width="1.2" stroke-linecap="square" stroke-linejoin="bevel" d="M1.31198 14.4722C-2.05759 4.36349 3.22632 16.115 6.16688 11.4369C8.87397 7.13014 3.27628 -6.36271 8.50413 3.57022C10.3739 7.12276 10.5562 11.838 5.861 15.782C1.07879 19.799 1.36688 15.7723 1.36688 22.9506C1.36688 25.8653 -0.350904 13.2236 0.0649192 15.0604" sodipodi:nodetypes="cccccc"/><path id="shape01" transform="matrix(0.999999943652047 0 0 0.999999943652047 13.00732444326 6.1717891383515)" fill="url(#gradient1)" fill-rule="evenodd" stroke-opacity="0" stroke="#000000" stroke-width="0" stroke-linecap="square" stroke-linejoin="bevel" d="M36.195 70.8118L41.0186 18.6706C43.5284 10.5373 38.7833 4.31373 26.7833 0C14.4891 5.34118 16.1362 3.43529 11.9833 16.7647C9.21464 25.651 9.67346 43.9725 13.3597 71.7294L8.08915 65.7294L8.85385 57.8588C10.2186 50.5725 9.24993 48.0863 5.94797 50.4C0.995029 53.8706 -0.0990885 49.4588 0.00679388 57.3176C0.0773821 62.5569 0.273461 68.8392 0.595029 76.1647L12.2774 85.1647L13.0891 108.306C20.2724 111.674 27.359 112.056 34.7009 109.835C34.6539 109.176 35.1519 96.1686 36.195 70.8118Z" sodipodi:nodetypes="ccczccczzccccc"/><path id="shape4" transform="matrix(0.999999979490875 0 0 0.999999979490875 30.4250476007383 9.02039305047699)" fill="#8af462" fill-opacity="0.298039215686275" fill-rule="evenodd" stroke-opacity="0" stroke="#000000" stroke-width="0" stroke-linecap="square" stroke-linejoin="bevel" d="M14.9773 0.0729659C-6.55734 14.4294 17.7766 22.5779 3.33025 37.7122C1.5175 39.6113 0.0954217 44.6352 0.00476185 47.0377C-0.231669 53.3031 8.41229 57.6959 8.96947 64.7004C9.65959 73.3763 -2.13991 82.828 0.381223 106.779C0.580205 108.669 5.57988 107.869 7.71456 108.136C7.92217 108.162 3.97997 86.3309 6.37339 82.4416C22.4429 56.3286 2.45871 57.8613 6.56947 43.5945C8.34174 37.4437 13.6579 34.2841 13.2675 27.9083C13.0131 23.7533 8.21568 17.5894 9.00084 15.0769C10.5579 10.0944 17.793 5.9002 17.793 1.46904C17.793 -0.937752 14.112 0.274343 14.3812 0.543554" sodipodi:nodetypes="cccccccccccc"/><path id="shape5" transform="matrix(0.999999979490875 0 0 0.999999979490875 44.6694774738262 19.057561643338)" fill="#8af462" fill-opacity="0.298039215686275" fill-rule="evenodd" stroke-opacity="0" stroke="#000000" stroke-width="0" stroke-linecap="square" stroke-linejoin="bevel" d="M7.19563 0.867169C4.92453 0.299396 4.89069 6.83815 4.46621 8.59266C3.73238 13.0605 0.214352 23.4906 0.00346893 36.1927C-0.140649 44.8733 4.25658 44.7326 3.72896 51.0946C2.44146 63.3749 1.56123 97.0431 2.17602 90.7887C3.92436 91.864 3.60913 79.4502 3.84661 76.6005C4.5311 68.3866 4.59849 61.9 5.03876 53.0946C5.44885 44.893 3.92546 42.1058 3.52504 35.2985C5.12732 18.5609 7.98461 11.712 8.99955 9.8554C8.2463 9.21092 12.796 -1.15542 8.90543 0.106385" sodipodi:nodetypes="cccccccccc"/><path id="shape6" transform="matrix(0.999999979490875 0 0 0.999999979490875 12.8476793137231 77.7040810352645)" fill="url(#gradient2)" fill-rule="evenodd" stroke-opacity="0" stroke="#000000" stroke-width="0" stroke-linecap="square" stroke-linejoin="bevel" d="M0.707207 4.18887C-1.57618 1.73505 2.26762 0.534324 3.80184 0.0959744C6.79136 -0.758175 8.5668 4.29612 10.0299 7.03949C10.6284 8.16162 13.5627 9.81605 14.6608 9.84573C19.5677 9.97835 7.83294 -0.530117 12.8362 2.69147C22.0937 3.76478 19.0253 14.7713 15.8088 34.7137C15.6168 35.9039 12.8329 35.4465 13.5017 36.4496C14.6396 38.1564 12.7345 23.7708 14.5499 21.9303C14.1371 16.4269 13.3605 11.2149 8.12212 8.25405C4.70254 6.32124 2.87498 0.35463 3.23061 4.26652" sodipodi:nodetypes="cccccccccc"/><path id="shape7" transform="matrix(0.999999979490875 0 0 0.999999979490875 15.6013358245695 3.57325637374814)" fill="#dbeaf2" fill-rule="evenodd" stroke-opacity="0" stroke="#000000" stroke-width="0" stroke-linecap="square" stroke-linejoin="bevel" d="M12.7422 13.4583L0 0L10.7187 17.0887L12.7422 13.4583" sodipodi:nodetypes="cccc"/><path id="shape01" transform="matrix(0.999999956188111 0 0 0.999999956188111 9.04157459106441 56.7482599637104)" fill="#dbeaf2" fill-rule="evenodd" stroke-opacity="0" stroke="#000000" stroke-width="0" stroke-linecap="square" stroke-linejoin="bevel" d="M5.44314 5.08235L0 0L4.65098 9.02745L6.22432 4.34088" sodipodi:nodetypes="cccc"/><path id="shape8" transform="matrix(0.999999979490875 0 0 0.999999979490875 34.759221122442 32.3953192866968)" fill="#dce1ed" fill-rule="evenodd" stroke-opacity="0" stroke="#000000" stroke-width="0" stroke-linecap="square" stroke-linejoin="bevel" d="M3.63922 1.8902L0 0L3.19216 4.52549L3.63922 1.8902" sodipodi:nodetypes="cccc"/><path id="shape9" transform="matrix(0.999999979490875 0 0 0.999999979490875 49.8494168913862 28.2855154494163)" fill="#dbeaf2" fill-rule="evenodd" stroke-opacity="0" stroke="#000000" stroke-width="0" stroke-linecap="square" stroke-linejoin="bevel" d="M0 0L6.08627 1.48235L0.556863 3.58431L0 0" sodipodi:nodetypes="cccc"/><path id="shape10" transform="matrix(0.999999979490875 0 0 0.999999979490875 47.7396130130875 -0.303352456282026)" fill="#dbeaf2" fill-rule="evenodd" stroke-opacity="0" stroke="#000000" stroke-width="0" stroke-linecap="square" stroke-linejoin="bevel" d="M0.787941 15.3068L14.553 0L2.5098 17.9693L0 14.1026" sodipodi:nodetypes="cccc"/><path id="shape11" transform="matrix(0.999999979490875 0 0 0.999999979490875 34.2807897597042 11.6031628503788)" fill="#dbeaf2" fill-rule="evenodd" stroke-opacity="0" stroke="#000000" stroke-width="0" stroke-linecap="square" stroke-linejoin="bevel" d="M1.24706 5.2L0 0L5.5451 6.54118L1.50588 8.31373L1.24706 5.2" sodipodi:nodetypes="ccccc"/><path id="shape12" transform="matrix(0.999999979490875 0 0 0.999999979490875 35.2298093480846 76.536494851988)" fill="#dbeaf2" fill-rule="evenodd" stroke-opacity="0" stroke="#000000" stroke-width="0" stroke-linecap="square" stroke-linejoin="bevel" d="M0 3.43529L4.27451 0L0.298039 6.48627L0 3.43529" sodipodi:nodetypes="cccc"/><path id="shape13" transform="matrix(0.999999979490875 0 0 0.999999979490875 18.7121626280231 57.6266913182435)" fill="#dbeaf2" fill-rule="evenodd" stroke-opacity="0" stroke="#000000" stroke-width="0" stroke-linecap="square" stroke-linejoin="bevel" d="M0 4.43922L2.98824 0L0.313725 6.61176L0 4.43922" sodipodi:nodetypes="cccc"/><path id="shape14" transform="matrix(0.999999979490875 0 0 0.999999979490875 0.0449870860365426 73.6228569607941)" fill="#dce1ed" fill-rule="evenodd" stroke-opacity="0" stroke="#000000" stroke-width="0" stroke-linecap="square" stroke-linejoin="bevel" d="M16.228 5.10187L0 0L13.2084 7.4705L16.228 5.10187" sodipodi:nodetypes="cccc"/><path id="shape15" transform="matrix(0.999999979490875 0 0 0.999999979490875 16.5631430642546 82.5757104144039)" fill="#dce1ed" fill-rule="evenodd" stroke-opacity="0" stroke="#000000" stroke-width="0" stroke-linecap="square" stroke-linejoin="bevel" d="M4.39216 0L0 7.03529L5.79608 2.78431L4.39216 0" sodipodi:nodetypes="cccc"/><path id="shape16" transform="matrix(0.999999979490875 0 0 0.999999979490875 16.6023587497243 70.8580635958986)" fill="#dbeaf2" fill-rule="evenodd" stroke-opacity="0" stroke="#000000" stroke-width="0" stroke-linecap="square" stroke-linejoin="bevel" d="M2.23529 3.55294L0 0L1.59216 6.17255L2.23529 3.55294" sodipodi:nodetypes="cccc"/><path id="shape17" transform="matrix(0.999999979490875 0 0 0.999999979490875 47.1278483197523 48.1281920228134)" fill="#dbeaf2" fill-rule="evenodd" stroke-opacity="0" stroke="#000000" stroke-width="0" stroke-linecap="square" stroke-linejoin="bevel" d="M0 6.16517L10.4895 0L1.23137 9.13772L0 6.16517" sodipodi:nodetypes="cccc"/><path id="shape18" transform="matrix(0.999999979490875 0 0 0.999999979490875 20.3827508290548 33.0855153509725)" fill="#dbeaf2" fill-rule="evenodd" stroke-opacity="0" stroke="#000000" stroke-width="0" stroke-linecap="square" stroke-linejoin="bevel" d="M6.58039 4.14118L0 0L3.32549 6.33725L6.58039 4.14118" sodipodi:nodetypes="cccc"/><path id="shape19" transform="matrix(0.999999979490875 0 0 0.999999979490875 39.5043173087322 33.3771131013341)" fill="#dbeaf2" fill-rule="evenodd" stroke-opacity="0" stroke="#000000" stroke-width="0" stroke-linecap="square" stroke-linejoin="bevel" d="M0.0221837 14.009L7.21526 0L2.21009 17.3319L0 14.1144" sodipodi:nodetypes="cccc"/><path id="shape20" transform="matrix(0.999999979490875 0 0 0.999999979490875 24.8768683839433 51.5561032074519)" fill="#dbeaf2" fill-rule="evenodd" stroke-opacity="0" stroke="#000000" stroke-width="0" stroke-linecap="square" stroke-linejoin="bevel" d="M3.56078 3.80392L0 0L6.03922 3.12157L3.56078 3.80392" sodipodi:nodetypes="cccc"/><path id="shape21" transform="matrix(0.999999979490875 0 0 0.999999979490875 36.610201476636 60.8266912526143)" fill="#dce1ed" fill-rule="evenodd" stroke-opacity="0" stroke="#000000" stroke-width="0" stroke-linecap="square" stroke-linejoin="bevel" d="M0 4.61176L3.12157 0L2.26667 6.83922L0 4.61176" sodipodi:nodetypes="cccc"/><path id="shape22" transform="matrix(0.999999979490875 0 0 0.999999979490875 44.7121620947859 82.1835535597017)" fill="#dce1ed" fill-rule="evenodd" stroke-opacity="0" stroke="#000000" stroke-width="0" stroke-linecap="square" stroke-linejoin="bevel" d="M0 0L19.8043 2.89832L1.24706 4.52549L0 0" sodipodi:nodetypes="cccc"/><path id="shape23" transform="matrix(0.999999979490875 0 0 0.999999979490875 23.4155587738005 99.7397758483169)" fill="#dce1ed" fill-rule="evenodd" stroke-opacity="0" stroke="#000000" stroke-width="0" stroke-linecap="square" stroke-linejoin="bevel" d="M0 7.59239L9.3449 0L10.3476 3.1026L7.79856 4.09868" sodipodi:nodetypes="cccc"/><path id="shape24" transform="matrix(0.999999979490875 0 0 0.999999979490875 8.52472228076658 39.4998257599216)" fill="#dbeaf2" fill-rule="evenodd" stroke-opacity="0" stroke="#000000" stroke-width="0" stroke-linecap="square" stroke-linejoin="bevel" d="M17.1443 4.04843L0 0L16.9325 6.66804L17.1443 4.04843" sodipodi:nodetypes="cccc"/><path id="shape25" transform="matrix(0.999999979490875 0 0 0.999999979490875 31.7239270670452 39.9325740340754)" fill="#dbeaf2" fill-rule="evenodd" stroke-opacity="0" stroke="#000000" stroke-width="0" stroke-linecap="square" stroke-linejoin="bevel" d="M0.54902 5.09804L0 0L2.82353 5.81961L0.54902 5.09804" sodipodi:nodetypes="cccc"/>
</svg>
