<?xml version="1.0" standalone="no"?>
<!DOCTYPE svg PUBLIC "-//W3C//DTD SVG 20010904//EN" "http://www.w3.org/TR/2001/REC-SVG-20010904/DTD/svg10.dtd">
<!-- Created using Krita: https://krita.org -->
<svg xmlns="http://www.w3.org/2000/svg" 
    xmlns:xlink="http://www.w3.org/1999/xlink"
    xmlns:krita="http://krita.org/namespaces/svg/krita"
    xmlns:sodipodi="http://sodipodi.sourceforge.net/DTD/sodipodi-0.dtd"
    width="1920pt"
    height="1081.92pt"
    viewBox="0 0 1920 1081.92">
<defs/>
<path id="shape0" transform="translate(160.759906863869, 367.427238035043)" fill="#c7ccdc" fill-rule="evenodd" stroke="none" stroke-width="2.4168" stroke-linecap="square" stroke-linejoin="bevel" d="M73.1475 11.0888C60.2639 0.903196 47.7358 -2.26543 35.5632 1.58293L6.6691 17.2065C-1.06946 17.4574 -2.07338 23.3241 3.65734 34.8065C9.38806 46.2888 28.0547 62.4561 59.6573 83.3084L250.34 85.1594L311.798 31.6692L300.316 9.3947C290.695 3.47574 280.154 1.9594 268.693 4.84568C257.231 7.73195 241.618 12.7516 221.853 19.9045C221.331 19.8836 171.762 16.945 73.1475 11.0888Z" sodipodi:nodetypes="ccczcccczcc"/><path id="shape1" transform="translate(217.170825176416, 443.084214555666)" fill="#191a28" fill-rule="evenodd" stroke="none" stroke-width="2.4168" stroke-linecap="square" stroke-linejoin="bevel" d="M22.1641 0.435757L1.2072 11.3848C-2.47385 19.9809 2.26341 24.9273 15.419 26.224C28.5745 27.5207 79.4608 27.688 168.078 26.726C189.725 21.9573 193.061 15.9233 178.086 8.62399C155.623 -2.32503 167.921 0.153404 22.1641 0.435757Z" sodipodi:nodetypes="cczccc"/><ellipse id="shape2" transform="translate(294.72, 468.24)" rx="22.44" ry="9.48000000000002" cx="22.44" cy="9.48000000000002" fill="#191a28" fill-rule="evenodd" stroke="none" stroke-width="2.4168" stroke-linecap="square" stroke-linejoin="bevel"/><rect id="shape3" transform="translate(311.717646768801, 483.854117538301)" fill="#191a28" fill-rule="evenodd" stroke="none" stroke-width="2.4168" stroke-linecap="square" stroke-linejoin="bevel" width="12.025235170453" height="87.7310807940435"/><path id="shape4" transform="translate(205.170182907003, 197.93567356752)" fill="#dbeaf2" fill-rule="evenodd" stroke="none" stroke-width="2.4168" stroke-linecap="square" stroke-linejoin="bevel" d="M117.678 0C72.4601 4.83137 47.5399 14.515 42.9176 29.051C38.2954 43.5869 23.9895 111.32 0 232.251C2.53072 248.335 8.19869 256.439 17.0039 256.565C25.8091 256.69 67.1268 256.659 140.957 256.471C140.455 256.45 132.695 170.959 117.678 0Z" sodipodi:nodetypes="czczcc"/><path id="shape0" transform="matrix(-1.00000002941743 0 0 1.00000002941743 419.507424049033 198.250667765518)" fill="#dbeaf2" fill-rule="evenodd" stroke-opacity="0" stroke="#000000" stroke-width="0" stroke-linecap="square" stroke-linejoin="bevel" d="M110.389 0C67.9717 4.83137 44.5951 14.515 40.2592 29.051C35.9233 43.5869 22.5035 111.32 0 232.251C2.37396 248.335 7.69084 256.439 15.9506 256.565C24.2104 256.69 62.9688 256.659 132.226 256.471C131.755 256.45 124.475 170.959 110.389 0Z" sodipodi:nodetypes="czczcc"/>
</svg>
