<?xml version="1.0" standalone="no"?>
<!DOCTYPE svg PUBLIC "-//W3C//DTD SVG 20010904//EN" "http://www.w3.org/TR/2001/REC-SVG-20010904/DTD/svg10.dtd">
<!-- Created using Krita: https://krita.org -->
<svg xmlns="http://www.w3.org/2000/svg" 
    xmlns:xlink="http://www.w3.org/1999/xlink"
    xmlns:krita="http://krita.org/namespaces/svg/krita"
    xmlns:sodipodi="http://sodipodi.sourceforge.net/DTD/sodipodi-0.dtd"
    width="1920pt"
    height="1081.92pt"
    viewBox="0 0 1920 1081.92">
<defs/>
<path id="shape0" transform="translate(-15.2799994956982, -0.70588233122669)" fill="#a49bbe" fill-rule="evenodd" stroke="none" stroke-width="9.6" stroke-linecap="square" stroke-linejoin="bevel" d="M0 0L0.781176 559.572L140.993 558.466L139.624 294.344L144.941 232.814L189.012 166.367L276.894 119.049L404.659 118.179L473.129 164.438L497.765 214.532L510.047 276.744L507.864 557.572L717.28 563.746L725.68 0.705882L0 0" sodipodi:nodetypes="ccccccccccccccc"/><path id="shape1" transform="translate(83.0023502000273, 350.743517828475)" fill="#a49bbe" fill-rule="evenodd" stroke="none" stroke-width="9.6" stroke-linecap="square" stroke-linejoin="bevel" d="M31.8118 13.4824L432.753 13.8353L456.965 141.835L420.993 190.216L418.875 207.487L28.4047 207.275L0 37.2235L40.4941 0" sodipodi:nodetypes="cccccccc"/><path id="shape2" transform="translate(124.192405156088, 113.858374670674)" fill="none" stroke="#585982" stroke-width="9.6" stroke-linecap="square" stroke-linejoin="bevel" d="M0.226418 252.368C-0.589268 181.575 0.798967 137.866 4.39112 121.238C7.98328 104.611 23.2852 81.2773 50.297 51.2381C101.842 21.1518 130.077 5.4577 135.003 4.15574C142.391 2.2028 255.403 -2.40896 266.556 1.56751C277.709 5.54398 328.391 35.991 337.285 50.3675C346.179 64.744 354.932 78.9322 360.815 100.462C366.697 121.991 372.532 145.568 373.756 166.673C374.572 180.744 375.066 209.207 375.238 252.062C375.364 251.669 250.36 251.771 0.226418 252.368Z" sodipodi:nodetypes="czczzzzzcc"/><rect id="shape3" transform="translate(126.654117525507, 330.155293800792)" fill="#585982" fill-rule="evenodd" stroke="none" stroke-width="9.6" stroke-linecap="square" stroke-linejoin="bevel" width="376.898823647938" height="39.4211767828595"/><path id="shape4" transform="translate(83.9717646252935, 339.943529085515)" fill="#191a28" fill-rule="evenodd" stroke="none" stroke-width="9.6" stroke-linecap="square" stroke-linejoin="bevel" d="M39.3412 0.705882L0 30.5882L1.69412 39.0824L451.294 37.2706L450.871 27.3412L416.4 0L39.3412 0.705882" sodipodi:nodetypes="ccccccc"/><path id="shape5" transform="translate(114.207058713923, 348.465882018513)" fill="#f47b62" fill-rule="evenodd" stroke="none" stroke-width="2.4168" stroke-linecap="square" stroke-linejoin="bevel" d="M16.6588 0L0 14L9.38824 12.8706L21.6 3.22353L16.6588 0" sodipodi:nodetypes="ccccc"/><path id="shape6" transform="translate(148.465882210456, 347.54823496057)" fill="#6ec8fa" fill-rule="evenodd" stroke="none" stroke-width="2.4168" stroke-linecap="square" stroke-linejoin="bevel" d="M6.30588 1.03529L0 7.24706L99.3647 7.05882L98.3059 0L6.30588 1.03529" sodipodi:nodetypes="ccccc"/><path id="shape7" transform="translate(137.4305881034, 360.583529065707)" fill="#802655" fill-rule="evenodd" stroke="none" stroke-width="2.4168" stroke-linecap="square" stroke-linejoin="bevel" d="M5.85882 0L0 5.62353L18.4 4.96471L19.3412 1.31765L5.85882 0" sodipodi:nodetypes="ccccc"/><path id="shape8" transform="translate(168.159999838614, 360.936470241839)" fill="#ffff7d" fill-rule="evenodd" stroke="none" stroke-width="2.4168" stroke-linecap="square" stroke-linejoin="bevel" d="M0 1.12941L20.9882 0L21.6941 6L0 1.12941" sodipodi:nodetypes="cccc"/><path id="shape9" transform="translate(163.501176313673, 366.559999648206)" fill="none" stroke="#80cadc" stroke-width="2.4168" stroke-linecap="square" stroke-linejoin="bevel" d="M0 0L0.941176 3.31765L14.6118 2.98824L0 0" sodipodi:nodetypes="cccc"/><path id="shape10" transform="translate(270.889411504729, 351.148234957115)" fill="#802655" fill-rule="evenodd" stroke="none" stroke-width="2.4168" stroke-linecap="square" stroke-linejoin="bevel" d="M0 0L0.988235 12.9882L32.3765 12.3059L31.0118 7.85882L6.47059 8.63529L0 0" sodipodi:nodetypes="cccccc"/><path id="shape11" transform="translate(270.889411504729, 348.277646724576)" fill="#ff0088" fill-rule="evenodd" stroke="none" stroke-width="2.4168" stroke-linecap="square" stroke-linejoin="bevel" d="M0 1.69412L17.5529 0L30.4706 3.52941L31.0824 10.6588L6.10823 11.9106" sodipodi:nodetypes="ccccc"/><path id="shape12" transform="translate(352.0894114268, 349.124705547292)" fill="#6ec8fa" fill-rule="evenodd" stroke="none" stroke-width="2.4168" stroke-linecap="square" stroke-linejoin="bevel" d="M28.2353 6.28235L8.77647 13.1059L0 3.38824L30.0471 0L28.2353 6.28235" sodipodi:nodetypes="ccccc"/><path id="shape13" transform="translate(367.477646706149, 351.783529074153)" fill="#ffff7d" fill-rule="evenodd" stroke="none" stroke-width="2.4168" stroke-linecap="square" stroke-linejoin="bevel" d="M26.3059 0L29.9529 14.0235L0 17.7882L2.28235 12.5412L21.3176 8.68235L26.3059 0" sodipodi:nodetypes="cccccc"/><ellipse id="shape14" transform="translate(314.88, 356.16)" rx="10.56" ry="4.68000000000001" cx="10.56" cy="4.68000000000001" fill="#8af462" fill-rule="evenodd" stroke="none" stroke-width="2.4168" stroke-linecap="square" stroke-linejoin="bevel"/><ellipse id="shape15" transform="translate(430.32, 352.08)" rx="9.83999999999997" ry="5.16" cx="9.83999999999997" cy="5.16" fill="#8af462" fill-rule="evenodd" stroke="none" stroke-width="2.4168" stroke-linecap="square" stroke-linejoin="bevel"/><ellipse id="shape0" transform="matrix(0.999999989194449 0 0 0.999999989194449 448.687490090805 343.546788441195)" rx="9.83999999999997" ry="5.16" cx="9.83999999999997" cy="5.16" fill="#802655" stroke="none" stroke-width="2.4168" stroke-linecap="square" stroke-linejoin="bevel"/><ellipse id="shape01" transform="matrix(0.999999963115962 0 0 0.999999963115962 452.325563250631 356.801803736303)" rx="9.83999999999997" ry="5.16" cx="9.83999999999997" cy="5.16" fill="#ffff7d" stroke="none" stroke-width="2.4168" stroke-linecap="square" stroke-linejoin="bevel"/><ellipse id="shape02" transform="matrix(0.999999963115962 0 0 0.999999963115962 470.99615091158 348.731215749276)" rx="9.83999999999997" ry="5.16" cx="9.83999999999997" cy="5.16" fill="#f47b62" stroke="none" stroke-width="2.4168" stroke-linecap="square" stroke-linejoin="bevel"/><path id="shape16" transform="translate(193.717641099674, 361.592930053135)" fill="#f47b62" fill-rule="evenodd" stroke="none" stroke-width="2.4168" stroke-linecap="square" stroke-linejoin="bevel" d="M3.58824 0L0 9.45882L11.0471 9.25882L11.8824 1.83529L3.58824 0" sodipodi:nodetypes="ccccc"/><path id="shape17" transform="translate(208.776464165846, 360.275283034845)" fill="#7fccdd" fill-rule="evenodd" stroke="none" stroke-width="2.4168" stroke-linecap="square" stroke-linejoin="bevel" d="M7 0.376471L22.7882 0L6.17647 9.84706L0 2.08235L7 0.376471" sodipodi:nodetypes="ccccc"/><path id="shape18" transform="translate(241.223521991237, 358.698812495105)" fill="#ffff7d" fill-rule="evenodd" stroke="none" stroke-width="2.4168" stroke-linecap="square" stroke-linejoin="bevel" d="M0 2.91765L13.3294 0L11.6941 8.84706L0 2.91765" sodipodi:nodetypes="cccc"/><path id="shape19" transform="translate(224.741169557092, 363.757635868897)" fill="#ffff7d" fill-rule="evenodd" stroke="none" stroke-width="2.4168" stroke-linecap="square" stroke-linejoin="bevel" d="M0 7.24706L9.47059 0L20.8588 6.10588L0 7.24706" sodipodi:nodetypes="cccc"/><path id="shape20" transform="translate(255.599992137223, 345.875283477818)" fill="#8af462" fill-rule="evenodd" stroke="none" stroke-width="2.4168" stroke-linecap="square" stroke-linejoin="bevel" d="M0 1.98824L10.6588 0L4.56471 13.6471L0 1.98824" sodipodi:nodetypes="cccc"/><path id="shape21" transform="translate(402.188222921988, 345.804695244696)" fill="#6ec8fa" fill-rule="evenodd" stroke="none" stroke-width="2.4168" stroke-linecap="square" stroke-linejoin="bevel" d="M0 1.90588L30.6118 0L8.47059 18.6353L15.3529 7.02353L0 1.90588" sodipodi:nodetypes="ccccc"/><path id="shape22" transform="translate(309.552931653991, 344.275283527035)" fill="#802655" fill-rule="evenodd" stroke="none" stroke-width="2.4168" stroke-linecap="square" stroke-linejoin="bevel" d="M8.17647 0L25.2235 0.117647L0.117647 10.0941L0 1.07059L8.17647 0" sodipodi:nodetypes="ccccc"/><path id="shape23" transform="translate(487.023514429929, 355.381165538339)" fill="#6ec8fa" fill-rule="evenodd" stroke="none" stroke-width="2.4168" stroke-linecap="square" stroke-linejoin="bevel" d="M13.6941 0L0 8.71765L16.2588 10.9882L27.4706 7.12941L13.6941 0" sodipodi:nodetypes="ccccc"/><rect id="shape24" transform="translate(87.4302943754325, 371.648528122837)" fill="#585982" fill-opacity="0.407843137254902" fill-rule="evenodd" stroke="none" stroke-width="2.4168" stroke-linecap="square" stroke-linejoin="bevel" width="95.76" height="6.24000000000001"/><path id="shape25" transform="translate(107.764180787429, 342.935136515662)" fill="#dce1ed" fill-opacity="0.376470588235294" fill-rule="evenodd" stroke="none" stroke-width="2.4168" stroke-linecap="square" stroke-linejoin="bevel" d="M17.9134 0.38267L0 16.0278L19.078 12.8998L31.7117 6.25027L46.9963 6.1449L67.1779 0L17.9134 0.38267" sodipodi:nodetypes="ccccccc"/><path id="shape26" transform="translate(197.129405874791, 342.623928150935)" fill="#dce1ed" fill-opacity="0.376470588235294" fill-rule="evenodd" stroke="none" stroke-width="2.4168" stroke-linecap="square" stroke-linejoin="bevel" d="M0 1.15018L293.671 0.0325322C297.702 -0.241978 300.843 1.22077 303.094 4.42077C305.345 7.62077 308.298 10.5188 311.953 13.1149L298.165 6.23253L291.459 3.32665C291.2 3.19332 194.047 2.46783 0 1.15018Z" sodipodi:nodetypes="cczcccc"/><rect id="shape27" transform="translate(34.32, 0)" fill="#6ec8fa" fill-opacity="0.309803921568627" fill-rule="evenodd" stroke="none" stroke-width="2.4168" stroke-linecap="square" stroke-linejoin="bevel" width="255.36" height="247.92"/><path id="shape28" transform="translate(52.5552940775402, 16.2635293993537)" fill="none" stroke="#ffff7d" stroke-width="2.88" stroke-linecap="square" stroke-linejoin="miter" stroke-miterlimit="2" d="M0 0L136.753 0.658824" sodipodi:nodetypes="cc"/><path id="shape03" transform="matrix(1.00000000157453 0 0 1.00000000157453 58.3905881907345 42.2554353376541)" fill="none" stroke="#ffff7d" stroke-width="2.88" stroke-linecap="square" stroke-linejoin="miter" stroke-miterlimit="2" d="M0 0L206.99 0.658824" sodipodi:nodetypes="cc"/><path id="shape04" transform="matrix(0.999999973938476 0 0 0.999999973938476 55.0861998341617 67.8238106342909)" fill="none" stroke="#ffff7d" stroke-width="2.88" stroke-linecap="square" stroke-linejoin="miter" stroke-miterlimit="2" d="M0 0L206.99 0.658824" sodipodi:nodetypes="cc"/><path id="shape05" transform="matrix(0.999999973938476 0 0 0.999999973938476 105.355294037248 97.4708694351959)" fill="none" stroke="#ffff7d" stroke-width="2.88" stroke-linecap="square" stroke-linejoin="miter" stroke-miterlimit="2" d="M0 0L170.18 0.658824" sodipodi:nodetypes="cc"/><rect id="shape29" transform="translate(57.84, 133.92)" fill="#f47b62" fill-opacity="0.254901960784314" fill-rule="evenodd" stroke="#ffff7d" stroke-width="2.4168" stroke-linecap="square" stroke-linejoin="bevel" width="87.6" height="82.8"/><path id="shape30" transform="translate(172.931764573914, 149.910588120893)" fill="none" stroke="#ffff7d" stroke-width="2.4168" stroke-linecap="square" stroke-linejoin="miter" stroke-miterlimit="2" d="M0 0.752941L83.1059 0" sodipodi:nodetypes="cc"/><path id="shape31" transform="translate(164.555293992071, 181.439999861538)" fill="none" stroke="#ffff7d" stroke-width="2.4168" stroke-linecap="square" stroke-linejoin="miter" stroke-miterlimit="2" d="M0 0.611765L43.3412 0" sodipodi:nodetypes="cc"/><path id="shape32" transform="translate(179.990588097938, 211.134117485937)" fill="none" stroke="#ffff7d" stroke-width="2.4168" stroke-linecap="square" stroke-linejoin="miter" stroke-miterlimit="2" d="M0 0L82.8706 0.0941176" sodipodi:nodetypes="cc"/><path id="shape33" transform="translate(159.614117525253, 196.263529261991)" fill="none" stroke="#ffff7d" stroke-width="2.4168" stroke-linecap="square" stroke-linejoin="miter" stroke-miterlimit="2" d="M0 0L102.494 0.517647" sodipodi:nodetypes="cc"/><path id="shape34" transform="matrix(-1 0 0 1 748.799972473842 107.058814349775)" fill="none" stroke="#585982" stroke-width="2.4168" stroke-linecap="square" stroke-linejoin="miter" stroke-miterlimit="2" d="M0 49.0823L67.4918 0" sodipodi:nodetypes="cc"/><path id="shape06" transform="matrix(0.999999973938476 0 0 0.999999973938476 80.3567880501711 43.5885165351385)" fill="none" stroke="#ffff7d" stroke-width="2.88" stroke-linecap="square" stroke-linejoin="miter" stroke-miterlimit="2" d="M0 0L206.99 0.658824" sodipodi:nodetypes="cc"/><path id="shape07" transform="matrix(0.999999994172613 0 0 0.999999994172613 625.071448844913 105.864552857043)" fill="none" stroke="#585982" stroke-width="2.4168" stroke-linecap="square" stroke-linejoin="miter" stroke-miterlimit="2" d="M0 49.0823L54.5608 0" sodipodi:nodetypes="cc"/><rect id="shape35" transform="translate(559.2, 158.16)" fill="#585982" fill-rule="evenodd" stroke="#5e472e" stroke-width="7.44" stroke-linecap="square" stroke-linejoin="bevel" width="249.36" height="190.56"/><path id="shape36" transform="translate(573.644469042929, 190.434889132115)" fill="#a49bbe" fill-rule="evenodd" stroke="none" stroke-width="2.4168" stroke-linecap="square" stroke-linejoin="bevel" d="M0.840188 62.3651C16.3049 58.4989 11.818 10.2934 45.2637 13.7533C72.4676 16.5675 4.161 88.6605 67.8049 72.3416C89.9648 66.6595 79.5124 -21.1252 112.464 4.76509C124.818 14.4722 108.922 65.9152 122.864 90.1298C137.825 116.115 193.483 67.4195 180.887 112.765C177.724 124.154 157.698 135.535 146.864 137.236C127.161 140.329 114.41 123.224 97.7814 121.847C71.7325 119.692 52.5002 146.629 23.099 128.765C14.8938 123.78 16.296 108.271 21.7814 101.942C23.4793 99.9824 41.0768 98.3721 40.6049 95.7769C38.9213 86.517 11.9042 81.5685 4.41666 76.5769C-2.71122 71.8249 1.08538 62.1175 0.463717 65.8474" sodipodi:nodetypes="ccccccccccccc"/><path id="shape37" transform="translate(669.181605034153, 180.847043317004)" fill="#802655" fill-rule="evenodd" stroke="none" stroke-width="2.4168" stroke-linecap="square" stroke-linejoin="bevel" d="M56.0325 0.470588C56.0624 0.470588 50.7338 0 49.5854 0C42.4232 0 34.5835 2.30538 31.8913 9.74118C28.9354 17.9051 35.0343 24.464 33.1619 32.1412C31.4598 39.1195 11.9356 42.1947 6.99716 50.4471C-10.7158 80.0464 7.16274 114.623 38.6207 125.365C41.0948 126.21 53.8966 96.2539 58.1972 92.8941C65.0563 87.5354 98.5327 100.578 92.456 77.6C88.6826 63.332 80.2656 38.7273 69.5854 28.0471C65.7562 24.2179 63.4035 17.493 60.6442 12.8941C59.8254 11.5295 55.4657 5.31557 56.9266 6.77647" sodipodi:nodetypes="ccccccccccc"/><path id="shape38" transform="translate(569.435558439051, 166.63965541168)" fill="#802655" fill-rule="evenodd" stroke="none" stroke-width="2.4168" stroke-linecap="square" stroke-linejoin="bevel" d="M39.5903 8.32504C39.5903 -5.16455 -27.25 25.7661 12.7667 49.1721C32.2011 60.5394 32.426 36.213 45.0491 29.0309C51.7553 25.2153 81.7821 25.7331 66.9785 8.9368C64.3422 5.94564 59.2774 1.567 55.2138 0.889742C49.6421 -0.0388674 47.2967 -0.985005 42.602 2.20739" sodipodi:nodetypes="cccccc"/><path id="shape39" transform="translate(560.656077167038, 256.399283628198)" fill="#b4b425" fill-rule="evenodd" stroke="none" stroke-width="2.4168" stroke-linecap="square" stroke-linejoin="bevel" d="M238.582 5.57716C210.499 -16.8889 222.786 35.1966 217.076 43.9301C212.438 51.0225 165.588 62.1543 155.334 63.2242C144.184 64.3877 120.982 68.9471 110.817 67.2242C97.2362 64.9224 86.3337 54.9594 71.6168 54.4242C59.3042 53.9765 60.921 75.3461 48.7933 74.9419C46.1345 74.8532 45.0558 73.6603 43.5227 71.6948C24.9884 47.9328 -12.3752 45.2493 4.0874 80.9183C4.32138 81.4253 4.52501 81.4365 4.98152 81.8125C17.466 92.0938 211.495 83.5053 230.064 76.5419C242.44 71.9009 237.358 34.2337 238.346 23.036C238.806 17.8205 239.966 1.12376 236.276 6.80069" sodipodi:nodetypes="cccccccccccc"/>
</svg>
