<?xml version="1.0" standalone="no"?>
<!DOCTYPE svg PUBLIC "-//W3C//DTD SVG 20010904//EN" "http://www.w3.org/TR/2001/REC-SVG-20010904/DTD/svg10.dtd">
<!-- Created using Krita: https://krita.org -->
<svg xmlns="http://www.w3.org/2000/svg" 
    xmlns:xlink="http://www.w3.org/1999/xlink"
    xmlns:krita="http://krita.org/namespaces/svg/krita"
    xmlns:sodipodi="http://sodipodi.sourceforge.net/DTD/sodipodi-0.dtd"
    width="84.24pt"
    height="126.48pt"
    viewBox="0 0 84.24 126.48">
<defs>
  <linearGradient id="gradient0" gradientUnits="objectBoundingBox" x1="0" y1="0" x2="1.4142135623731" y2="0" spreadMethod="pad">
   <stop stop-color="#6ec8fa" offset="0" stop-opacity="0"/>
   <stop stop-color="#6ec8fa" offset="0.680555582046509" stop-opacity="1"/>
   <stop stop-color="#dcfaff" offset="0.9375" stop-opacity="1"/>
  </linearGradient>
 </defs>
<path id="shape0" transform="matrix(0.999999932912952 0 0 0.999999932912952 49.6590501130941 -0.183942047380742)" fill="#802655" fill-rule="evenodd" stroke-opacity="0" stroke="#000000" stroke-width="0" stroke-linecap="square" stroke-linejoin="bevel" d="M24.4917 31.7843C32.9661 31.7843 35.1887 22.2023 23.348 1.27104C12.7314 -4.36117 21.5585 25.2229 15.9462 24.5377C10.8223 23.912 18.7298 -9.99928 3.20683 2.94163C0.612166 28.0589 -7.79365 44.2397 20.3405 31.4688" sodipodi:nodetypes="ccccc"/><rect id="shape01" transform="matrix(0.999999929195937 0 0 0.999999929195937 45.1435318149294 30.5318179641955)" fill="#0e0e25" fill-rule="evenodd" stroke="#802655" stroke-width="2.64" stroke-linecap="square" stroke-linejoin="bevel" width="37.92" height="69.36"/><rect id="shape011" transform="matrix(0.999999833718546 0 0 0.999999833718546 49.0470631228011 34.4753275006199)" fill="#7fccdd" fill-rule="evenodd" stroke="#77b3fe" stroke-width="0.4704" stroke-linecap="square" stroke-linejoin="bevel" width="29.76" height="54"/><ellipse id="shape1" transform="matrix(0.999999932912952 0 0 0.999999932912952 58.6978133915035 90.5203952204672)" rx="5.03999999999999" ry="2.88" cx="5.03999999999999" cy="2.88" fill="none" stroke-opacity="0.533333333333333" stroke="#80cadc" stroke-width="0.5376" stroke-linecap="square" stroke-linejoin="bevel"/><path id="shape02" transform="matrix(0.999999821964483 0 0 0.999999821964483 0.0902114196043834 3.38513649648128)" fill="url(#gradient0)" fill-rule="evenodd" stroke-opacity="0" stroke="#000000" stroke-width="0" stroke-linecap="square" stroke-linejoin="bevel" d="M78.6822 31.3013C67.4364 19.129 61.262 8.80289 25.3081 0.210825C-11.5758 -5.96006 -4.02403 125.404 21.6746 123.004C47.3731 120.604 59.1619 118.298 66.4478 105.184C66.8021 104.546 78.7622 84.0995 79.1092 84.2151" sodipodi:nodetypes="cczcc"/>
</svg>
