<?xml version="1.0" standalone="no"?>
<!DOCTYPE svg PUBLIC "-//W3C//DTD SVG 20010904//EN" "http://www.w3.org/TR/2001/REC-SVG-20010904/DTD/svg10.dtd">
<!-- Created using Krita: https://krita.org -->
<svg xmlns="http://www.w3.org/2000/svg" 
    xmlns:xlink="http://www.w3.org/1999/xlink"
    xmlns:krita="http://krita.org/namespaces/svg/krita"
    xmlns:sodipodi="http://sodipodi.sourceforge.net/DTD/sodipodi-0.dtd"
    width="31.68pt"
    height="90.48pt"
    viewBox="0 0 31.68 90.48">
<defs/>
<path id="shape0" transform="matrix(0.999999944403879 0 0 0.999999944403879 0.423488508056074 5.39293040178235)" fill="#dce1ed" fill-opacity="0.388235294117647" fill-rule="evenodd" stroke-opacity="0" stroke="#000000" stroke-width="0" stroke-linecap="square" stroke-linejoin="bevel" d="M8.87059 0L8.90588 6.61176L3.32941 13L0.282353 18.8L0 23.4118L2.43529 79.7412L11.1059 84.2235L22.9529 83.6353L30.6 78.9412L31.2235 18.8118L30.3882 15.2235L25.3412 9.58823L20.3765 6.88235L20.0824 0.329412L8.87059 0" sodipodi:nodetypes="ccccccccccccccc"/><path id="shape1" transform="matrix(0.999999944403879 0 0 0.999999944403879 1.54113542702317 29.9664193163792)" fill="#80cadc" fill-opacity="0.274509803921569" fill-rule="evenodd" stroke-opacity="0" stroke="#000000" stroke-width="0" stroke-linecap="square" stroke-linejoin="bevel" d="M0 2.0618L3.30588 53.3442L10.7059 57.6971L21.7412 57.6618L28.2353 54.2265L29.3412 1.53239L17.9882 0.838273C21.5255 -0.597021 15.5294 -0.189178 0 2.0618Z" sodipodi:nodetypes="cccccccc"/><path id="shape01" transform="matrix(0.999999927129722 0 0 0.999999927129722 0.122301298827171 6.03881211390688)" fill="#dce1ed" fill-opacity="0.219607843137255" fill-rule="evenodd" stroke-opacity="0" stroke="#000000" stroke-width="0" stroke-linecap="square" stroke-linejoin="bevel" d="M8.87059 0L8.90588 6.61176L3.32941 13L0.282353 18.8L0 23.4118L2.43529 79.7412L11.1059 84.2235L22.9529 83.6353L30.6 78.9412L31.2235 18.8118L30.3882 15.2235L25.3412 9.58823L20.3765 6.88235L20.0824 0.329412L8.87059 0" sodipodi:nodetypes="ccccccccccccccc"/><path id="shape2" transform="matrix(0.999999944403879 0 0 0.999999944403879 6.1999583734538 -0.120010084827086)" fill="#dbeaf2" fill-rule="evenodd" stroke-opacity="0" stroke="#000000" stroke-width="0" stroke-linecap="square" stroke-linejoin="bevel" d="M1.01176 5.95294L5.10588 6.34118L12.4706 6.37647L15.2941 5.81176L15.8941 0.670588L13.3529 0.0941176L2.04706 0L0 1.50588L1.01176 5.95294" sodipodi:nodetypes="ccccccccc"/><path id="shape3" transform="matrix(0.999999944403879 0 0 0.999999944403879 1.77921475436389 15.0446938998931)" fill="#dce1ed" fill-opacity="0.309803921568627" fill-rule="evenodd" stroke-opacity="0" stroke="#000000" stroke-width="0" stroke-linecap="square" stroke-linejoin="bevel" d="M7.29133 2.91765C12.2109 4.55749 1.24765 15.148 5.97368 17.2824C6.66857 17.5962 14.6154 18.493 14.6443 18.3059C20.2521 18.0666 11.0936 20.1212 9.42074 21.2C6.90935 22.8195 4.49915 27.6918 5.49133 30.4824C9.24044 41.0267 23.2651 29.5813 9.13839 37.6941C4.36603 42.9688 7.90245 52.5456 6.25604 58.6471C5.09337 62.9558 11.3552 70.6726 15.5266 70.3882C29.0834 69.4639 17.8382 72.3294 3.44427 72.3294C-0.227243 65.2118 -1.85083 13.1617 3.11486 2.43529C3.5106 1.82646 20.5776 0.524694 13.1854 0" sodipodi:nodetypes="ccccccccccc"/><ellipse id="shape4" transform="matrix(0.999999944403879 0 0 0.999999944403879 8.51999084421993 1.56000918134919)" rx="1.92000000000002" ry="1.68000000000001" cx="1.92000000000002" cy="1.68000000000001" fill="#802655" fill-rule="evenodd" stroke-opacity="0" stroke="#000000" stroke-width="0" stroke-linecap="square" stroke-linejoin="bevel"/>
</svg>
