<?xml version="1.0" standalone="no"?>
<!DOCTYPE svg PUBLIC "-//W3C//DTD SVG 20010904//EN" "http://www.w3.org/TR/2001/REC-SVG-20010904/DTD/svg10.dtd">
<!-- Created using Krita: https://krita.org -->
<svg xmlns="http://www.w3.org/2000/svg" 
    xmlns:xlink="http://www.w3.org/1999/xlink"
    xmlns:krita="http://krita.org/namespaces/svg/krita"
    xmlns:sodipodi="http://sodipodi.sourceforge.net/DTD/sodipodi-0.dtd"
    width="96.48pt"
    height="97.92pt"
    viewBox="0 0 96.48 97.92">
<defs/>
<path id="shape0" transform="matrix(0.999999961908342 0 0 0.999999961908342 11.0588087898458 16.4141300115902)" fill="#dce1ed" fill-opacity="0.466666666666667" fill-rule="evenodd" stroke-opacity="0" stroke="#000000" stroke-width="0" stroke-linecap="square" stroke-linejoin="bevel" d="M84.2823 64.9529C85.5922 51.549 86.1765 46.0196 86.0353 48.3647L80.7647 30.5765L73.0588 22.0471L70.6588 14.4353L54.7882 0L45.5412 2.70588L28.6941 16.1176L9.84706 29.1176L3.04706 36.3412L0 42.4941L11.7882 54.3765L18.1765 54.0471L16.2471 59.3765L27.8824 67.3882L35.9765 80.8588L46.7059 81.4941L53.0471 75.3176L62.5059 75.4823L68.6823 79.2118L72.9765 77.9294L77.7529 77.4118C77.8157 77.2471 79.9922 73.0941 84.2823 64.9529Z" sodipodi:nodetypes="ccccccccccccccccccccccc"/><path id="shape1" transform="matrix(0.999999961908342 0 0 0.999999961908342 13.114800321787 19.9054036636918)" fill="#dce1ed" fill-opacity="0.32156862745098" fill-rule="evenodd" stroke-opacity="0" stroke="#000000" stroke-width="0" stroke-linecap="square" stroke-linejoin="bevel" d="M0.84989 40.6381C3.52565 44.2058 8.25133 45.376 12.4969 45.6499C17.7853 45.9911 28.1572 36.4376 31.5558 37.6734C35.0329 38.9378 24.0497 50.1386 23.7205 53.497C23.7108 53.5954 23.7255 53.8551 23.7322 53.9558C24.2027 61.013 32.7791 52.1347 36.0734 54.4264C47.8694 62.6323 26.8338 75.1566 51.1793 67.9558C59.2931 65.5559 58.2747 72.2105 65.2146 71.2852C82.408 68.9927 86.1079 35.2265 77.3205 23.8028C47.1755 -15.3856 60.8367 1.34698 33.6852 20.5793C24.9445 26.7706 14.9721 24.8341 6.47342 29.6146C3.12775 31.4965 -0.520536 36.9329 0.0616552 39.2617" sodipodi:nodetypes="cccccccccccc"/><path id="shape3" transform="matrix(0.999999961908342 0 0 0.999999961908342 0.922420448774954 24.9936162357849)" fill="#dce1ed" fill-opacity="0.32156862745098" fill-rule="evenodd" stroke-opacity="0" stroke="#000000" stroke-width="0" stroke-linecap="square" stroke-linejoin="bevel" d="M40.6187 18.3617C43.0744 10.9948 8.42947 -7.81 1.14816 3.57346C-4.13881 11.839 10.5482 31.4676 10.5482 31.4676C10.5482 31.4676 7.29956 6.83424 15.2658 7.84404C20.9443 8.56385 24.4676 16.9518 28.3482 20.8323C30.511 22.9951 37.6146 21.0583 34.7129 20.0911" sodipodi:nodetypes="cccccc"/><path id="shape4" transform="matrix(0.999999961908342 0 0 0.999999961908342 30.3646890648881 -0.138809383281516)" fill="#dce1ed" fill-opacity="0.32156862745098" fill-rule="evenodd" stroke-opacity="0" stroke="#000000" stroke-width="0" stroke-linecap="square" stroke-linejoin="bevel" d="M37.9765 19.2235C28.3137 8.13333 21.0863 1.72549 16.2941 0L6.18823 1.11765L0 6.78823L1.76471 23.6589L9.31765 33.8471L12.4118 30.6471L4.38823 16.3765L4.58823 8.47059L11.8 7.70588L23.7294 9.71765L31 23.6589C31.3059 26.498 33.6314 25.0196 37.9765 19.2235Z" sodipodi:nodetypes="ccccccccccccc"/><path id="shape5" transform="matrix(0.999999961908342 0 0 0.999999961908342 7.37303828010114 35.0030300551613)" fill="#dce1ed" fill-opacity="0.32156862745098" fill-rule="evenodd" stroke-opacity="0" stroke="#000000" stroke-width="0" stroke-linecap="square" stroke-linejoin="bevel" d="M17.0152 10.4229C11.5939 10.4229 3.41962 24.2882 17.2152 21.4111C19.9762 20.8353 43.4747 9.65532 44.1093 12.2464C45.0303 16.007 38.3556 21.5104 39.9681 25.3993C42.3484 31.1401 53.0048 29.665 47.7681 36.317C47.5249 36.6259 44.9552 41.4842 46.3328 41.7405C52.516 42.8909 58.8322 26.9083 64.8034 24.2582C66.9844 23.2902 77.3974 17.6144 79.4387 22.1052C80.4669 24.3673 46.6185 42.6398 61.5916 47.7405C67.0451 49.5983 71.5967 57.2682 77.0622 55.4464C81.8248 53.8589 90.7357 35.8214 81.874 57.8229C80.4085 61.4613 64.4182 56.8198 60.9916 56.4934C53.9353 55.8214 47.6369 66.0922 39.9799 60.6229C35.2832 57.2681 33.8066 45.6593 26.7211 43.1287C24.1335 42.2046 21.4521 42.1029 22.3328 38.4699C24.4084 29.9081 6.87678 30.3835 0.568123 15.4582C-1.03656 11.6617 1.24397 -0.856048 1.47401 0.0463921C2.81918 5.3236 -1.06177 11.1287 1.09753 16.2699C3.34996 21.6328 16.3257 9.4878 16.1328 9.58757" sodipodi:nodetypes="ccccccccccccccccccc"/><path id="shape6" transform="matrix(0.999999961908342 0 0 0.999999961908342 4.19523548168722 23.1628793071249)" fill="#dce1ed" fill-opacity="0.32156862745098" fill-rule="evenodd" stroke-opacity="0" stroke="#000000" stroke-width="0" stroke-linecap="square" stroke-linejoin="bevel" d="M40.2636 22.1454C35.8784 18.9296 6.67454 -11.3988 0.0282799 4.66301C-0.768229 6.5879 15.5043 11.0281 18.0753 12.1336C28.1323 16.4581 26.9148 31.2008 38.6871 24.3336C39.3977 23.9191 40.7398 20.1647 40.0047 21.663" sodipodi:nodetypes="ccccc"/><path id="shape7" transform="matrix(0.999999961908342 0 0 0.999999961908342 36.341159009873 0.967072850633881)" fill="#dce1ed" fill-opacity="0.32156862745098" fill-rule="evenodd" stroke-opacity="0" stroke="#000000" stroke-width="0" stroke-linecap="square" stroke-linejoin="bevel" d="M35.6471 36.8235C38.8471 28.6981 37.0471 22.1059 30.2471 17.0471L15.4706 2.30588L9.32941 0L1.54118 0.905882L0 5.88235L11.7412 7.30588L18.0118 7.12941L25.2235 22.553C29.9608 23.0157 33.4353 27.7725 35.6471 36.8235Z" sodipodi:nodetypes="cccccccccc"/>
</svg>
