<?xml version="1.0" standalone="no"?>
<!DOCTYPE svg PUBLIC "-//W3C//DTD SVG 20010904//EN" "http://www.w3.org/TR/2001/REC-SVG-20010904/DTD/svg10.dtd">
<!-- Created using Krita: https://krita.org -->
<svg xmlns="http://www.w3.org/2000/svg" 
    xmlns:xlink="http://www.w3.org/1999/xlink"
    xmlns:krita="http://krita.org/namespaces/svg/krita"
    xmlns:sodipodi="http://sodipodi.sourceforge.net/DTD/sodipodi-0.dtd"
    width="28.56pt"
    height="67.68pt"
    viewBox="0 0 28.56 67.68">
<defs/>
<rect id="shape0" transform="matrix(1.00000000564755 0 0 1.00000000564755 4.76235244284536 15.4800339758408)" fill="#531b39" fill-rule="evenodd" stroke-opacity="0" stroke="#000000" stroke-width="0" stroke-linecap="square" stroke-linejoin="bevel" width="22.3576512285287" height="47.7599811244105"/><ellipse id="shape01" transform="matrix(0.999999980563225 0 0 0.999999980563225 4.48047373198504 13.2753251096014)" rx="11.52" ry="2.97058188840171" cx="11.52" cy="2.97058188840171" fill="#585982" fill-rule="evenodd" stroke-opacity="0" stroke="#000000" stroke-width="0" stroke-linecap="square" stroke-linejoin="bevel"/><ellipse id="shape1" transform="matrix(1.00000000564755 0 0 1.00000000564755 9.36000369733955 15.240033974485)" rx="3.84" ry="1.08" cx="3.84" cy="1.08" fill="#191a28" fill-rule="evenodd" stroke-opacity="0" stroke="#000000" stroke-width="0" stroke-linecap="square" stroke-linejoin="bevel"/><path id="shape2" transform="matrix(1.00000000564755 0 0 1.00000000564755 6.97304649974327 23.9811943488584)" fill="#802655" fill-rule="evenodd" stroke-opacity="0" stroke="#000000" stroke-width="0" stroke-linecap="square" stroke-linejoin="bevel" d="M11.7305 0C-3.56998 0 10.8295 11.23 10.4011 12.8824C8.14755 21.5745 -9.16781 35.7376 6.48342 36.0706C10.9139 36.1649 21.131 29.7723 20.8364 25.0588C20.7758 24.0902 21.7472 14.319 19.3893 16.1529C11.945 21.943 10.5212 27.6859 13.8599 15.7059C14.7188 12.624 21.7995 4.21709 15.2011 3.03529C14.0661 2.83202 6.18761 10.7878 8.57754 3.83529C8.78522 3.23113 11.7024 -1.53154 10.7305 0.823529" sodipodi:nodetypes="ccccccccc"/><path id="shape3" transform="matrix(1.00000000564755 0 0 1.00000000564755 7.51666833120557 36.4572805967003)" fill="#f47b62" fill-rule="evenodd" stroke-opacity="0" stroke="#000000" stroke-width="0" stroke-linecap="square" stroke-linejoin="bevel" d="M1.82216 8.54744C1.56363 8.54744 2.09068 6.56123 2.16333 6.31215C6.75692 -9.43729 6.70175 8.63556 8.29274 13.6533C8.90042 15.5698 12.2275 23.5849 8.81039 24.7239C3.05648 26.6419 -3.16457 4.47156 1.82216 7.92391" sodipodi:nodetypes="ccccc"/><ellipse id="shape4" transform="matrix(1.00000000564755 0 0 1.00000000564755 20.8800037623994 23.8800340232801)" rx="1.56" ry="3.48" cx="1.56" cy="3.48" fill="#f47b62" fill-rule="evenodd" stroke-opacity="0" stroke="#000000" stroke-width="0" stroke-linecap="square" stroke-linejoin="bevel"/><path id="shape5" transform="matrix(1.00000000564755 0 0 1.00000000564755 15.3818649339439 7.99296007624811)" fill="#6e7c9d" fill-rule="evenodd" stroke-opacity="0" stroke="#000000" stroke-width="0" stroke-linecap="square" stroke-linejoin="bevel" d="M2.98048 8.67059L12.6393 4.61176L13.004 1.52941L9.2746 0C-0.413559 6.05782 -2.5116 8.94802 2.98048 8.67059Z" sodipodi:nodetypes="ccccc"/><path id="shape6" transform="matrix(1.00000000564755 0 0 1.00000000564755 5.25919668883232 20.3387696167512)" fill="#ffffff" fill-opacity="0.286274509803922" fill-rule="evenodd" stroke-opacity="0" stroke="#000000" stroke-width="0" stroke-linecap="square" stroke-linejoin="bevel" d="M5.20904 1.50125C2.31647 2.22439 3.68543 19.5751 3.57374 22.1718C3.50215 23.8363 3.14186 40.4542 4.09139 40.4542C6.10783 40.4542 2.17978 36.8752 1.58551 34.9483C0.35161 30.9475 -1.76377 1.77085 2.76198 0.0541896C3.57663 -0.254815 5.95837 0.834384 5.07962 1.3836" sodipodi:nodetypes="cccccc"/><ellipse id="shape011" transform="matrix(0.999999978952908 0 0 0.999999978952908 4.43153406217894 62.0047213312551)" rx="11.52" ry="2.83235201475901" cx="11.52" cy="2.83235201475901" fill="#585982" fill-rule="evenodd" stroke-opacity="0" stroke="#000000" stroke-width="0" stroke-linecap="square" stroke-linejoin="bevel"/><ellipse id="shape02" transform="matrix(0.999999999912815 0 0 0.999999999912815 4.96470919838739 59.8635449974697)" rx="11.2164677220948" ry="3.51764683438367" cx="11.2164677220948" cy="3.51764683438367" fill="#531b39" fill-rule="evenodd" stroke-opacity="0" stroke="#000000" stroke-width="0" stroke-linecap="square" stroke-linejoin="bevel"/><path id="shape7" transform="matrix(1.00000000564755 0 0 1.00000000564755 5.52321362790456 6.64746864476348)" fill="#dce1ed" fill-opacity="0.654901960784314" fill-rule="evenodd" stroke-opacity="0" stroke="#000000" stroke-width="0" stroke-linecap="square" stroke-linejoin="bevel" d="M1.41013 5.24433C-4.51661 9.19549 10.2188 14.0706 9.22581 6.12668C8.8177 2.8618 3.54725 7.0446 5.90424 2.3306C6.90027 0.338543 5.07764 -0.46278 3.54346 0.263937C2.51324 0.751937 0.382771 0.781229 1.05326 1.70315" sodipodi:nodetypes="ccccc"/><path id="shape8" transform="matrix(1.00000000564755 0 0 1.00000000564755 0.0897899230894612 2.05549124440247)" fill="#dce1ed" fill-opacity="0.654901960784314" fill-rule="evenodd" stroke-opacity="0" stroke="#000000" stroke-width="0" stroke-linecap="square" stroke-linejoin="bevel" d="M2.88825 0.231587C0.874855 -1.11067 -1.09577 3.7688 0.711779 4.94924C5.47627 8.06074 5.82782 -1.12055 3.10001 0.243351" sodipodi:nodetypes="ccc"/><path id="shape03" transform="matrix(0.999999973429589 0 0 0.999999973429589 12.0549056688773 -0.230103721376713)" fill="#dce1ed" fill-opacity="0.654901960784314" fill-rule="evenodd" stroke-opacity="0" stroke="#000000" stroke-width="0" stroke-linecap="square" stroke-linejoin="bevel" d="M1.65618 0.130277C0.501659 -0.624797 -0.628336 2.1201 0.408148 2.78414C3.14021 4.53449 3.34179 -0.630355 1.77761 0.136895" sodipodi:nodetypes="ccc"/>
</svg>
