<?xml version="1.0" standalone="no"?>
<!DOCTYPE svg PUBLIC "-//W3C//DTD SVG 20010904//EN" "http://www.w3.org/TR/2001/REC-SVG-20010904/DTD/svg10.dtd">
<!-- Created using Krita: https://krita.org -->
<svg xmlns="http://www.w3.org/2000/svg" 
    xmlns:xlink="http://www.w3.org/1999/xlink"
    xmlns:krita="http://krita.org/namespaces/svg/krita"
    xmlns:sodipodi="http://sodipodi.sourceforge.net/DTD/sodipodi-0.dtd"
    width="62.88pt"
    height="60.96pt"
    viewBox="0 0 62.88 60.96">
<defs/>
<path id="shape0" transform="matrix(0.999999979490875 0 0 0.999999979490875 0.0627419769056826 26.7403948622091)" fill="#585982" fill-rule="evenodd" stroke-opacity="0" stroke="#000000" stroke-width="0" stroke-linecap="square" stroke-linejoin="bevel" d="M0 17.2157L31.5373 34.1098L62.6745 12.9961L35.7882 10.8863L38.8314 0L0.745098 4.71373Z" sodipodi:nodetypes="ccccccc"/><path id="shape1" transform="matrix(0.999999979490875 0 0 0.999999979490875 4.21978168241702 9.11483276745381)" fill="none" stroke="#ffff7d" stroke-width="1.68" stroke-linecap="square" stroke-linejoin="bevel" d="M7.15276 36.1981C7.15276 31.4883 -4.02847 30.8843 1.56845 20.8099C9.89482 5.82241 17.0315 21.7892 22.3135 14.0883C26.2414 8.36174 31.5026 -2.20958 40.3684 0.409878C46.8768 2.33279 40.6289 20.5837 39.9763 25.406C39.6258 27.996 33.2901 33.4417 34.9096 31.3903" sodipodi:nodetypes="cccccc"/><path id="shape2" transform="matrix(0.999999979490875 0 0 0.999999979490875 1.35013186855542 -0.154711758394764)" fill="#ffff7d" fill-opacity="0.2" fill-rule="evenodd" stroke-opacity="0" stroke="#000000" stroke-width="0" stroke-linecap="square" stroke-linejoin="bevel" d="M0.626336 34.9814C-2.61718 34.9814 7.95121 16.2129 4.75183 16.7461C1.57152 17.2761 13.1104 23.6875 13.6616 20.5108C14.3482 16.554 15.1461 12.6242 15.8342 8.66766C16.9798 2.08028 17.6299 21.6888 19.9361 22.15C24.4973 23.0622 18.1741 18.3687 24.9008 16.1265C26.6277 15.5509 22.8873 1.9577 24.7832 0.636285C26.975 -0.891326 33.7603 16.2925 37.1283 3.21668C37.3976 2.17109 37.9291 -0.801382 38.3205 0.204912C48.5831 26.5945 33.7287 2.55697 36.3361 20.8088C36.655 23.0412 17.9851 31.1254 16.7126 29.2637C14.3128 25.7529 2.81654 39.3953 5.28516 36.6363" sodipodi:nodetypes="cccccccccccc"/><ellipse id="shape3" transform="matrix(0.999999979490875 0 0 0.999999979490875 24.9599997801954 49.9200211119092)" rx="4.2" ry="2.16" cx="4.2" cy="2.16" fill="none" stroke="#6ec8fa" stroke-width="1.2" stroke-linecap="square" stroke-linejoin="bevel"/><path id="shape4" transform="matrix(0.999999979490875 0 0 0.999999979490875 18.752936537775 36.3874529024414)" fill="none" stroke="#6ec8fa" stroke-width="0.72" stroke-linecap="square" stroke-linejoin="miter" stroke-miterlimit="2" d="M0 1.56863L12.298 0" sodipodi:nodetypes="cc"/><path id="shape5" transform="matrix(0.999999979490875 0 0 0.999999979490875 27.3411711345712 36.5521587714214)" fill="none" stroke="#6ec8fa" stroke-width="0.72" stroke-linecap="square" stroke-linejoin="miter" stroke-miterlimit="2" d="M3.91373 0L0 8.15686" sodipodi:nodetypes="cc"/><path id="shape6" transform="matrix(0.999999979490875 0 0 0.999999979490875 34.6117587795268 46.269805041216)" fill="none" stroke="#f47b62" stroke-width="0.72" stroke-linecap="square" stroke-linejoin="miter" stroke-miterlimit="2" d="M0 0L7.82745 1.11373" sodipodi:nodetypes="cc"/><path id="shape7" transform="matrix(0.999999979490875 0 0 0.999999979490875 18.1725444280412 31.6266689752698)" fill="none" stroke="#6ec8fa" stroke-width="0.5376" stroke-linecap="square" stroke-linejoin="miter" stroke-miterlimit="2" d="M0 1.99216L13.5843 0" sodipodi:nodetypes="cc"/><path id="shape8" transform="matrix(0.999999979490875 0 0 0.999999979490875 45.4745029955609 41.9639230378928)" fill="none" stroke="#6ec8fa" stroke-width="0.5376" stroke-linecap="square" stroke-linejoin="miter" stroke-miterlimit="2" d="M0 0L7.77255 0.564706" sodipodi:nodetypes="cc"/><ellipse id="shape9" transform="matrix(0.999999979490875 0 0 0.999999979490875 36.2399995488525 40.3200213087968)" rx="3" ry="1.08000000000001" cx="3" cy="1.08000000000001" fill="#ffff7d" fill-opacity="0.2" fill-rule="evenodd" stroke="#ffff7d" stroke-width="0.96" stroke-linecap="square" stroke-linejoin="bevel"/><ellipse id="shape10" transform="matrix(0.999999979490875 0 0 0.999999979490875 9.12000010505995 44.8800212152752)" rx="2.52" ry="1.19999999999999" cx="2.52" cy="1.19999999999999" fill="#ffff7d" fill-opacity="0.2" fill-rule="evenodd" stroke="#ffff7d" stroke-width="0.96" stroke-linecap="square" stroke-linejoin="bevel"/>
</svg>
