<?xml version="1.0" standalone="no"?>
<!DOCTYPE svg PUBLIC "-//W3C//DTD SVG 20010904//EN" "http://www.w3.org/TR/2001/REC-SVG-20010904/DTD/svg10.dtd">
<!-- Created using Krita: https://krita.org -->
<svg xmlns="http://www.w3.org/2000/svg" 
    xmlns:xlink="http://www.w3.org/1999/xlink"
    xmlns:krita="http://krita.org/namespaces/svg/krita"
    xmlns:sodipodi="http://sodipodi.sourceforge.net/DTD/sodipodi-0.dtd"
    width="35.04pt"
    height="31.2pt"
    viewBox="0 0 35.04 31.2">
<defs/>
<path id="shape0" transform="matrix(0.999999958981751 0 0 0.999999958981751 0.861176255440334 1.78199493645334)" fill="#2e304a" fill-rule="evenodd" stroke="#595465" stroke-width="0.7752" stroke-linecap="square" stroke-linejoin="bevel" d="M0 0.494118L0.101961 22.6745L19.1059 22.4863L19.3333 14.4235L33.1529 14.2745L33.5922 0L0 0.494118" sodipodi:nodetypes="ccccccc"/><path id="shape1" transform="matrix(0.999999958981751 0 0 0.999999958981751 4.13176423917832 4.63689667765378)" fill="none" stroke="#dbeaf2" stroke-width="0.7752" stroke-linecap="square" stroke-linejoin="miter" stroke-miterlimit="2" d="M0 0L0.211765 3.6" sodipodi:nodetypes="cc"/><path id="shape2" transform="matrix(0.999999958981751 0 0 0.999999958981751 6.83764638399736 4.58199472109224)" fill="none" stroke="#dbeaf2" stroke-width="0.7752" stroke-linecap="square" stroke-linejoin="miter" stroke-miterlimit="2" d="M0 0L0.27451 3.01961" sodipodi:nodetypes="cc"/><path id="shape3" transform="matrix(0.999999958981751 0 0 0.999999958981751 9.93568536139897 5.0682691934945)" fill="none" stroke="#dbeaf2" stroke-width="0.7752" stroke-linecap="square" stroke-linejoin="miter" stroke-miterlimit="2" d="M0 0L0.156863 3.56863" sodipodi:nodetypes="cc"/><path id="shape4" transform="matrix(0.999999958981751 0 0 0.999999958981751 13.4494105813379 4.65258295095707)" fill="none" stroke="#dbeaf2" stroke-width="0.7752" stroke-linecap="square" stroke-linejoin="miter" stroke-miterlimit="2" d="M0 0L0.329412 4.25098" sodipodi:nodetypes="cc"/><rect id="shape5" transform="matrix(0.999999958981751 0 0 0.999999958981751 3.11999981787887 5.19913315016695)" fill="#2e304a" fill-rule="evenodd" stroke-opacity="0.286274509803922" stroke="#dbeaf2" stroke-width="0.24" stroke-linecap="square" stroke-linejoin="bevel" width="7.68" height="2.16"/><ellipse id="shape6" transform="matrix(0.999999958981751 0 0 0.999999958981751 12.7199994241037 6.00003408616477)" rx="0.959999999999999" ry="0.96" cx="0.959999999999999" cy="0.96" fill="#fb3b02" fill-rule="evenodd" stroke="#dbeaf2" stroke-width="0.7752" stroke-linecap="square" stroke-linejoin="bevel"/><path id="shape7" transform="matrix(0.999999958981751 0 0 0.999999958981751 3.90117627894438 10.0165045482672)" fill="none" stroke="#8af462" stroke-width="0.7752" stroke-linecap="square" stroke-linejoin="miter" stroke-miterlimit="2" d="M0.0333333 0L0 5.05882" sodipodi:nodetypes="cc"/><path id="shape8" transform="matrix(0.999999958981751 0 0 0.999999958981751 3.91490176862473 15.02434749735)" fill="none" stroke="#8af462" stroke-width="0.7752" stroke-linecap="square" stroke-linejoin="miter" stroke-miterlimit="2" d="M0 0L7.15098 0.0235294" sodipodi:nodetypes="cc"/><path id="shape9" transform="matrix(0.999999958981751 0 0 0.999999958981751 11.2109799258437 14.900818090227)" fill="none" stroke="#8af462" stroke-width="0.7752" stroke-linecap="square" stroke-linejoin="miter" stroke-miterlimit="2" d="M0.027451 0L0 6.53529" sodipodi:nodetypes="cc"/><path id="shape10" transform="matrix(0.999999958981751 0 0 0.999999958981751 8.64627413986067 15.4145435611195)" fill="none" stroke="#8af462" stroke-width="0.7752" stroke-linecap="square" stroke-linejoin="miter" stroke-miterlimit="2" d="M0.00196078 0L0 3.19804" sodipodi:nodetypes="cc"/><path id="shape11" transform="matrix(0.999999958981751 0 0 0.999999958981751 19.2364698203604 4.93023022958248)" fill="none" stroke="#8af462" stroke-width="0.7752" stroke-linecap="square" stroke-linejoin="miter" stroke-miterlimit="2" d="M0 0L0.00980392 5.01765" sodipodi:nodetypes="cc"/><path id="shape12" transform="matrix(0.999999958981751 0 0 0.999999958981751 19.3149011899623 9.97140651074612)" fill="none" stroke="#8af462" stroke-width="0.7752" stroke-linecap="square" stroke-linejoin="miter" stroke-miterlimit="2" d="M0 0L13.1294 0.0176471" sodipodi:nodetypes="cc"/><ellipse id="shape13" transform="matrix(0.999999958981751 0 0 0.999999958981751 31.4399986562421 9.12003395818783)" rx="0.84" ry="0.720000000000001" cx="0.84" cy="0.720000000000001" fill="none" stroke="#8af462" stroke-width="0.7752" stroke-linecap="square" stroke-linejoin="bevel"/><ellipse id="shape14" transform="matrix(0.999999958981751 0 0 0.999999958981751 31.9199986365533 9.12003395818783)" rx="0.120000000000001" ry="0.36" cx="0.120000000000001" cy="0.36" fill="none" stroke="#8af462" stroke-width="0.7752" stroke-linecap="square" stroke-linejoin="bevel"/><ellipse id="shape15" transform="matrix(0.999999958981751 0 0 0.999999958981751 32.1599986267089 9.60003393849907)" rx="0.120000000000001" ry="0.12" cx="0.120000000000001" cy="0.12" fill="none" stroke="#8af462" stroke-width="0.7752" stroke-linecap="square" stroke-linejoin="bevel"/><path id="shape16" transform="matrix(0.999999958981751 0 0 0.999999958981751 11.2011760046433 11.0008182367714)" fill="none" stroke="#6ec8fa" stroke-width="0.7752" stroke-linecap="square" stroke-linejoin="miter" stroke-miterlimit="2" d="M0.0588235 0L0 1.62941" sodipodi:nodetypes="cc"/><path id="shape17" transform="matrix(0.999999958981751 0 0 0.999999958981751 11.1776465937628 12.9106220865782)" fill="none" stroke="#6ec8fa" stroke-width="0.7752" stroke-linecap="square" stroke-linejoin="miter" stroke-miterlimit="2" d="M0 0L8.47451 0.00392157" sodipodi:nodetypes="cc"/><rect id="shape18" transform="matrix(0.999999958981751 0 0 0.999999958981751 13.1999994044149 16.560033653012)" fill="none" stroke="#6ec8fa" stroke-width="0.7752" stroke-linecap="square" stroke-linejoin="bevel" width="4.8" height="5.28"/><path id="shape19" transform="matrix(0.999999958981751 0 0 0.999999958981751 15.8050974002762 13.2576808970667)" fill="none" stroke="#8af462" stroke-width="0.7752" stroke-linecap="square" stroke-linejoin="miter" stroke-miterlimit="2" d="M0 3.08627L0.0196078 0" sodipodi:nodetypes="cc"/><ellipse id="shape20" transform="matrix(0.999999958981751 0 0 0.999999958981751 16.319999276438 20.400033495502)" rx="0.360000000000001" ry="0.24" cx="0.360000000000001" cy="0.24" fill="none" stroke="#8af462" stroke-width="0.7752" stroke-linecap="square" stroke-linejoin="bevel"/><ellipse id="shape21" transform="matrix(0.999999958981751 0 0 0.999999958981751 14.3999993551931 20.400033495502)" rx="0.359999999999999" ry="0.24" cx="0.359999999999999" cy="0.24" fill="none" stroke="#fb3b02" stroke-width="0.7752" stroke-linecap="square" stroke-linejoin="bevel"/><ellipse id="shape22" transform="matrix(0.999999958981751 0 0 0.999999958981751 18.2399991976829 3.36003419445295)" rx="0.959999999999999" ry="0.96" cx="0.959999999999999" cy="0.96" fill="none" stroke="#fb3b02" stroke-width="0.7752" stroke-linecap="square" stroke-linejoin="bevel"/><ellipse id="shape23" transform="matrix(0.999999958981751 0 0 0.999999958981751 21.8399990500173 11.2800338695884)" rx="1.68" ry="1.56" cx="1.68" cy="1.56" fill="none" stroke="#fb3b02" stroke-width="0.7752" stroke-linecap="square" stroke-linejoin="bevel"/><path id="shape24" transform="matrix(0.999999958981751 0 0 0.999999958981751 23.3992147619825 4.03415183188049)" fill="none" stroke="#8af462" stroke-width="0.7752" stroke-linecap="square" stroke-linejoin="miter" stroke-miterlimit="2" d="M0 0.0117647L10.9451 0" sodipodi:nodetypes="cc"/><path id="shape25" transform="matrix(0.999999958981751 0 0 0.999999958981751 30.0050968667045 6.4851321319406)" fill="none" stroke="#8af462" stroke-width="0.7752" stroke-linecap="square" stroke-linejoin="miter" stroke-miterlimit="2" d="M0 0L4.36471 0.0431373" sodipodi:nodetypes="cc"/>
</svg>
