<?xml version="1.0" standalone="no"?>
<!DOCTYPE svg PUBLIC "-//W3C//DTD SVG 20010904//EN" "http://www.w3.org/TR/2001/REC-SVG-20010904/DTD/svg10.dtd">
<!-- Created using Krita: https://krita.org -->
<svg xmlns="http://www.w3.org/2000/svg" 
    xmlns:xlink="http://www.w3.org/1999/xlink"
    xmlns:krita="http://krita.org/namespaces/svg/krita"
    xmlns:sodipodi="http://sodipodi.sourceforge.net/DTD/sodipodi-0.dtd"
    width="191.28pt"
    height="138.72pt"
    viewBox="0 0 191.28 138.72">
<defs/>
<path id="shape0" transform="matrix(0.999999917963504 0 0 0.999999917963504 5.27292811771055 0.225912701173007)" fill="#ab2e39" fill-opacity="0.6" fill-rule="evenodd" stroke-opacity="0" stroke="#000000" stroke-width="0" stroke-linecap="square" stroke-linejoin="bevel" d="M20.5882 0L4.64706 14.9647L0 35.4471L12.8 20.4824L4.10588 45.6941L3.4 69.0824L13.3529 47.8824L12.3412 90.6588L23.8353 119.835L35.0118 136.529L49.4824 117.141L53.7059 70.3412L53.8706 51.9529L59.6235 74.8353L58.7529 80.0941L65.6824 60.7412L59.9647 38.6471L56.9412 26.9412L64.3294 35.9176L67.1412 45.7294L68.1412 20.6118L55.5412 7.03529L58.7882 1.51765L47.9176 2.05882L20.5882 0" sodipodi:nodetypes="ccccccccccccccccccccccccc"/><path id="shape01" transform="matrix(-0.999999958101816 0 0 0.999999958101816 187.202324134767 2.07883646230428)" fill="#ab2e39" fill-opacity="0.6" fill-rule="evenodd" stroke-opacity="0" stroke="#000000" stroke-width="0" stroke-linecap="square" stroke-linejoin="bevel" d="M20.1261 0L4.54276 14.9647L0 35.4471L12.5127 20.4824L4.01372 45.6941L3.32369 69.0824L13.0532 47.8824L12.0642 90.6588L23.3003 119.835L34.226 136.529L48.3718 117.141L52.5005 70.3412L52.6615 51.9529L58.2852 74.8353L57.4342 80.0941L64.2081 60.7412L58.6188 38.6471L55.6631 26.9412L62.8855 35.9176L65.6342 45.7294L66.6118 20.6118L54.2946 7.03529L57.4687 1.51765L46.8421 2.05882L20.1261 0" sodipodi:nodetypes="ccccccccccccccccccccccccc"/><path id="shape1" transform="matrix(0.999999917963504 0 0 0.999999917963504 13.5552803419739 1.72003021890293)" fill="#ab2e39" fill-opacity="0.6" fill-rule="evenodd" stroke-opacity="0" stroke="#000000" stroke-width="0" stroke-linecap="square" stroke-linejoin="bevel" d="M14 1.74118L3.45882 10.6824L0 18.1647L10.0353 12.9412L4.92941 29.8824L3.32941 40.2353L12.0941 33.9882L11.6235 59.6824L20.2706 80.0588L27.2706 90.0941L34.9176 65.8941L37.9882 35.7412L46.4706 40.0353L49.6353 49.6L43.6471 26.7294L44.1765 17.1647L55.0235 24.2471L47.0118 10.1176L43.9882 4.21176L35.6353 4.84706L33.1882 0L14 1.74118" sodipodi:nodetypes="cccccccccccccccccccccc"/><path id="shape011" transform="matrix(0.999999929240333 0 0 0.999999929240333 128.95174039183 4.64709384574783)" fill="#ab2e39" fill-opacity="0.6" fill-rule="evenodd" stroke-opacity="0" stroke="#000000" stroke-width="0" stroke-linecap="square" stroke-linejoin="bevel" d="M14 1.74118L3.45882 10.6824L0 18.1647L10.0353 12.9412L4.92941 29.8824L3.32941 40.2353L12.0941 33.9882L11.6235 59.6824L20.2706 80.0588L27.2706 90.0941L34.9176 65.8941L37.9882 35.7412L46.4706 40.0353L49.6353 49.6L43.6471 26.7294L44.1765 17.1647L55.0235 24.2471L47.0118 10.1176L43.9882 4.21176L35.6353 4.84706L33.1882 0L14 1.74118" sodipodi:nodetypes="cccccccccccccccccccccc"/><path id="shape2" transform="matrix(0.999999917963504 0 0 0.999999917963504 139.684681189028 3.33179478527215)" fill="#fffd91" fill-opacity="0.498039215686275" fill-rule="evenodd" stroke-opacity="0" stroke="#000000" stroke-width="0" stroke-linecap="square" stroke-linejoin="bevel" d="M7.91765 2.89412L0 8.76471L6.07059 10.5529L0.894118 23.6353L7.45882 21.6L8.38824 44.7176L15.2588 56.4941L18.1882 35.8353L25.0588 29.6118L29.5529 34.5059L21.9647 21.3529L31.1882 14.6588L35.2824 16.3412L22.8471 12.0706L15.6941 15.2353L21.6 6.43529L19.1882 0L7.91765 2.89412" sodipodi:nodetypes="cccccccccccccccccc"/><path id="shape3" transform="matrix(0.999999917963504 0 0 0.999999917963504 21.4376326008607 3.92003002847271)" fill="#ffff99" fill-opacity="0.466666666666667" fill-rule="evenodd" stroke-opacity="0" stroke="#000000" stroke-width="0" stroke-linecap="square" stroke-linejoin="bevel" d="M10.2706 0L0 7.90588L6.6 12.4471L2.61176 23.1294L6.35294 27.6471L16.0588 16.8824L11.2471 39.0235L13.5176 53.0353L19.3647 60.4588L21.3647 35.6235L24.2941 23.0588L30.8941 27.4353L27.3176 17.6L34.6941 10.5176L38.4 12.6588L26.0941 7.2L21.3765 10.8471L22.4353 1.58824L10.2706 0" sodipodi:nodetypes="ccccccccccccccccccc"/><path id="shape4" transform="matrix(0.999999917963504 0 0 0.999999917963504 5.27292811771055 0.225912701173007)" fill="#ab2e39" fill-opacity="0.6" fill-rule="evenodd" stroke-opacity="0" stroke="#000000" stroke-width="0" stroke-linecap="square" stroke-linejoin="bevel" d="M20.5882 0L4.64706 14.9647L0 35.4471L12.8 20.4824L4.10588 45.6941L3.4 69.0824L13.3529 47.8824L12.3412 90.6588L23.8353 119.835L35.0118 136.529L49.4824 117.141L53.7059 70.3412L53.8706 51.9529L59.6235 74.8353L58.7529 80.0941L65.6824 60.7412L59.9647 38.6471L56.9412 26.9412L64.3294 35.9176L67.1412 45.7294L68.1412 20.6118L55.5412 7.03529L58.7882 1.51765L47.9176 2.05882L20.5882 0" sodipodi:nodetypes="ccccccccccccccccccccccccc"/><path id="shape02" transform="matrix(-0.999999958101816 0 0 0.999999958101816 187.202324134767 2.07883646230428)" fill="#ab2e39" fill-opacity="0.6" fill-rule="evenodd" stroke-opacity="0" stroke="#000000" stroke-width="0" stroke-linecap="square" stroke-linejoin="bevel" d="M20.1261 0L4.54276 14.9647L0 35.4471L12.5127 20.4824L4.01372 45.6941L3.32369 69.0824L13.0532 47.8824L12.0642 90.6588L23.3003 119.835L34.226 136.529L48.3718 117.141L52.5005 70.3412L52.6615 51.9529L58.2852 74.8353L57.4342 80.0941L64.2081 60.7412L58.6188 38.6471L55.6631 26.9412L62.8855 35.9176L65.6342 45.7294L66.6118 20.6118L54.2946 7.03529L57.4687 1.51765L46.8421 2.05882L20.1261 0" sodipodi:nodetypes="ccccccccccccccccccccccccc"/><path id="shape5" transform="matrix(0.999999917963504 0 0 0.999999917963504 13.5552803419739 1.72003021890293)" fill="#ab2e39" fill-opacity="0.6" fill-rule="evenodd" stroke-opacity="0" stroke="#000000" stroke-width="0" stroke-linecap="square" stroke-linejoin="bevel" d="M14 1.74118L3.45882 10.6824L0 18.1647L10.0353 12.9412L4.92941 29.8824L3.32941 40.2353L12.0941 33.9882L11.6235 59.6824L20.2706 80.0588L27.2706 90.0941L34.9176 65.8941L37.9882 35.7412L46.4706 40.0353L49.6353 49.6L43.6471 26.7294L44.1765 17.1647L55.0235 24.2471L47.0118 10.1176L43.9882 4.21176L35.6353 4.84706L33.1882 0L14 1.74118" sodipodi:nodetypes="cccccccccccccccccccccc"/><path id="shape03" transform="matrix(0.999999929240333 0 0 0.999999929240333 128.95174039183 4.64709384574783)" fill="#ab2e39" fill-opacity="0.6" fill-rule="evenodd" stroke-opacity="0" stroke="#000000" stroke-width="0" stroke-linecap="square" stroke-linejoin="bevel" d="M14 1.74118L3.45882 10.6824L0 18.1647L10.0353 12.9412L4.92941 29.8824L3.32941 40.2353L12.0941 33.9882L11.6235 59.6824L20.2706 80.0588L27.2706 90.0941L34.9176 65.8941L37.9882 35.7412L46.4706 40.0353L49.6353 49.6L43.6471 26.7294L44.1765 17.1647L55.0235 24.2471L47.0118 10.1176L43.9882 4.21176L35.6353 4.84706L33.1882 0L14 1.74118" sodipodi:nodetypes="cccccccccccccccccccccc"/><path id="shape6" transform="matrix(0.999999917963504 0 0 0.999999917963504 139.684681189028 3.33179478527215)" fill="#fffd91" fill-opacity="0.498039215686275" fill-rule="evenodd" stroke-opacity="0" stroke="#000000" stroke-width="0" stroke-linecap="square" stroke-linejoin="bevel" d="M7.91765 2.89412L0 8.76471L6.07059 10.5529L0.894118 23.6353L7.45882 21.6L8.38824 44.7176L15.2588 56.4941L18.1882 35.8353L25.0588 29.6118L29.5529 34.5059L21.9647 21.3529L31.1882 14.6588L35.2824 16.3412L22.8471 12.0706L15.6941 15.2353L21.6 6.43529L19.1882 0L7.91765 2.89412" sodipodi:nodetypes="cccccccccccccccccc"/><path id="shape7" transform="matrix(0.999999917963504 0 0 0.999999917963504 21.4376326008607 3.92003002847271)" fill="#ffff99" fill-opacity="0.466666666666667" fill-rule="evenodd" stroke-opacity="0" stroke="#000000" stroke-width="0" stroke-linecap="square" stroke-linejoin="bevel" d="M10.2706 0L0 7.90588L6.6 12.4471L2.61176 23.1294L6.35294 27.6471L16.0588 16.8824L11.2471 39.0235L13.5176 53.0353L19.3647 60.4588L21.3647 35.6235L24.2941 23.0588L30.8941 27.4353L27.3176 17.6L34.6941 10.5176L38.4 12.6588L26.0941 7.2L21.3765 10.8471L22.4353 1.58824L10.2706 0" sodipodi:nodetypes="ccccccccccccccccccc"/>
</svg>
