<?xml version="1.0" standalone="no"?>
<!DOCTYPE svg PUBLIC "-//W3C//DTD SVG 20010904//EN" "http://www.w3.org/TR/2001/REC-SVG-20010904/DTD/svg10.dtd">
<!-- Created using Krita: https://krita.org -->
<svg xmlns="http://www.w3.org/2000/svg" 
    xmlns:xlink="http://www.w3.org/1999/xlink"
    xmlns:krita="http://krita.org/namespaces/svg/krita"
    xmlns:sodipodi="http://sodipodi.sourceforge.net/DTD/sodipodi-0.dtd"
    width="191.28pt"
    height="138.72pt"
    viewBox="0 0 191.28 138.72">
<defs/>
<path id="shape0" transform="matrix(0.999999876547378 0 0 0.999999876547378 5.27292074474087 0.225888647270993)" fill="#ab2e39" fill-opacity="0.6" fill-rule="evenodd" stroke-opacity="0" stroke="#000000" stroke-width="0" stroke-linecap="square" stroke-linejoin="bevel" d="M20.5882 0L4.64706 14.9647L0 35.4471L12.8 20.4824L4.10588 45.6941L3.4 69.0824L13.3529 47.8824L12.3412 90.6588L23.8353 119.835L36.6 123.193L59.8353 102.393L61.9882 81.6636L55.1412 63.1459L66.9412 74.4283L73.8235 75.5106L71.0588 58.7341L59.9647 38.6471L56.9412 26.9412L64.3294 35.9176L67.1412 45.7294L68.1412 20.6118L55.5412 7.03529L58.7882 1.51765L47.9176 2.05882L20.5882 0" sodipodi:nodetypes="ccccccccccccccccccccccccc"/><path id="shape1" transform="matrix(0.999999876547378 0 0 0.999999876547378 13.5552726259813 1.72000610311993)" fill="#ab2e39" fill-opacity="0.6" fill-rule="evenodd" stroke-opacity="0" stroke="#000000" stroke-width="0" stroke-linecap="square" stroke-linejoin="bevel" d="M14 1.74118L3.45882 10.6824L0 18.1647L10.0353 12.9412L4.92941 29.8824L3.32941 40.2353L12.0941 33.9882L18.2941 60.8047L20.2706 80.0588L34.5412 69.1577L49.0235 79.0871L37.9882 35.7412L46.4706 40.0353L49.6353 49.6L43.6471 26.7294L44.1765 17.1647L55.0235 24.2471L47.0118 10.1176L43.9882 4.21176L35.6353 4.84706L33.1882 0L14 1.74118" sodipodi:nodetypes="cccccccccccccccccccccc"/><path id="shape3" transform="matrix(0.999999876547378 0 0 0.999999876547378 21.437624558411 3.92000582157482)" fill="#ffff99" fill-opacity="0.466666666666667" fill-rule="evenodd" stroke-opacity="0" stroke="#000000" stroke-width="0" stroke-linecap="square" stroke-linejoin="bevel" d="M10.2706 0L0 7.90588L12.0941 8.5812L11.4235 13.5577L10.7412 28.9224L16.0588 16.8824L19.8471 38.7106L12.2941 50.0988L19.3647 60.4588L28.2706 38.3694L24.2941 23.0588L30.8941 27.4353L20.9059 18.24L34.6941 10.5176L38.4 12.6588L26.8471 12.5459L31 2.75767L22.4353 1.58824L10.2706 0" sodipodi:nodetypes="ccccccccccccccccccc"/><path id="shape4" transform="matrix(0.999999876547378 0 0 0.999999876547378 -0.0682478905507422 0.225888647270993)" fill="#ab2e39" fill-opacity="0.6" fill-rule="evenodd" stroke-opacity="0" stroke="#000000" stroke-width="0" stroke-linecap="square" stroke-linejoin="bevel" d="M25.9294 0L9.98823 14.9647L0 53.44L18.1412 20.4824L9.44705 45.6941L8.41177 73.5106L16.7882 58.5341L17.6824 90.6588L29.1765 119.835L40.9176 119.322L68.5294 103.087L68.4353 80.0753L61.7059 65.6047L71.8471 71.6871L78.3412 76.3812L75.6353 54.9459L65.3059 38.6471L62.2824 26.9412L69.6706 35.9176L72.4824 45.7294L73.4824 20.6118L60.8824 7.03529L64.1294 1.51765L53.2588 2.05882L25.9294 0" sodipodi:nodetypes="ccccccccccccccccccccccccc"/><path id="shape5" transform="matrix(0.999999876547378 0 0 0.999999876547378 13.5552726259813 1.72000610311993)" fill="#ab2e39" fill-opacity="0.6" fill-rule="evenodd" stroke-opacity="0" stroke="#000000" stroke-width="0" stroke-linecap="square" stroke-linejoin="bevel" d="M14 1.74118L3.45882 10.6824L0 18.1647L18.7412 11.0047L4.92941 29.8824L3.32941 40.2353L12.0941 33.9882L19.8941 60.193L11.5882 81.8636L34.353 69.0165L47.0588 80.193L37.9882 35.7412L46.4706 40.0353L49.6353 49.6L43.6471 26.7294L44.1765 17.1647L55.0235 24.2471L47.0118 10.1176L43.9882 4.21176L35.6353 4.84706L33.1882 0L14 1.74118" sodipodi:nodetypes="cccccccccccccccccccccc"/><path id="shape7" transform="matrix(0.999999876547378 0 0 0.999999876547378 21.437624558411 3.92000582157482)" fill="#ffff99" fill-opacity="0.466666666666667" fill-rule="evenodd" stroke-opacity="0" stroke="#000000" stroke-width="0" stroke-linecap="square" stroke-linejoin="bevel" d="M10.2706 0L0 7.90588L6.6 12.4471L10.6118 19.2047L11.3177 24.0518L16.0588 16.8824L19.9882 38.4518L31.4118 44.84L19.3647 60.4588L21.3647 35.6235L24.2941 23.0588L30.8941 27.4353L27.3176 17.6L34.6941 10.5176L38.4 12.6588L23.7412 13.4636L30 4.45179L22.4353 1.58824L10.2706 0" sodipodi:nodetypes="ccccccccccccccccccc"/><path id="shape01" transform="matrix(-0.907118783287231 0 0 0.999999870998562 182.169013865028 1.4393024437649)" fill="#ab2e39" fill-opacity="0.6" fill-rule="evenodd" stroke-opacity="0" stroke="#000000" stroke-width="0" stroke-linecap="square" stroke-linejoin="bevel" d="M20.5882 0L4.64706 14.9647L0 35.4471L12.8 20.4824L4.10588 45.6941L3.4 69.0824L13.3529 47.8824L12.3412 90.6588L23.8353 119.835L36.6 123.193L59.8353 102.393L61.9882 81.6636L55.1412 63.1459L66.9412 74.4283L73.8235 75.5106L71.0588 58.7341L59.9647 38.6471L56.9412 26.9412L64.3294 35.9176L67.1412 45.7294L68.1412 20.6118L55.5412 7.03529L58.7882 1.51765L47.9176 2.05882L20.5882 0" sodipodi:nodetypes="ccccccccccccccccccccccccc"/><path id="shape11" transform="matrix(-0.907118783287231 0 0 0.999999870998562 174.65593597625 2.93341989132276)" fill="#ab2e39" fill-opacity="0.6" fill-rule="evenodd" stroke-opacity="0" stroke="#000000" stroke-width="0" stroke-linecap="square" stroke-linejoin="bevel" d="M14 1.74118L3.45882 10.6824L0 18.1647L10.0353 12.9412L4.92941 29.8824L3.32941 40.2353L12.0941 33.9882L18.2941 60.8047L20.2706 80.0588L34.5412 69.1577L49.0235 79.0871L37.9882 35.7412L46.4706 40.0353L49.6353 49.6L43.6471 26.7294L44.1765 17.1647L55.0235 24.2471L47.0118 10.1176L43.9882 4.21176L35.6353 4.84706L33.1882 0L14 1.74118" sodipodi:nodetypes="cccccccccccccccccccccc"/><path id="shape31" transform="matrix(-0.907118783287231 0 0 0.999999870998562 167.505705599147 5.13341959756962)" fill="#ffff99" fill-opacity="0.466666666666667" fill-rule="evenodd" stroke-opacity="0" stroke="#000000" stroke-width="0" stroke-linecap="square" stroke-linejoin="bevel" d="M10.2706 0L0 7.90588L12.0941 8.5812L11.4235 13.5577L10.7412 28.9224L16.0588 16.8824L19.8471 38.7106L12.2941 50.0988L19.3647 60.4588L28.2706 38.3694L24.2941 23.0588L30.8941 27.4353L20.9059 18.24L34.6941 10.5176L38.4 12.6588L26.8471 12.5459L31 2.75767L22.4353 1.58824L10.2706 0" sodipodi:nodetypes="ccccccccccccccccccc"/><path id="shape41" transform="matrix(-0.907118783287231 0 0 0.999999870998562 187.014088856941 1.4393024437649)" fill="#ab2e39" fill-opacity="0.6" fill-rule="evenodd" stroke-opacity="0" stroke="#000000" stroke-width="0" stroke-linecap="square" stroke-linejoin="bevel" d="M25.9294 0L9.98823 14.9647L0 53.44L18.1412 20.4824L9.44705 45.6941L8.41177 73.5106L16.7882 58.5341L17.6824 90.6588L29.1765 119.835L40.9176 119.322L68.5294 103.087L68.4353 80.0753L61.7059 65.6047L71.8471 71.6871L78.3412 76.3812L75.6353 54.9459L65.3059 38.6471L62.2824 26.9412L69.6706 35.9176L72.4824 45.7294L73.4824 20.6118L60.8824 7.03529L64.1294 1.51765L53.2588 2.05882L25.9294 0" sodipodi:nodetypes="ccccccccccccccccccccccccc"/><path id="shape51" transform="matrix(-0.907118783287231 0 0 0.999999870998562 174.65593597625 2.93341989132276)" fill="#ab2e39" fill-opacity="0.6" fill-rule="evenodd" stroke-opacity="0" stroke="#000000" stroke-width="0" stroke-linecap="square" stroke-linejoin="bevel" d="M14 1.74118L3.45882 10.6824L0 18.1647L18.7412 11.0047L4.92941 29.8824L3.32941 40.2353L12.0941 33.9882L19.8941 60.193L11.5882 81.8636L34.353 69.0165L47.0588 80.193L37.9882 35.7412L46.4706 40.0353L49.6353 49.6L43.6471 26.7294L44.1765 17.1647L55.0235 24.2471L47.0118 10.1176L43.9882 4.21176L35.6353 4.84706L33.1882 0L14 1.74118" sodipodi:nodetypes="cccccccccccccccccccccc"/><path id="shape71" transform="matrix(-0.907118783287231 0 0 0.999999870998562 167.505705599147 5.13341959756962)" fill="#ffff99" fill-opacity="0.466666666666667" fill-rule="evenodd" stroke-opacity="0" stroke="#000000" stroke-width="0" stroke-linecap="square" stroke-linejoin="bevel" d="M10.2706 0L0 7.90588L6.6 12.4471L10.6118 19.2047L11.3177 24.0518L16.0588 16.8824L19.9882 38.4518L31.4118 44.84L19.3647 60.4588L21.3647 35.6235L24.2941 23.0588L30.8941 27.4353L27.3176 17.6L34.6941 10.5176L38.4 12.6588L23.7412 13.4636L30 4.45179L22.4353 1.58824L10.2706 0" sodipodi:nodetypes="ccccccccccccccccccc"/>
</svg>
