<?xml version="1.0" standalone="no"?>
<!DOCTYPE svg PUBLIC "-//W3C//DTD SVG 20010904//EN" "http://www.w3.org/TR/2001/REC-SVG-20010904/DTD/svg10.dtd">
<!-- Created using Krita: https://krita.org -->
<svg xmlns="http://www.w3.org/2000/svg" 
    xmlns:xlink="http://www.w3.org/1999/xlink"
    xmlns:krita="http://krita.org/namespaces/svg/krita"
    xmlns:sodipodi="http://sodipodi.sourceforge.net/DTD/sodipodi-0.dtd"
    width="190.32pt"
    height="120.48pt"
    viewBox="0 0 190.32 120.48">
<defs/>
<path id="shape0" transform="matrix(0.999999835529134 0 0 0.999999835529134 1.57881063705121 -0.254076734388908)" fill="#ab2e39" fill-opacity="0.6" fill-rule="evenodd" stroke-opacity="0" stroke="#000000" stroke-width="0" stroke-linecap="square" stroke-linejoin="bevel" d="M24.2823 0L15.1882 13.5694L4.98824 17.9341L16.4941 20.4824L11.8 43.04L0 55.5694L17.047 47.8824L23.1294 86.7341L27.5294 119.835L39.6 106.181L53.1765 117.141L57.4 70.3412L57.5647 51.9529L63.3176 74.8353L62.447 80.0941L69.3765 60.7412L63.6588 38.6471L60.6353 26.9412L69.5529 21.9577L77.4941 24.4518L71.4353 15.3341L59.2353 7.03529L62.4823 1.51765L51.6117 2.05882L24.2823 0" sodipodi:nodetypes="ccccccccccccccccccccccccc"/><path id="shape1" transform="matrix(0.999999835529134 0 0 0.999999835529134 13.5552719813683 1.24004066017391)" fill="#ab2e39" fill-opacity="0.6" fill-rule="evenodd" stroke-opacity="0" stroke="#000000" stroke-width="0" stroke-linecap="square" stroke-linejoin="bevel" d="M14 1.74118L3.45882 10.6824L0 18.1647L10.0353 12.9412L4.92941 29.8824L3.32941 40.2353L12.0941 33.9882L11.6235 59.6824L20.2706 80.0588L27.2706 90.0941L34.9176 65.8941L37.9882 35.7412L46.4706 40.0353L49.6353 49.6L43.6471 26.7294L44.1765 17.1647L55.0235 24.2471L47.0118 10.1176L43.9882 4.21176L35.6353 4.84706L33.1882 0L14 1.74118" sodipodi:nodetypes="cccccccccccccccccccccc"/><path id="shape3" transform="matrix(0.999999835529134 0 0 0.999999835529134 21.4376235904776 3.44004028838869)" fill="#ffff99" fill-opacity="0.466666666666667" fill-rule="evenodd" stroke-opacity="0" stroke="#000000" stroke-width="0" stroke-linecap="square" stroke-linejoin="bevel" d="M10.2706 0L0 7.90588L6.6 12.4471L2.61176 23.1294L6.35294 27.6471L16.0588 16.8824L11.2471 39.0235L13.5176 53.0353L19.3647 60.4588L21.3647 35.6235L24.2941 23.0588L30.8941 27.4353L27.3176 17.6L34.6941 10.5176L38.4 12.6588L26.0941 7.2L21.3765 10.8471L22.4353 1.58824L10.2706 0" sodipodi:nodetypes="ccccccccccccccccccc"/><path id="shape4" transform="matrix(0.999999835529134 0 0 0.999999835529134 1.16704598370096 -0.254076734388908)" fill="#ab2e39" fill-opacity="0.6" fill-rule="evenodd" stroke-opacity="0" stroke="#000000" stroke-width="0" stroke-linecap="square" stroke-linejoin="bevel" d="M24.6941 0L15.1412 11.7341L5.16471 17.1694L16.9059 20.4824L12.0706 43.3577L0 55.9341L17.4588 47.8824L23 89.4636L27.9412 119.835L39.4471 106.087L53.5883 117.141L57.8118 70.3412L57.9765 51.9529L63.7294 74.8353L62.8588 80.0941L69.7883 60.7412L64.0706 38.6471L61.0471 26.9412L72.0118 27.7812L80.9647 31.6636L80.8588 13.5812L59.6471 7.03529L62.8941 1.51765L52.0235 2.05882L24.6941 0" sodipodi:nodetypes="ccccccccccccccccccccccccc"/><path id="shape5" transform="matrix(0.999999835529134 0 0 0.999999835529134 13.5552719813683 1.24004066017391)" fill="#ab2e39" fill-opacity="0.6" fill-rule="evenodd" stroke-opacity="0" stroke="#000000" stroke-width="0" stroke-linecap="square" stroke-linejoin="bevel" d="M14 1.74118L3.45882 10.6824L0 18.1647L10.0353 12.9412L11.6471 24.6636L3.32941 40.2353L12.0941 33.9882L18.8353 58.5459L20.2706 80.0588L27.2706 90.0941L27.7647 67.3106L37.9882 35.7412L46.4706 40.0353L49.6353 49.6L36.2706 29.8871L44.1765 17.1647L55.0235 24.2471L47.0118 10.1176L43.9882 4.21176L35.6353 4.84706L33.1882 0L14 1.74118" sodipodi:nodetypes="cccccccccccccccccccccc"/><path id="shape7" transform="matrix(0.999999835529134 0 0 0.999999835529134 27.7905625456047 3.44004028838869)" fill="#ffff99" fill-opacity="0.466666666666667" fill-rule="evenodd" stroke-opacity="0" stroke="#000000" stroke-width="0" stroke-linecap="square" stroke-linejoin="bevel" d="M3.91766 0L1.4706 6.5812L0.24706 12.4471L7.15295 11.04L0 27.6471L9.70586 16.8824L4.89416 39.0235L12.0588 30.4047L13.0118 60.4588L15.0118 35.6235L14.3412 20.8047L24.5412 27.4353L18.5412 14.9812L20.3059 8.02826L26.5177 5.75767L18.9059 0.616495L15.0236 10.8471L16.0824 1.58824L3.91766 0" sodipodi:nodetypes="ccccccccccccccccccc"/><path id="shape01" transform="matrix(-0.965824042794657 0 0 0.999999810482836 190.722270658889 0.60001903728698)" fill="#ab2e39" fill-opacity="0.6" fill-rule="evenodd" stroke-opacity="0" stroke="#000000" stroke-width="0" stroke-linecap="square" stroke-linejoin="bevel" d="M24.2823 0L15.1882 13.5694L4.98824 17.9341L16.4941 20.4824L11.8 43.04L0 55.5694L17.047 47.8824L23.1294 86.7341L27.5294 119.835L39.6 106.181L53.1765 117.141L57.4 70.3412L57.5647 51.9529L63.3176 74.8353L62.447 80.0941L69.3765 60.7412L63.6588 38.6471L60.6353 26.9412L69.5529 21.9577L77.4941 24.4518L71.4353 15.3341L59.2353 7.03529L62.4823 1.51765L51.6117 2.05882L24.2823 0" sodipodi:nodetypes="ccccccccccccccccccccccccc"/><path id="shape11" transform="matrix(-0.965824042794657 0 0 0.999999810482836 179.155114442485 2.09413639442789)" fill="#ab2e39" fill-opacity="0.6" fill-rule="evenodd" stroke-opacity="0" stroke="#000000" stroke-width="0" stroke-linecap="square" stroke-linejoin="bevel" d="M14 1.74118L3.45882 10.6824L0 18.1647L10.0353 12.9412L4.92941 29.8824L3.32941 40.2353L12.0941 33.9882L11.6235 59.6824L20.2706 80.0588L27.2706 90.0941L34.9176 65.8941L37.9882 35.7412L46.4706 40.0353L49.6353 49.6L43.6471 26.7294L44.1765 17.1647L55.0235 24.2471L47.0118 10.1176L43.9882 4.21176L35.6353 4.84706L33.1882 0L14 1.74118" sodipodi:nodetypes="cccccccccccccccccccccc"/><path id="shape31" transform="matrix(-0.965824042794657 0 0 0.999999810482836 171.542148492535 4.29413596753968)" fill="#ffff99" fill-opacity="0.466666666666667" fill-rule="evenodd" stroke-opacity="0" stroke="#000000" stroke-width="0" stroke-linecap="square" stroke-linejoin="bevel" d="M10.2706 0L0 7.90588L6.6 12.4471L2.61176 23.1294L6.35294 27.6471L16.0588 16.8824L11.2471 39.0235L13.5176 53.0353L19.3647 60.4588L21.3647 35.6235L24.2941 23.0588L30.8941 27.4353L27.3176 17.6L34.6941 10.5176L38.4 12.6588L26.0941 7.2L21.3765 10.8471L22.4353 1.58824L10.2706 0" sodipodi:nodetypes="ccccccccccccccccccc"/><path id="shape41" transform="matrix(-0.965824042794657 0 0 0.999999810482836 191.119962926475 0.60001903728698)" fill="#ab2e39" fill-opacity="0.6" fill-rule="evenodd" stroke-opacity="0" stroke="#000000" stroke-width="0" stroke-linecap="square" stroke-linejoin="bevel" d="M24.6941 0L15.1412 11.7341L5.16471 17.1694L16.9059 20.4824L12.0706 43.3577L0 55.9341L17.4588 47.8824L23 89.4636L27.9412 119.835L39.4471 106.087L53.5883 117.141L57.8118 70.3412L57.9765 51.9529L63.7294 74.8353L62.8588 80.0941L69.7883 60.7412L64.0706 38.6471L61.0471 26.9412L72.0118 27.7812L80.9647 31.6636L80.8588 13.5812L59.6471 7.03529L62.8941 1.51765L52.0235 2.05882L24.6941 0" sodipodi:nodetypes="ccccccccccccccccccccccccc"/><path id="shape51" transform="matrix(-0.965824042794657 0 0 0.999999810482836 179.155114442485 2.09413639442789)" fill="#ab2e39" fill-opacity="0.6" fill-rule="evenodd" stroke-opacity="0" stroke="#000000" stroke-width="0" stroke-linecap="square" stroke-linejoin="bevel" d="M14 1.74118L3.45882 10.6824L0 18.1647L10.0353 12.9412L11.6471 24.6636L3.32941 40.2353L12.0941 33.9882L18.8353 58.5459L20.2706 80.0588L27.2706 90.0941L27.7647 67.3106L37.9882 35.7412L46.4706 40.0353L49.6353 49.6L36.2706 29.8871L44.1765 17.1647L55.0235 24.2471L47.0118 10.1176L43.9882 4.21176L35.6353 4.84706L33.1882 0L14 1.74118" sodipodi:nodetypes="cccccccccccccccccccccc"/><path id="shape71" transform="matrix(-0.965824042794657 0 0 0.999999810482836 165.406326298102 4.29413596753968)" fill="#ffff99" fill-opacity="0.466666666666667" fill-rule="evenodd" stroke-opacity="0" stroke="#000000" stroke-width="0" stroke-linecap="square" stroke-linejoin="bevel" d="M3.91766 0L1.4706 6.5812L0.24706 12.4471L7.15295 11.04L0 27.6471L9.70586 16.8824L4.89416 39.0235L12.0588 30.4047L13.0118 60.4588L15.0118 35.6235L14.3412 20.8047L24.5412 27.4353L18.5412 14.9812L20.3059 8.02826L26.5177 5.75767L18.9059 0.616495L15.0236 10.8471L16.0824 1.58824L3.91766 0" sodipodi:nodetypes="ccccccccccccccccccc"/>
</svg>
