<?xml version="1.0" standalone="no"?>
<!DOCTYPE svg PUBLIC "-//W3C//DTD SVG 20010904//EN" "http://www.w3.org/TR/2001/REC-SVG-20010904/DTD/svg10.dtd">
<!-- Created using Krita: https://krita.org -->
<svg xmlns="http://www.w3.org/2000/svg" 
    xmlns:xlink="http://www.w3.org/1999/xlink"
    xmlns:krita="http://krita.org/namespaces/svg/krita"
    xmlns:sodipodi="http://sodipodi.sourceforge.net/DTD/sodipodi-0.dtd"
    width="332.16pt"
    height="318.48pt"
    viewBox="0 0 332.16 318.48">
<defs/>
<ellipse id="shape0" rx="133.107811814822" ry="130.08" cx="133.107811814822" cy="130.08" fill="#385186" fill-rule="evenodd" stroke="none" stroke-width="9.6" stroke-linecap="square" stroke-linejoin="bevel"/><path id="shape1" transform="translate(18.9284235851246, 82.8729871433057)" fill="#58a758" fill-rule="evenodd" stroke="none" stroke-width="9.6" stroke-linecap="square" stroke-linejoin="bevel" d="M44.3379 72.4702C28.7407 72.4702 13.9469 9.25535 40.489 0.784471C65.3061 -7.13589 55.8488 47.3578 66.1082 54.629C86.2937 68.9352 92.7684 32.8321 119.632 64.8125C124.016 70.0312 128.627 75.5716 126.969 83.2151C117.359 127.526 77.4994 100.423 51.3942 103.983C50.1072 104.159 39.3257 105.385 39.2862 108.032C39.1449 117.497 59.8984 134.608 37.8028 127.157C35.441 126.36 33.0287 125.159 30.4658 125.513C23.4642 126.479 12.3256 123.583 6.69082 118.858C-18.758 97.5134 36.6362 70.2916 35.9986 73.3523" sodipodi:nodetypes="ccccccccccc"/><path id="shape2" transform="translate(154.495657860298, 51.1174645941459)" fill="#58a758" fill-rule="evenodd" stroke="none" stroke-width="9.6" stroke-linecap="square" stroke-linejoin="bevel" d="M21.2307 6.03871C18.6622 5.61062 15.3975 6.69663 13.2122 7.88297C-31.8056 32.3212 52.3519 67.7883 56.1114 88.5495C59.2731 106.01 21.4875 163.943 51.7012 156.026C90.4163 145.881 121.839 93.7537 105.866 55.2325C97.798 35.7733 64.2574 52.2186 49.8569 32.9008C42.7161 23.3217 54.4861 14.1337 51.1399 4.23454C48.4914 -3.60043 33.2085 1.63962 28.5677 2.67092C27.8107 2.83913 24.7899 3.56032 25.9216 4.31472" sodipodi:nodetypes="ccccccccc"/><path id="shape3" transform="translate(65.6085022255524, 86.7846895946877)" fill="#72583c" fill-rule="evenodd" stroke="none" stroke-width="9.6" stroke-linecap="square" stroke-linejoin="bevel" d="M8.6432 0C1.88553 0 2.07855 14.8216 1.42652 18.0818C-0.863628 29.5325 -1.04061 33.0183 5.79662 42.378C17.4301 58.3035 39.8057 51.2673 54.5093 44.3024C56.6683 43.2798 63.6271 47.4912 64.332 46.267C65.4822 44.2693 66.2443 41.2986 65.7753 38.9701C55.3533 -12.7808 23.7655 31.3777 18.3857 29.9894C8.88942 27.5387 10.2342 15.7948 10.8884 8.86049C11.0548 7.09669 8.72053 -0.630059 8.122 1.76408" sodipodi:nodetypes="ccccccccc"/><path id="shape4" transform="translate(174.947670671835, 101.960459797272)" fill="#72583c" fill-rule="evenodd" stroke="none" stroke-width="9.6" stroke-linecap="square" stroke-linejoin="bevel" d="M2.9437 3.34706C0.61739 2.57163 0.166788 17.274 0.137213 17.9408C-0.527387 32.9245 0.0924689 82.3516 29.0441 69.3397C34.0279 67.0998 36.8938 58.1871 39.4682 54.0243C56.3995 26.6459 9.60407 -5.1393 0.578233 0.700945" sodipodi:nodetypes="ccccc"/><path id="shape5" transform="translate(100.543800507402, 18.4266115391843)" fill="#72583c" fill-rule="evenodd" stroke="none" stroke-width="9.6" stroke-linecap="square" stroke-linejoin="bevel" d="M31.0405 0C-38.6925 0 31.1399 45.5694 29.1561 55.4883C28.9805 56.3664 30.9496 55.5982 31.8423 55.5284C39.6923 54.9151 44.947 44.9058 47.679 38.8899C49.4143 35.0688 57.0323 20.6142 55.6574 15.7564C54.2303 10.7141 26.9076 -3.96366 23.4229 1.84426" sodipodi:nodetypes="cccccc"/><path id="shape6" transform="translate(124.81663847647, 143.435695044791)" fill="#c7ccdc" fill-rule="evenodd" stroke="none" stroke-width="9.6" stroke-linecap="square" stroke-linejoin="bevel" d="M3.07912 147.421L23.4863 0L207.271 7.89826L185.942 51.3989L133.821 55.8892L113.414 77.0181L147.694 109.734L109.766 142.169L80.9793 107.448L54.3176 124.047L44.6553 167.467L0.192445 174.844C-0.449038 174.711 0.513187 165.57 3.07912 147.421Z" sodipodi:nodetypes="ccccccccccccc"/><ellipse id="shape7" transform="translate(153.12, 193.16)" rx="27.12" ry="27" cx="27.12" cy="27" fill="#802655" fill-rule="evenodd" stroke="#f47b62" stroke-width="9.6" stroke-linecap="square" stroke-linejoin="bevel"/>
</svg>
