<?xml version="1.0" standalone="no"?>
<!DOCTYPE svg PUBLIC "-//W3C//DTD SVG 20010904//EN" "http://www.w3.org/TR/2001/REC-SVG-20010904/DTD/svg10.dtd">
<!-- Created using Krita: https://krita.org -->
<svg xmlns="http://www.w3.org/2000/svg" 
    xmlns:xlink="http://www.w3.org/1999/xlink"
    xmlns:krita="http://krita.org/namespaces/svg/krita"
    xmlns:sodipodi="http://sodipodi.sourceforge.net/DTD/sodipodi-0.dtd"
    width="67.44pt"
    height="92.16pt"
    viewBox="0 0 67.44 92.16">
<defs/>
<path id="shape0" transform="matrix(0.999999949558844 0 0 0.999999949558844 27.0120728210264 13.0856151600117)" fill="#8af462" fill-opacity="0.576470588235294" fill-rule="evenodd" stroke-opacity="0" stroke="#000000" stroke-width="0" stroke-linecap="square" stroke-linejoin="bevel" d="M0.223529 18.2471L0 51.7176L6.58824 65.2118L12.0471 57.2118L15.6706 12.5765L8.38824 0L0.223529 18.2471" sodipodi:nodetypes="ccccccc"/><path id="shape1" transform="matrix(0.999999949558844 0 0 0.999999949558844 27.8826610124074 17.0032620212242)" fill="#8af462" fill-opacity="0.431372549019608" fill-rule="evenodd" stroke-opacity="0" stroke="#000000" stroke-width="0" stroke-linecap="square" stroke-linejoin="bevel" d="M8.51765 0L5 20.1529L0.282353 15.1176L0 15.0235L8.51765 0" sodipodi:nodetypes="ccccc"/><path id="shape2" transform="matrix(0.999999949558844 0 0 0.999999949558844 29.3179550576567 36.285613989776)" fill="#62f4a1" fill-opacity="0.431372549019608" fill-rule="evenodd" stroke-opacity="0" stroke="#000000" stroke-width="0" stroke-linecap="square" stroke-linejoin="bevel" d="M0 0L4.54118 4.47059L4.78824 38.2353L0.470588 30.3294L0 0" sodipodi:nodetypes="ccccc"/><path id="shape3" transform="matrix(0.999999949558844 0 0 0.999999949558844 36.2591311781233 22.7679676127992)" fill="#c6e741" fill-opacity="0.431372549019608" fill-rule="evenodd" stroke-opacity="0" stroke="#000000" stroke-width="0" stroke-linecap="square" stroke-linejoin="bevel" d="M1.71765 0L3.65882 7.51765L0 29.0471L1.71765 0" sodipodi:nodetypes="cccc"/><path id="shape4" transform="matrix(0.999999949558844 0 0 0.999999949558844 30.5885432288601 24.7444381013385)" fill="#b6ff77" fill-opacity="0.333333333333333" fill-rule="evenodd" stroke-opacity="0" stroke="#000000" stroke-width="0" stroke-linecap="square" stroke-linejoin="bevel" d="M0 10.4824L4 0L7.51765 2.31765L6.97647 36.7294L3.03529 49.8353L0.247059 26.9412L1.48235 7.58824L0 10.4824" sodipodi:nodetypes="cccccccc"/><path id="shape5" transform="matrix(0.999999949558844 0 0 0.999999949558844 26.8120728311152 16.015026776954)" fill="#75f462" fill-opacity="0.886274509803922" fill-rule="evenodd" stroke-opacity="0" stroke="#000000" stroke-width="0" stroke-linecap="square" stroke-linejoin="bevel" d="M8.35294 0L0 15.0235L2.70588 16.9412L8.35294 0" sodipodi:nodetypes="cccc"/><path id="shape6" transform="matrix(0.999999949558844 0 0 0.999999949558844 26.906190473426 35.0620846397286)" fill="#75f462" fill-opacity="0.886274509803922" fill-rule="evenodd" stroke-opacity="0" stroke="#000000" stroke-width="0" stroke-linecap="square" stroke-linejoin="bevel" d="M1.11765 0L6.69412 43.0706L0 31.1059L1.11765 0" sodipodi:nodetypes="cccc"/><path id="shape7" transform="matrix(0.999999949558844 0 0 0.999999949558844 36.0120723670563 15.8150267870429)" fill="#75f462" fill-opacity="0.698039215686274" fill-rule="evenodd" stroke-opacity="0" stroke="#000000" stroke-width="0" stroke-linecap="square" stroke-linejoin="bevel" d="M0 0L6.4 12.2235L3.16471 54.6L1.45882 34.7647L0 0" sodipodi:nodetypes="ccccc"/><path id="shape8" transform="matrix(0.999999949558844 0 0 0.999999949558844 28.517955098009 52.2973778880078)" fill="#7fccdd" fill-opacity="0.454901960784314" fill-rule="evenodd" stroke-opacity="0" stroke="#000000" stroke-width="0" stroke-linecap="square" stroke-linejoin="bevel" d="M5.11765 23.8941L10.8941 15.8588L11.3647 0L6.61176 5.30588L6.94118 16.3294L0 12.6118L5.11765 23.8941" sodipodi:nodetypes="ccccccc"/><path id="shape9" transform="matrix(0.999999949558844 0 0 0.999999949558844 30.5414844077042 27.2856144437472)" fill="#b8ff62" fill-opacity="0.541176470588235" fill-rule="evenodd" stroke-opacity="0" stroke="#000000" stroke-width="0" stroke-linecap="square" stroke-linejoin="bevel" d="M2.81176 0L8.21176 4.90588L6.67059 38.7765L1.85882 42.2353L0 28.1059L2.81176 0" sodipodi:nodetypes="cccccc"/><ellipse id="shape10" transform="matrix(0.999999949558844 0 0 0.999999949558844 0.0120741829377506 0.167968752769326)" rx="33.6294117647059" ry="45.9" cx="33.6294117647059" cy="45.9" fill="#8af462" fill-opacity="0.219607843137255" fill-rule="evenodd" stroke-opacity="0" stroke="#000000" stroke-width="0" stroke-linecap="square" stroke-linejoin="bevel"/>
</svg>
