<?xml version="1.0" standalone="no"?>
<!DOCTYPE svg PUBLIC "-//W3C//DTD SVG 20010904//EN" "http://www.w3.org/TR/2001/REC-SVG-20010904/DTD/svg10.dtd">
<!-- Created using Krita: https://krita.org -->
<svg xmlns="http://www.w3.org/2000/svg" 
    xmlns:xlink="http://www.w3.org/1999/xlink"
    xmlns:krita="http://krita.org/namespaces/svg/krita"
    xmlns:sodipodi="http://sodipodi.sourceforge.net/DTD/sodipodi-0.dtd"
    width="594.24pt"
    height="481.92pt"
    viewBox="0 0 594.24 481.92">
<defs>
  <linearGradient id="gradient0" gradientUnits="objectBoundingBox" x1="0" y1="0" x2="1" y2="1" spreadMethod="pad">
   <stop stop-color="#ffffff" offset="0" stop-opacity="1"/>
   <stop stop-color="#6b6a7b" offset="1" stop-opacity="1"/>
  </linearGradient>
 </defs>
<path id="shape0" transform="matrix(0.999999963436774 0 0 0.999999963436774 31.7053185491448 135.054046094477)" fill="#191a28" fill-rule="evenodd" stroke-opacity="0" stroke="#000000" stroke-width="0" stroke-linecap="square" stroke-linejoin="bevel" d="M0 31.0741L13.7917 274.607C12.3185 316.447 23.4794 335.852 47.2745 332.822C71.0696 329.792 185.972 341.786 385.932 344.038C428.844 335.221 438.039 317.593 438.219 277.308C438.398 237.026 440.072 174.328 443.242 89.2169C449.631 32.9189 440.054 4.81458 414.514 4.90382C376.201 5.03765 109.118 -8.77758 20.8901 9.38659C18.0775 17.1854 19.4458 2.39203 0 31.0741Z" sodipodi:nodetypes="cczczczcc"/><path id="shape1" transform="matrix(0.999999959382107 0 0 0.999999959382107 318.929524525447 23.5183862682453)" fill="#585982" stroke="#dbeaf2" stroke-width="9.6" stroke-linecap="square" stroke-linejoin="miter" stroke-miterlimit="2" d="M0 118.674L268.782 0" sodipodi:nodetypes="cc"/><path id="shape01" transform="matrix(0.999999959382107 0 0 0.999999959382107 28.2302347577072 148.569444457339)" fill="#645688" fill-rule="evenodd" stroke-opacity="0" stroke="#000000" stroke-width="0" stroke-linecap="square" stroke-linejoin="bevel" d="M0 85.0411L1.33931 274.607C-0.133931 316.447 11.027 335.852 34.8221 332.822C58.6172 329.792 170.494 329.403 370.454 331.655C407.151 335.708 425.587 317.593 425.767 277.308C425.946 237.026 427.62 174.328 430.79 89.2169C437.179 32.9189 427.602 4.81458 402.062 4.90382C363.749 5.03765 96.6658 -8.77758 8.43767 9.38659C5.6251 17.1854 0.401792 9.5708 0 85.0411Z" sodipodi:nodetypes="cczczczcc"/><ellipse id="shape0" transform="translate(366, 190.08)" rx="24.6" ry="24.48" cx="24.6" cy="24.48" fill="url(#gradient0)" fill-rule="evenodd" stroke="#585982" stroke-width="9.6" stroke-linecap="square" stroke-linejoin="bevel"/><rect id="shape1" transform="translate(66.8803708576079, 274.866238175781)" fill="#191a28" fill-rule="evenodd" stroke="none" stroke-width="9.6" stroke-linecap="square" stroke-linejoin="bevel" width="332.88" height="178.08"/><path id="shape2" transform="translate(67.4680197957776, 302.764142078557)" fill="none" stroke="#645688" stroke-width="9.6" stroke-linecap="square" stroke-linejoin="miter" stroke-miterlimit="2" d="M0 0L329.963 0.360834" sodipodi:nodetypes="cc"/><path id="shape3" transform="translate(65.9044039340974, 340.571571759694)" fill="none" stroke="#645688" stroke-width="9.6" stroke-linecap="square" stroke-linejoin="miter" stroke-miterlimit="2" d="M0 0.400927L332.569 0" sodipodi:nodetypes="cc"/><path id="shape4" transform="translate(65.3831986468708, 378.018167011213)" fill="none" stroke="#645688" stroke-width="9.6" stroke-linecap="square" stroke-linejoin="miter" stroke-miterlimit="2" d="M0 0.521205L333.772 0" sodipodi:nodetypes="cc"/><path id="shape5" transform="translate(63.5790264987783, 410.974378249702)" fill="none" stroke="#645688" stroke-width="9.6" stroke-linecap="square" stroke-linejoin="miter" stroke-miterlimit="2" d="M0 0.922132L336.298 0" sodipodi:nodetypes="cc"/><path id="shape6" transform="translate(62.5366159243251, 431.942867881977)" fill="none" stroke="#645688" stroke-width="9.6" stroke-linecap="square" stroke-linejoin="miter" stroke-miterlimit="2" d="M0 0.801854L346.361 0" sodipodi:nodetypes="cc"/><rect id="shape7" transform="translate(79.44, 183.6)" fill="#191a28" fill-rule="evenodd" stroke="none" stroke-width="9.6" stroke-linecap="square" stroke-linejoin="bevel" width="160.32" height="27.36"/><ellipse id="shape8" transform="translate(312, 141.36)" rx="14.88" ry="1.08" cx="14.88" cy="1.08" fill="none" stroke="#dbeaf2" stroke-width="9.6" stroke-linecap="square" stroke-linejoin="bevel"/><ellipse id="shape9" transform="translate(417.84, 84.72)" rx="9.96000000000001" ry="9.84" cx="9.96000000000001" cy="9.84" fill="#dbeaf2" fill-rule="evenodd" stroke="none" stroke-width="9.6" stroke-linecap="square" stroke-linejoin="bevel"/><path id="shape10" transform="translate(498.384514189062, 37.9517634529851)" fill="none" stroke="#dbeaf2" stroke-width="9.6" stroke-linecap="square" stroke-linejoin="miter" stroke-miterlimit="2" d="M0 0L28.3455 41.0549" sodipodi:nodetypes="cc"/><path id="shape11" transform="translate(533.866566434881, 22.4759756937919)" fill="none" stroke="#dbeaf2" stroke-width="9.6" stroke-linecap="square" stroke-linejoin="miter" stroke-miterlimit="2" d="M0 0L30.6308 45.5052" sodipodi:nodetypes="cc"/><path id="shape12" transform="translate(573.037148405688, 0)" fill="none" stroke="#dbeaf2" stroke-width="9.6" stroke-linecap="square" stroke-linejoin="miter" stroke-miterlimit="2" d="M0 0L0.0400927 0" sodipodi:nodetypes="cc"/><path id="shape13" transform="translate(102.188310467957, 198.322621061204)" fill="none" stroke="#dbeaf2" stroke-width="9.6" stroke-linecap="square" stroke-linejoin="miter" stroke-miterlimit="2" d="M0 0L73.0088 0.320742" sodipodi:nodetypes="cc"/><path id="shape14" transform="translate(212.804109503226, 198.001879345988)" fill="none" stroke="#dbeaf2" stroke-width="9.6" stroke-linecap="square" stroke-linejoin="miter" stroke-miterlimit="2" d="M0 0L16.5984 0.641483" sodipodi:nodetypes="cc"/><path id="shape15" transform="translate(828.748480861993, 1094.51506609033)" fill="none" stroke="#dbeaf2" stroke-width="9.6" stroke-linecap="square" stroke-linejoin="miter" stroke-miterlimit="2" d="M52.1205 2.36547L0 0" sodipodi:nodetypes="cc"/>
</svg>
