<?xml version="1.0" standalone="no"?>
<!DOCTYPE svg PUBLIC "-//W3C//DTD SVG 20010904//EN" "http://www.w3.org/TR/2001/REC-SVG-20010904/DTD/svg10.dtd">
<!-- Created using Krita: https://krita.org -->
<svg xmlns="http://www.w3.org/2000/svg" 
    xmlns:xlink="http://www.w3.org/1999/xlink"
    xmlns:krita="http://krita.org/namespaces/svg/krita"
    xmlns:sodipodi="http://sodipodi.sourceforge.net/DTD/sodipodi-0.dtd"
    width="296.64pt"
    height="199.68pt"
    viewBox="0 0 296.64 199.68">
<defs/>
<path id="shape0" transform="matrix(0.999999938472627 0 0 0.999999938472627 77.0117533018247 161.868258431757)" fill="#585982" fill-rule="evenodd" stroke-opacity="0" stroke="#000000" stroke-width="0" stroke-linecap="square" stroke-linejoin="bevel" d="M27.1059 6.18325L19.6471 0.432714L7.90588 0L1.62353 6.71845L0 29.0146L6.49412 34.0933L17.1647 34.4235L26.2 31.3831L28.2471 18.5839L21.8471 5.10147" sodipodi:nodetypes="cccccccccc"/><path id="shape01" transform="matrix(-0.999999921793793 0 0 0.999999921793794 218.777627227499 164.298834338984)" fill="#585982" fill-rule="evenodd" stroke-opacity="0" stroke="#000000" stroke-width="0" stroke-linecap="square" stroke-linejoin="bevel" d="M25.6303 6.18325L18.5776 0.432714L7.47551 0L1.53515 6.71845L0 29.0146L6.1406 34.0933L16.2303 34.4235L24.7737 31.3831L26.7094 18.5839L20.6578 5.10147" sodipodi:nodetypes="cccccccccc"/><path id="shape1" transform="matrix(0.999999938472627 0 0 0.999999938472627 79.8032029160113 164.626180789541)" fill="#a49bbe" fill-rule="evenodd" stroke-opacity="0" stroke="#000000" stroke-width="0" stroke-linecap="square" stroke-linejoin="bevel" d="M11.1144 1.14796C10.8584 0.379976 6.05629 0.274118 5.27914 0.630312C1.4044 -5.19818 -5.86294 31.3362 8.67914 30.4656C19.3989 30.4656 1.27755 28.1993 5.98502 15.5833C4.6706 7.21836 11.2792 7.18301 10.3615 11.1597" sodipodi:nodetypes="ccccc"/><path id="shape2" transform="matrix(0.999999938472627 0 0 0.999999938472627 76.5882239180352 187.174139113245)" fill="#9e545e" fill-rule="evenodd" stroke-opacity="0" stroke="#000000" stroke-width="0" stroke-linecap="square" stroke-linejoin="bevel" d="M0.858147 6.82353L7.47814 11.2824L19.6025 10.7765L27.0684 7.83529L27.7059 2.81176L20.6691 4.82353L7.45362 5.24706L0 0L0.858147 6.82353" sodipodi:nodetypes="ccccccccc"/><path id="shape011" transform="matrix(0.999999915877709 0 0 0.999999915877709 192.258796052876 187.549442284316)" fill="#9e545e" fill-rule="evenodd" stroke-opacity="0" stroke="#000000" stroke-width="0" stroke-linecap="square" stroke-linejoin="bevel" d="M0.823529 7.54285L7.17647 12.4718L18.8118 11.9125L25.9765 8.66126L26.5882 3.10817L19.8353 5.33201L7.15294 5.80019L0 0L0.823529 7.54285" sodipodi:nodetypes="ccccccccc"/><path id="shape3" transform="matrix(0.999999938472627 0 0 0.999999938472627 202.664978137497 167.180604107116)" fill="#a49bbe" fill-rule="evenodd" stroke-opacity="0" stroke="#000000" stroke-width="0" stroke-linecap="square" stroke-linejoin="bevel" d="M3.48794 1.79354C17.545 -7.57785 2.02547 23.2323 0.240883 14.9582C-1.08499 8.81102 3.49625 0.938757 3.46441 2.27589" sodipodi:nodetypes="ccc"/><path id="shape4" transform="matrix(0.999999938472627 0 0 0.999999938472627 84.0996289339233 166.08708311352)" fill="none" stroke-opacity="0" stroke="#000000" stroke-width="0" stroke-linecap="square" stroke-linejoin="bevel" d="M4.19448 1.85177C0.230632 3.4373 -1.55164 17.2251 1.6533 14.4047C5.09984 11.3718 5.1252 -3.59976 3.82977 0.804705" sodipodi:nodetypes="ccc"/><path id="shape011" transform="matrix(0.999999938472627 0 0 0.999999938472627 89.2705760215422 112.74355579409)" fill="#585982" fill-rule="evenodd" stroke-opacity="0" stroke="#000000" stroke-width="0" stroke-linecap="square" stroke-linejoin="bevel" d="M17.5176 3.43529L9.50588 7.84706L2.81176 0L0 29.2588L6.74118 25.7647L13.8353 36.7647C13.6863 36.4824 14.9137 25.3725 17.5176 3.43529Z" sodipodi:nodetypes="ccccccc"/><path id="shape012" transform="matrix(-0.999999914000832 0 0 0.999999914000832 208.223509341171 113.372954581975)" fill="#585982" fill-rule="evenodd" stroke-opacity="0" stroke="#000000" stroke-width="0" stroke-linecap="square" stroke-linejoin="bevel" d="M15.9071 3.43529L8.63195 7.84706L2.55326 0L0 29.2588L6.12143 25.7647L12.5633 36.7647C12.428 36.4824 13.5426 25.3725 15.9071 3.43529Z" sodipodi:nodetypes="ccccccc"/><path id="shape11" transform="matrix(0.999999938472627 0 0 0.999999938472627 0.129405438728128 62.6023826353273)" fill="#a49bbe" fill-rule="evenodd" stroke-opacity="0" stroke="#000000" stroke-width="0" stroke-linecap="square" stroke-linejoin="bevel" d="M94.6588 18.7059L87.7647 94.8941L71.7059 96.9647L44.2706 124.518L0 124.365L82.4353 7.04706L97.5412 0L94.6588 18.7059" sodipodi:nodetypes="cccccccc"/><path id="shape21" transform="matrix(0.999999938472627 0 0 0.999999938472627 27.5411683340636 131.602378077878)" fill="#dce1ed" fill-rule="evenodd" stroke-opacity="0" stroke="#000000" stroke-width="0" stroke-linecap="square" stroke-linejoin="bevel" d="M58.7412 12.2941L43.3529 13.6824L5.57647 51.4L0 51.6471L42.0471 7.75294L54.6941 0L59.2941 6.04706" sodipodi:nodetypes="ccccccc"/><path id="shape013" transform="matrix(-0.996381312459091 0 0 0.999999914245068 296.611738797247 64.230642568253)" fill="#a49bbe" fill-rule="evenodd" stroke-opacity="0" stroke="#000000" stroke-width="0" stroke-linecap="square" stroke-linejoin="bevel" d="M94.6588 18.7059L87.7647 94.8941L71.7059 96.9647L44.2706 124.518L0 124.365L82.4353 7.04706L97.5412 0L94.6588 18.7059" sodipodi:nodetypes="cccccccc"/><path id="shape111" transform="matrix(-0.996381312459091 0 0 0.999999914245068 269.299168826305 133.2306363391)" fill="#dce1ed" fill-rule="evenodd" stroke-opacity="0" stroke="#000000" stroke-width="0" stroke-linecap="square" stroke-linejoin="bevel" d="M58.7412 12.2941L43.3529 13.6824L5.57647 51.4L0 51.6471L42.0471 7.75294L54.6941 0L59.2941 6.04706" sodipodi:nodetypes="ccccccc"/><path id="shape02" transform="matrix(0.999999906600909 0 0 0.999999906600909 9.95292697574945 118.374143657484)" fill="#dce1ed" fill-rule="evenodd" stroke-opacity="0" stroke="#000000" stroke-width="0" stroke-linecap="square" stroke-linejoin="bevel" d="M77.1647 6.03529L67.5294 6.74118L5.57647 65.0635L0 65.3106L41.1059 24.9059L69.5177 0.4L79.1412 0" sodipodi:nodetypes="ccccccc"/><path id="shape03" transform="matrix(-0.99999992696257 0 0 0.99999992696257 284.611739589845 119.705215346686)" fill="#dce1ed" fill-rule="evenodd" stroke-opacity="0" stroke="#000000" stroke-width="0" stroke-linecap="square" stroke-linejoin="bevel" d="M72.6337 6.03529L63.5641 6.74118L5.24903 65.0635L0 65.3106L38.6922 24.9059L65.4357 0.4L74.4941 0" sodipodi:nodetypes="ccccccc"/><path id="shape31" transform="matrix(0.999999938472627 0 0 0.999999938472627 108.494104163593 117.844731927746)" fill="none" stroke="#6ec8fa" stroke-width="0.5376" stroke-linecap="square" stroke-linejoin="bevel" d="M9.25882 0L4.2 61.2235L0 59.6471L9.25882 0" sodipodi:nodetypes="cccc"/><path id="shape0111" transform="matrix(0.999999968904751 0 0 0.999999968904751 129.254670499812 15.6847537933315)" fill="#dce1ed" fill-rule="evenodd" stroke-opacity="0" stroke="#000000" stroke-width="0" stroke-linecap="square" stroke-linejoin="bevel" d="M19.0865 0C8.83552 12.7294 3.2316 24.8157 2.27474 36.2588C1.31787 47.702 0.56101 83.6392 0.00414752 144.071C-0.144872 160.753 3.72179 168.929 11.6041 168.6C19.4865 168.271 22.7336 168.427 21.3453 169.071C20.9155 169.487 20.1626 113.13 19.0865 0Z" sodipodi:nodetypes="czczcc"/><path id="shape021" transform="matrix(0.999999924411753 0 0 0.999999924411753 96.9176310267124 1.02592864774778)" fill="#a49bbe" fill-rule="evenodd" stroke-opacity="0" stroke="#000000" stroke-width="0" stroke-linecap="square" stroke-linejoin="bevel" d="M50.8471 0L10.4706 71.0235L0 179.071L43.4 192.553L61.9624 191.765L50.8471 0" sodipodi:nodetypes="cccccc"/><path id="shape031" transform="matrix(-0.999999924411753 0 0 0.999999924411753 198.811745256936 0.63184025461864)" fill="#a49bbe" fill-rule="evenodd" stroke-opacity="0" stroke="#000000" stroke-width="0" stroke-linecap="square" stroke-linejoin="bevel" d="M50.7915 0L10.4592 71.0235L0 179.071L39.9318 192.265L59.4471 192.1L50.7915 0" sodipodi:nodetypes="cccccc"/><path id="shape04" transform="matrix(-0.999999945912187 0 0 0.999999945912187 167.75291576478 12.8744391073676)" fill="#dce1ed" fill-rule="evenodd" stroke-opacity="0" stroke="#000000" stroke-width="0" stroke-linecap="square" stroke-linejoin="bevel" d="M19.7723 0C9.15299 12.7294 3.34772 24.8157 2.35647 36.2588C1.36522 47.702 0.581167 83.6392 0.00429657 144.071C-0.150078 160.753 3.85552 168.929 12.0211 168.6C20.1867 168.271 23.5505 168.427 22.1122 169.071C21.667 169.487 20.887 113.13 19.7723 0Z" sodipodi:nodetypes="czczcc"/><path id="shape05" transform="matrix(0.999999970722001 0 0 0.999999970722001 129.223514553253 12.8641312521275)" fill="#dce1ed" fill-rule="evenodd" stroke-opacity="0" stroke="#000000" stroke-width="0" stroke-linecap="square" stroke-linejoin="bevel" d="M18.8392 0C8.72102 12.7294 3.18972 24.8157 2.24526 36.2588C1.30079 47.702 0.55374 83.6392 0.00409379 144.071C-0.142995 160.753 3.67356 168.929 11.4538 168.6C19.234 168.271 22.439 168.427 21.0686 169.071C20.6444 169.487 19.9013 113.13 18.8392 0Z" sodipodi:nodetypes="czczcc"/><path id="shape06" transform="matrix(0.999999892364531 0 0 0.999999892364531 116.776444777263 27.9388555130876)" fill="#802655" stroke-opacity="0" stroke="#000000" stroke-width="0" stroke-linecap="square" stroke-linejoin="bevel" d="M13.7529 66.3765L14.0941 33.6588L14.9882 16.2824L21.0353 0L3.95295 24.8471L0 68C0.0941176 68.0627 4.67843 67.5216 13.7529 66.3765Z" sodipodi:nodetypes="ccccccc"/><path id="shape07" transform="matrix(-0.999999848287877 0 0 0.999999848287877 179.388217128096 27.7158016532669)" fill="#802655" stroke-opacity="0" stroke="#000000" stroke-width="0" stroke-linecap="square" stroke-linejoin="bevel" d="M13.4083 66.3765L13.741 33.6588L14.6127 16.2824L20.5082 0L3.8539 24.8471L0 68C0.0917594 68.0627 4.56121 67.5216 13.4083 66.3765Z" sodipodi:nodetypes="ccccccc"/><ellipse id="shape22" transform="matrix(0.999999938472627 0 0 0.999999938472627 71.2799899242776 100.080029429773)" rx="4.80000000000001" ry="4.92000000000002" cx="4.80000000000001" cy="4.92000000000002" fill="#802655" fill-rule="evenodd" stroke="#ffff7d" stroke-width="1.44" stroke-linecap="square" stroke-linejoin="bevel"/><path id="shape32" transform="matrix(0.999999938472627 0 0 0.999999938472627 109.015663475913 170.491787273937)" fill="none" stroke="#ccb1a0" stroke-width="0.5376" stroke-linecap="square" stroke-linejoin="bevel" d="M0.207852 0.0588235C0.144563 -0.131042 -0.333891 0.470942 0.419616 0" sodipodi:nodetypes="cc"/><path id="shape41" transform="matrix(0.999999938472627 0 0 0.999999938472627 109.176457059698 117.468261364376)" fill="#802655" fill-rule="evenodd" stroke-opacity="0" stroke="#000000" stroke-width="0" stroke-linecap="square" stroke-linejoin="bevel" d="M7.25882 0.788235L3.96471 63.3647L0 62.2941L6.70588 0" sodipodi:nodetypes="cccc"/><path id="shape08" transform="matrix(-0.999999893931661 0 0 0.999999893931661 188.282334187698 114.663532275788)" fill="#802655" fill-rule="evenodd" stroke-opacity="0" stroke="#000000" stroke-width="0" stroke-linecap="square" stroke-linejoin="bevel" d="M8.77647 0.788235L4.79364 63.3647L0 62.2941L8.10792 0" sodipodi:nodetypes="cccc"/><path id="shape09" transform="matrix(0.999999940728537 0 0 0.999999940728537 110.223516375664 148.3153331317)" fill="#6ec8fa" fill-opacity="0.619607843137255" fill-rule="evenodd" stroke-opacity="0" stroke="#000000" stroke-width="0" stroke-linecap="square" stroke-linejoin="bevel" d="M0 23.4118L21.1647 12.8941L53.5412 12.8706L75.3059 25.2L53.9294 0.117647L21.9176 0L0 23.4118" sodipodi:nodetypes="ccccccc"/><path id="shape010" transform="matrix(0.999999875624033 0 0 0.999999875624033 144.811733681049 40.5388374673314)" fill="#585982" fill-rule="evenodd" stroke-opacity="0" stroke="#000000" stroke-width="0" stroke-linecap="square" stroke-linejoin="bevel" d="M3.64706 0L0 6.32941L0.235294 130.035L7.01176 129.988L7.4 6.36471L3.64706 0" sodipodi:nodetypes="cccccc"/>
</svg>
