<?xml version="1.0" standalone="no"?>
<!DOCTYPE svg PUBLIC "-//W3C//DTD SVG 20010904//EN" "http://www.w3.org/TR/2001/REC-SVG-20010904/DTD/svg10.dtd">
<!-- Created using Krita: https://krita.org -->
<svg xmlns="http://www.w3.org/2000/svg" 
    xmlns:xlink="http://www.w3.org/1999/xlink"
    xmlns:krita="http://krita.org/namespaces/svg/krita"
    xmlns:sodipodi="http://sodipodi.sourceforge.net/DTD/sodipodi-0.dtd"
    width="847.44pt"
    height="847.44pt"
    viewBox="0 0 847.44 847.44">
<defs>
  <linearGradient id="gradient0" gradientUnits="objectBoundingBox" x1="0" y1="0" x2="1" y2="1" spreadMethod="pad">
   <stop stop-color="#435cb1" offset="0.0229007633587786" stop-opacity="1"/>
   <stop stop-color="#3d3971" offset="1" stop-opacity="1"/>
  </linearGradient>
  <linearGradient id="gradient1" gradientUnits="objectBoundingBox" x1="0" y1="0" x2="1.18588698528745" y2="1.63308911349541" spreadMethod="pad">
   <stop stop-color="#dbeaf2" offset="0.0153" stop-opacity="1"/>
   <stop stop-color="#585982" offset="1" stop-opacity="1"/>
  </linearGradient>
  <linearGradient id="gradient2" gradientUnits="objectBoundingBox" x1="0" y1="0" x2="1.58051784022735" y2="1.92586422324032" spreadMethod="pad">
   <stop stop-color="#dbeaf2" offset="0.0153" stop-opacity="1"/>
   <stop stop-color="#585982" offset="1" stop-opacity="1"/>
  </linearGradient>
 </defs>
<circle id="shape0" r="423.72" cx="423.72" cy="423.72" fill="url(#gradient0)" fill-rule="evenodd" stroke="none" stroke-width="9.6" stroke-linecap="square" stroke-linejoin="bevel"/><path id="shape1" transform="translate(297.796717616095, 83.6173153867803)" fill="#299f31" fill-rule="evenodd" stroke="none" stroke-width="9.6" stroke-linecap="square" stroke-linejoin="bevel" d="M345.25 11.9477C343.28 11.9477 335.135 34.3594 332.421 38.2886C314.089 64.8266 294.326 86.4108 264.464 99.5503C225.581 116.658 191.111 82.5614 149.838 93.8571C74.9272 114.359 115.826 159.395 97.4774 184.386C77.6802 211.352 25.6722 161.164 14.9665 268.22C12.2162 295.724 8.05075 310.386 18.3744 336.699C22.7771 347.92 42.2639 367.236 55.5404 360.674C76.5511 350.29 95.8281 303.701 116.401 284.739C118.452 282.848 139.833 274.837 139.936 275.116C140.172 275.757 142.579 287.304 143.464 286.382C152.05 277.433 174.781 251.053 189.891 261.846C192.597 263.778 194.253 270.397 197.87 270.826C205.743 271.762 223.309 271.194 227.578 279.847C232.4 289.621 194.66 327.097 187.927 337.821C185.452 341.762 189.332 354.503 183.637 356.144C160.432 362.826 133.27 358.122 109.666 361.797C78.2454 366.688 31.7312 407.952 11.9596 431.077C-15.192 462.833 9.27319 535.055 32.046 561.699C45.7668 577.752 68.1657 584.596 81.6808 603.676C92.3863 618.79 108.655 683.137 113.715 685.104C122.744 688.616 133.683 680.376 141.82 677.366C216.159 649.871 270.995 563.833 279.178 486.525C280.995 469.359 247.194 415.554 263.06 405.698C283.442 393.037 308.141 435.756 327.489 412.273C356.115 377.531 325.548 308.072 370.629 301.497C426.554 293.342 491.041 484.864 541.023 355.743C551.974 327.452 525.853 299.296 519.573 273.833C514.266 252.314 519.433 227.742 513.239 206.878C499.661 161.144 469.002 118.217 445.362 77.4191C430.458 51.6984 409.431 34.2189 386.586 16.3579C378.385 9.94593 366.559 10.5782 358.16 4.61071C356.338 3.31599 346.779 -2.91432 347.776 1.64385" sodipodi:nodetypes="ccccccccccccccccccccccccccccccccc"/><path id="shape2" transform="translate(347.201457996165, 496.291674497275)" fill="#99875b" fill-rule="evenodd" stroke="none" stroke-width="9.6" stroke-linecap="square" stroke-linejoin="bevel" d="M140.406 0C110.287 15.0594 63.6798 -10.545 34.0803 13.2707C17.5063 26.6061 -7.15624 62.045 1.96599 85.3574C6.43647 96.7819 23.7861 104.146 29.8304 114.866C34.4213 123.008 22.256 141.812 24.0972 144.173C40.057 164.644 78.1095 167.941 100.995 172.88C106.289 174.022 116.383 187.23 116.832 187.193C119.673 186.956 122.921 167.837 126.253 165.423C133.212 160.38 137.939 173.788 146.981 164.42C153.291 157.883 179.901 99.5463 182.183 90.7699C190.987 56.9063 173.912 26.1262 150.951 5.25215C149.782 4.18968 142.21 2.7808 142.21 2.08482" sodipodi:nodetypes="cccccccccccc"/><path id="shape3" transform="translate(359.82134338433, 172.806277689501)" fill="#75bf58" fill-rule="evenodd" stroke="none" stroke-width="9.6" stroke-linecap="square" stroke-linejoin="bevel" d="M6.22514 187.17C6.22514 182.289 0.703723 179.999 0.211232 174.902C-4.24808 128.748 63.1034 145.943 88.2548 127.392C109.747 111.54 71.5579 69.3402 90.0991 53.3006C122.701 25.0971 155.104 72.4474 185.68 79.6816C206.084 84.5091 230.544 77.6346 250.751 73.8281C285.065 67.3641 307.117 54.6058 331.537 30.4077C336.572 25.4186 342.652 20.0671 345.209 13.248C345.648 12.0774 344.982 0.640125 347.695 0.0975624C350.625 -0.48841 353.475 1.70527 356.194 2.94415C376.853 12.3573 377.914 77.3011 358.359 89.2638C343.237 98.5151 185.238 129.297 162.226 130.319C124.825 131.979 128.423 147.559 98.1978 159.386C85.2707 164.444 72.465 163.571 59.8692 167.565C51.4739 170.227 46.5715 179.321 38.179 181.597C28.2507 184.29 17.8976 177.246 7.42792 181.076" sodipodi:nodetypes="cccccccccccccccc"/><path id="shape4" transform="translate(3.28546927947633, 239.466735941417)" fill="#99875b" fill-rule="evenodd" stroke="none" stroke-width="9.6" stroke-linecap="square" stroke-linejoin="bevel" d="M53.6462 12.2193C46.5487 0.390129 91.5894 -0.302071 101.958 0.0711955C117.297 0.62342 132.227 7.69066 141.73 19.877C163.14 47.3343 145.851 90.9317 174.446 117.342C198.323 139.397 242.665 129.783 258.761 162.447C287.238 220.239 265.974 315.802 208.685 351.123C193.291 360.614 178.073 349.209 162.819 367.761C154.475 377.91 172.448 415.058 178.856 421.927C183.522 426.929 188.563 431.658 191.485 437.964C192.907 441.034 197.737 449.802 195.454 447.305C164.734 413.705 126.461 387.268 110.618 341.501C106.574 329.819 100.232 301.796 106.328 290.543C109.467 284.747 129.032 264.025 121.964 257.186C118.145 253.49 108.679 258.42 104.163 258.028C89.5513 256.76 79.106 253.427 64.4311 257.707C58.1337 259.544 56.5268 267.588 50.6392 270.176C31.3629 278.649 10.1464 255.946 5.93586 239.104C-7.41047 185.719 3.62333 115.58 20.4895 64.9813C24.8438 51.9184 26.2521 35.5869 34.2012 24.207C36.8976 20.347 41.7165 6.94048 46.6701 10.6557" sodipodi:nodetypes="cccccccccccccccccccc"/><path id="shape5" transform="translate(184.665137150987, 3.44456898856315)" fill="url(#gradient1)" fill-rule="evenodd" stroke="none" stroke-width="9.6" stroke-linecap="square" stroke-linejoin="bevel" d="M2.56784 90.7974C1.40267 90.7974 -0.871018 95.5594 27.1848 82.8991C48.3766 73.3362 93.3628 80.4211 110.898 93.4435C123.694 102.946 128.401 120.901 141.73 129.727C149.962 135.178 159.252 133.711 168.311 130.529C203.992 117.998 185.418 106.304 204.715 85.7056C212.062 77.8639 251.537 68.3953 263.09 70.4303C274.022 72.3557 394.092 59.1306 388.701 34.868C385.008 18.2497 358.428 18.8506 345.721 14.8217C272.123 -8.51452 140.543 -5.40585 72.9306 32.1016C62.5312 37.8706 -1.87666 74.7979 0.0419981 87.2692" sodipodi:nodetypes="ccccccccccc"/><path id="shape6" transform="translate(403.813819457496, 749.07623880223)" fill="url(#gradient2)" fill-rule="evenodd" stroke="none" stroke-width="9.6" stroke-linecap="square" stroke-linejoin="bevel" d="M253.947 0C252.751 0 249.035 7.80274 247.155 8.58186C224.099 18.1347 202.489 32.19 178.934 40.644C161.199 47.0091 132.026 38.1212 113.271 45.0874C79.5252 57.6222 42.5511 70.7635 9.9131 85.2958C5.29513 87.352 5.57451 94.5744 0.227205 96.0558C-0.921976 96.3742 2.60194 96.2301 3.79128 96.2301C13.2038 96.2301 23.1732 94.5786 34.5198 95.4207C55.6268 96.987 84.5861 96.308 104.843 92.1352C124.8 88.0243 195.57 64.705 210.298 52.8852C219.424 45.5608 231.787 36.7462 237.678 26.1376C239.477 22.899 245.543 6.49588 249.922 7.40566" sodipodi:nodetypes="cccccccccccc"/>
</svg>
